Italic_opsz12.ufo
<glyph name="comma" format="2">
	<unicode hex="002C"/>
	<advance width="542"/>
	<outline>
		<contour>
			<point x="144.1028745185" y="98" type="curve" smooth="yes"/>
			<point x="144.1028745185" y="54"/>
			<point x="174.1028745185" y="0"/>
			<point x="242.1028745185" y="0" type="curve" smooth="yes"/>
			<point x="268.1028745185" y="0"/>
			<point x="290.1028745185" y="8"/>
			<point x="308.1028745185" y="26" type="curve" smooth="yes"/>
			<point x="312.1028745185" y="30"/>
			<point x="314.1028745185" y="30"/>
			<point x="316.1028745185" y="30" type="curve" smooth="yes"/>
			<point x="320.1028745185" y="30"/>
			<point x="320.1028745185" y="2"/>
			<point x="320.1028745185" y="-8" type="curve" smooth="yes"/>
			<point x="320.1028745185" y="-74"/>
			<point x="308.1028745185" y="-204"/>
			<point x="192.1028745185" y="-334" type="curve" smooth="yes"/>
			<point x="170.1028745185" y="-358"/>
			<point x="170.1028745185" y="-362"/>
			<point x="170.1028745185" y="-366" type="curve" smooth="yes"/>
			<point x="170.1028745185" y="-376"/>
			<point x="180.1028745185" y="-386"/>
			<point x="190.1028745185" y="-386" type="curve" smooth="yes"/>
			<point x="206.1028745185" y="-386"/>
			<point x="360.1028745185" y="-238"/>
			<point x="360.1028745185" y="-8" type="curve" smooth="yes"/>
			<point x="360.1028745185" y="108"/>
			<point x="322.1028745185" y="194"/>
			<point x="240.1028745185" y="194" type="curve" smooth="yes"/>
			<point x="176.1028745185" y="194"/>
			<point x="144.1028745185" y="142"/>
		</contour>
	</outline>
</glyph>
<glyph name="period" format="2">
	<unicode hex="002E"/>
	<advance width="542"/>
	<outline>
		<contour>
			<point x="275" y="96" type="curve" smooth="yes"/>
			<point x="275" y="154"/>
			<point x="227" y="194"/>
			<point x="179" y="194" type="curve" smooth="yes"/>
			<point x="121" y="194"/>
			<point x="81" y="146"/>
			<point x="81" y="98" type="curve" smooth="yes"/>
			<point x="81" y="40"/>
			<point x="129" y="0"/>
			<point x="177" y="0" type="curve" smooth="yes"/>
			<point x="235" y="0"/>
			<point x="275" y="48"/>
		</contour>
	</outline>
</glyph>
<glyph name="slash" format="2">
  <advance width="489"/>
  <unicode hex="002F"/>
  <outline>
    <contour>
      <point x="468.0514372592618" y="713.0" type="line"/>
      <point x="468.0514372592618" y="714.0"/>
      <point x="474.0514372592618" y="729.0"/>
      <point x="474.0514372592618" y="731.0" type="curve" smooth="yes"/>
      <point x="474.0514372592618" y="743.0"/>
      <point x="464.0514372592618" y="750.0"/>
      <point x="456.0514372592618" y="750.0" type="curve" smooth="yes"/>
      <point x="451.0514372592618" y="750.0"/>
      <point x="442.0514372592618" y="750.0"/>
      <point x="434.0514372592618" y="728.0" type="curve" smooth="yes"/>
      <point x="99.05143725926179" y="-213.0" type="line"/>
      <point x="99.05143725926179" y="-214.0"/>
      <point x="93.05143725926179" y="-229.0"/>
      <point x="93.05143725926179" y="-231.0" type="curve" smooth="yes"/>
      <point x="93.05143725926179" y="-243.0"/>
      <point x="103.05143725926179" y="-250.0"/>
      <point x="111.05143725926179" y="-250.0" type="curve" smooth="yes"/>
      <point x="117.05143725926179" y="-250.0"/>
      <point x="126.05143725926179" y="-249.0"/>
      <point x="133.05143725926177" y="-228.0" type="curve" smooth="yes"/>
    </contour>
  </outline>
</glyph>
<glyph name="zero" format="2">
	<unicode hex="0030"/>
	<advance width="978"/>
	<outline>
		<contour>
			<point x="864.1028745185" y="428" type="curve" smooth="yes"/>
			<point x="864.1028745185" y="618"/>
			<point x="814.1028745185" y="904"/>
			<point x="460.1028745185" y="904" type="curve" smooth="yes"/>
			<point x="122.1028745185" y="904"/>
			<point x="54.1028745185" y="648"/>
			<point x="54.1028745185" y="428" type="curve" smooth="yes"/>
			<point x="54.1028745185" y="234"/>
			<point x="106.1028745185" y="-42"/>
			<point x="458.1028745185" y="-42" type="curve" smooth="yes"/>
			<point x="816.1028745185" y="-42"/>
			<point x="864.1028745185" y="238"/>
		</contour>
		<contour>
			<point x="460.1028745185" y="-2" type="curve" smooth="yes"/>
			<point x="398.1028745185" y="-2"/>
			<point x="276.1028745185" y="16"/>
			<point x="230.1028745185" y="150" type="curve" smooth="yes"/>
			<point x="202.1028745185" y="230"/>
			<point x="202.1028745185" y="358"/>
			<point x="202.1028745185" y="444" type="curve" smooth="yes"/>
			<point x="202.1028745185" y="550"/>
			<point x="202.1028745185" y="658"/>
			<point x="237.1028745185" y="737" type="curve" smooth="yes"/>
			<point x="270.1028745185" y="813"/>
			<point x="334.1028745185" y="864"/>
			<point x="460.1028745185" y="864" type="curve" smooth="yes"/>
			<point x="576.1028745185" y="864"/>
			<point x="639.1028745185" y="820"/>
			<point x="674.1028745185" y="752" type="curve" smooth="yes"/>
			<point x="716.1028745185" y="671"/>
			<point x="716.1028745185" y="556"/>
			<point x="716.1028745185" y="444" type="curve" smooth="yes"/>
			<point x="716.1028745185" y="342"/>
			<point x="716.1028745185" y="208"/>
			<point x="680.1028745185" y="126" type="curve" smooth="yes"/>
			<point x="634.1028745185" y="20"/>
			<point x="522.1028745185" y="-2"/>
		</contour>
	</outline>
</glyph>
<glyph name="one" format="2">
	<unicode hex="0031"/>
	<advance width="978"/>
	<outline>
		<contour>
			<point x="412.1028745185" y="788" type="curve"/>
			<point x="412.1028745185" y="156" type="line" smooth="yes"/>
			<point x="412.1028745185" y="104"/>
			<point x="410.1028745185" y="78"/>
			<point x="368.1028745185" y="68" type="curve" smooth="yes"/>
			<point x="326.1028745185" y="58"/>
			<point x="228.1028745185" y="58"/>
			<point x="224.1028745185" y="58" type="curve" smooth="yes"/>
			<point x="174.1028745185" y="58"/>
			<point x="168.1028745185" y="58"/>
			<point x="168.1028745185" y="28" type="curve" smooth="yes"/>
			<point x="168.1028745185" y="0"/>
			<point x="180.1028745185" y="0"/>
			<point x="202.1028745185" y="0" type="curve" smooth="yes"/>
			<point x="246.1028745185" y="0"/>
			<point x="294.1028745185" y="4"/>
			<point x="338.1028745185" y="4" type="curve" smooth="yes"/>
			<point x="432.1028745185" y="4"/>
			<point x="524.1028745185" y="4"/>
			<point x="618.1028745185" y="4" type="curve" smooth="yes"/>
			<point x="662.1028745185" y="4"/>
			<point x="712.1028745185" y="0"/>
			<point x="756.1028745185" y="0" type="curve" smooth="yes"/>
			<point x="778.1028745185" y="0"/>
			<point x="790.1028745185" y="0"/>
			<point x="790.1028745185" y="28" type="curve" smooth="yes"/>
			<point x="790.1028745185" y="58"/>
			<point x="784.1028745185" y="58"/>
			<point x="732.1028745185" y="58" type="curve" smooth="yes"/>
			<point x="690.1028745185" y="58"/>
			<point x="657.1028745185" y="59"/>
			<point x="632.1028745185" y="61" type="curve" smooth="yes"/>
			<point x="546.1028745185" y="69"/>
			<point x="546.1028745185" y="93"/>
			<point x="546.1028745185" y="156" type="curve" smooth="yes"/>
			<point x="546.1028745185" y="852" type="line" smooth="yes"/>
			<point x="546.1028745185" y="890"/>
			<point x="546.1028745185" y="902"/>
			<point x="526.1028745185" y="902" type="curve" smooth="yes"/>
			<point x="522.1028745185" y="902"/>
			<point x="518.1028745185" y="902"/>
			<point x="502.1028745185" y="892" type="curve" smooth="yes"/>
			<point x="446.1028745185" y="854"/>
			<point x="358.1028745185" y="820"/>
			<point x="208.1028745185" y="818" type="curve"/>
			<point x="168.1028745185" y="818"/>
			<point x="156.1028745185" y="818"/>
			<point x="156.1028745185" y="790" type="curve" smooth="yes"/>
			<point x="156.1028745185" y="760"/>
			<point x="170.1028745185" y="760"/>
			<point x="204.1028745185" y="760" type="curve" smooth="yes"/>
			<point x="220.1028745185" y="760"/>
			<point x="314.1028745185" y="760"/>
		</contour>
	</outline>
</glyph>
<glyph name="two" format="2">
	<unicode hex="0032"/>
	<advance width="978"/>
	<outline>
		<contour>
			<point x="47" y="0" type="curve" smooth="yes"/>
			<point x="683" y="0" type="line" smooth="yes"/>
			<point x="727" y="0"/>
			<point x="729" y="2"/>
			<point x="735" y="16" type="curve"/>
			<point x="741" y="38"/>
			<point x="787" y="226"/>
			<point x="787" y="236" type="curve" smooth="yes"/>
			<point x="787" y="250"/>
			<point x="777" y="256"/>
			<point x="765" y="256" type="curve" smooth="yes"/>
			<point x="747" y="256"/>
			<point x="745" y="246"/>
			<point x="741" y="228" type="curve"/>
			<point x="737" y="216"/>
			<point x="717" y="136"/>
			<point x="699" y="132" type="curve" smooth="yes"/>
			<point x="675" y="126"/>
			<point x="601" y="126"/>
			<point x="551" y="126" type="curve" smooth="yes"/>
			<point x="171" y="126" type="line"/>
			<point x="271" y="192"/>
			<point x="383" y="262"/>
			<point x="479" y="312" type="curve" smooth="yes"/>
			<point x="649" y="398"/>
			<point x="787" y="468"/>
			<point x="787" y="628" type="curve" smooth="yes"/>
			<point x="787" y="816"/>
			<point x="591" y="904"/>
			<point x="375" y="904" type="curve" smooth="yes"/>
			<point x="153" y="904"/>
			<point x="15" y="782"/>
			<point x="15" y="648" type="curve" smooth="yes"/>
			<point x="15" y="586"/>
			<point x="65" y="574"/>
			<point x="85" y="574" type="curve" smooth="yes"/>
			<point x="109" y="574"/>
			<point x="153" y="592"/>
			<point x="153" y="644" type="curve" smooth="yes"/>
			<point x="153" y="654"/>
			<point x="151" y="708"/>
			<point x="83" y="712" type="curve"/>
			<point x="135" y="820"/>
			<point x="261" y="846"/>
			<point x="337" y="846" type="curve" smooth="yes"/>
			<point x="471" y="846"/>
			<point x="627" y="786"/>
			<point x="627" y="626" type="curve" smooth="yes"/>
			<point x="627" y="488"/>
			<point x="509" y="408"/>
			<point x="371" y="314" type="curve" smooth="yes"/>
			<point x="23" y="70" type="line" smooth="yes"/>
			<point x="-5" y="50"/>
			<point x="-7" y="48"/>
			<point x="-7" y="30" type="curve" smooth="yes"/>
			<point x="-7" y="0"/>
			<point x="5" y="0"/>
		</contour>
	</outline>
</glyph>
<glyph name="three" format="2">
	<unicode hex="0033"/>
	<advance width="489"/>
	<outline>
		<contour>
			<point x="281.0514372593" y="-215" type="curve" smooth="yes"/>
			<point x="400.0514372593" y="-215"/>
			<point x="487.0514372593" y="-126"/>
			<point x="487.0514372593" y="-28" type="curve" smooth="yes"/>
			<point x="487.0514372593" y="43"/>
			<point x="435.0514372593" y="125"/>
			<point x="318.0514372593" y="147" type="curve"/>
			<point x="407.0514372593" y="172"/>
			<point x="460.0514372593" y="246"/>
			<point x="460.0514372593" y="318" type="curve" smooth="yes"/>
			<point x="460.0514372593" y="394"/>
			<point x="379.0514372593" y="452"/>
			<point x="282.0514372593" y="452" type="curve" smooth="yes"/>
			<point x="183.0514372593" y="452"/>
			<point x="107.0514372593" y="394"/>
			<point x="107.0514372593" y="321" type="curve" smooth="yes"/>
			<point x="107.0514372593" y="289"/>
			<point x="129.0514372593" y="275"/>
			<point x="151.0514372593" y="275" type="curve" smooth="yes"/>
			<point x="177.0514372593" y="275"/>
			<point x="195.0514372593" y="294"/>
			<point x="195.0514372593" y="319" type="curve" smooth="yes"/>
			<point x="195.0514372593" y="343"/>
			<point x="177.0514372593" y="366"/>
			<point x="140.0514372593" y="362" type="curve"/>
			<point x="179.0514372593" y="427"/>
			<point x="268.0514372593" y="428"/>
			<point x="279.0514372593" y="428" type="curve" smooth="yes"/>
			<point x="326.0514372593" y="428"/>
			<point x="380.0514372593" y="402"/>
			<point x="380.0514372593" y="319" type="curve" smooth="yes"/>
			<point x="380.0514372593" y="276"/>
			<point x="368.0514372593" y="232"/>
			<point x="342.0514372593" y="198" type="curve" smooth="yes"/>
			<point x="314.0514372593" y="161"/>
			<point x="283.0514372593" y="159"/>
			<point x="242.0514372593" y="156" type="curve" smooth="yes"/>
			<point x="216.0514372593" y="154"/>
			<point x="214.0514372593" y="154"/>
			<point x="210.0514372593" y="152" type="curve"/>
			<point x="207.0514372593" y="152"/>
			<point x="202.0514372593" y="149"/>
			<point x="202.0514372593" y="143" type="curve" smooth="yes"/>
			<point x="202.0514372593" y="133"/>
			<point x="207.0514372593" y="133"/>
			<point x="227.0514372593" y="133" type="curve" smooth="yes"/>
			<point x="271.0514372593" y="133" type="line" smooth="yes"/>
			<point x="366.0514372593" y="133"/>
			<point x="399.0514372593" y="56"/>
			<point x="399.0514372593" y="-28" type="curve" smooth="yes"/>
			<point x="399.0514372593" y="-151"/>
			<point x="331.0514372593" y="-188"/>
			<point x="279.0514372593" y="-188" type="curve" smooth="yes"/>
			<point x="238.0514372593" y="-188"/>
			<point x="151.0514372593" y="-172"/>
			<point x="117.0514372593" y="-101" type="curve"/>
			<point x="131.0514372593" y="-101"/>
			<point x="175.0514372593" y="-101"/>
			<point x="175.0514372593" y="-54" type="curve" smooth="yes"/>
			<point x="175.0514372593" y="-22"/>
			<point x="150.0514372593" y="-7"/>
			<point x="128.0514372593" y="-7" type="curve" smooth="yes"/>
			<point x="113.0514372593" y="-7"/>
			<point x="80.0514372593" y="-15"/>
			<point x="80.0514372593" y="-57" type="curve" smooth="yes"/>
			<point x="80.0514372593" y="-144"/>
			<point x="170.0514372593" y="-215"/>
		</contour>
	</outline>
</glyph>
<glyph name="four" format="2">
	<unicode hex="0034"/>
	<advance width="489"/>
	<outline>
		<contour>
			<point x="251.0514372593" y="-194" type="curve" smooth="yes"/>
			<point x="268.0514372593" y="-194"/>
			<point x="288.0514372593" y="-192"/>
			<point x="305.0514372593" y="-192" type="curve" smooth="yes"/>
			<point x="324.0514372593" y="-192"/>
			<point x="344.0514372593" y="-192"/>
			<point x="363.0514372593" y="-192" type="curve" smooth="yes"/>
			<point x="382.0514372593" y="-192"/>
			<point x="401.0514372593" y="-192"/>
			<point x="420.0514372593" y="-192" type="curve" smooth="yes"/>
			<point x="439.0514372593" y="-192"/>
			<point x="460.0514372593" y="-194"/>
			<point x="478.0514372593" y="-194" type="curve" smooth="yes"/>
			<point x="488.0514372593" y="-194"/>
			<point x="494.0514372593" y="-193"/>
			<point x="494.0514372593" y="-180" type="curve" smooth="yes"/>
			<point x="494.0514372593" y="-165"/>
			<point x="491.0514372593" y="-165"/>
			<point x="466.0514372593" y="-165" type="curve" smooth="yes"/>
			<point x="466.0514372593" y="-165"/>
			<point x="466.0514372593" y="-165"/>
			<point x="466.0514372593" y="-165" type="curve" smooth="yes"/>
			<point x="399.0514372593" y="-165"/>
			<point x="399.0514372593" y="-157"/>
			<point x="399.0514372593" y="-119" type="curve" smooth="yes"/>
			<point x="399.0514372593" y="0" type="line"/>
			<point x="475.0514372593" y="0" type="line" smooth="yes"/>
			<point x="497.0514372593" y="0"/>
			<point x="501.0514372593" y="0"/>
			<point x="501.0514372593" y="14" type="curve" smooth="yes"/>
			<point x="501.0514372593" y="29"/>
			<point x="498.0514372593" y="29"/>
			<point x="475.0514372593" y="29" type="curve" smooth="yes"/>
			<point x="399.0514372593" y="29" type="line"/>
			<point x="399.0514372593" y="436" type="line" smooth="yes"/>
			<point x="399.0514372593" y="459"/>
			<point x="399.0514372593" y="462"/>
			<point x="384.0514372593" y="462" type="curve" smooth="yes"/>
			<point x="374.0514372593" y="462"/>
			<point x="372.0514372593" y="461"/>
			<point x="364.0514372593" y="449" type="curve" smooth="yes"/>
			<point x="74.0514372593" y="41" type="line" smooth="yes"/>
			<point x="66.0514372593" y="30"/>
			<point x="66.0514372593" y="28"/>
			<point x="66.0514372593" y="18" type="curve" smooth="yes"/>
			<point x="66.0514372593" y="0"/>
			<point x="70.0514372593" y="0"/>
			<point x="93.0514372593" y="0" type="curve" smooth="yes"/>
			<point x="330.0514372593" y="0" type="line"/>
			<point x="330.0514372593" y="-119" type="line" smooth="yes"/>
			<point x="330.0514372593" y="-158"/>
			<point x="330.0514372593" y="-165"/>
			<point x="259.0514372593" y="-165" type="curve" smooth="yes"/>
			<point x="259.0514372593" y="-165"/>
			<point x="259.0514372593" y="-165"/>
			<point x="259.0514372593" y="-165" type="curve" smooth="yes"/>
			<point x="239.0514372593" y="-165"/>
			<point x="235.0514372593" y="-165"/>
			<point x="235.0514372593" y="-180" type="curve" smooth="yes"/>
			<point x="235.0514372593" y="-193"/>
			<point x="240.0514372593" y="-194"/>
		</contour>
		<contour>
			<point x="335.0514372593" y="29" type="line"/>
			<point x="92.0514372593" y="29" type="line"/>
			<point x="335.0514372593" y="372" type="line"/>
		</contour>
	</outline>
</glyph>
<glyph name="five" format="2">
  <advance width="489"/>
  <unicode hex="0035"/>
  <outline>
    <contour>
      <point x="268.0514372592618" y="-215.0" type="curve" smooth="yes"/>
      <point x="380.0514372592618" y="-215.0"/>
      <point x="479.0514372592618" y="-121.0"/>
      <point x="479.0514372592618" y="1.0" type="curve" smooth="yes"/>
      <point x="479.0514372592618" y="120.0"/>
      <point x="396.0514372592618" y="213.0"/>
      <point x="296.0514372592618" y="213.0" type="curve" smooth="yes"/>
      <point x="253.05143725926177" y="213.0"/>
      <point x="206.05143725926177" y="200.0"/>
      <point x="167.05143725926177" y="161.0" type="curve"/>
      <point x="167.05143725926177" y="365.0" type="line"/>
      <point x="206.05143725926177" y="352.0"/>
      <point x="236.05143725926177" y="350.0"/>
      <point x="257.0514372592618" y="350.0" type="curve" smooth="yes"/>
      <point x="336.9756972592618" y="350.0"/>
      <point x="395.2727609828618" y="389.322175048"/>
      <point x="422.9829037260618" y="416.9650152909" type="curve" smooth="yes"/>
      <point x="434.7971340922618" y="428.7505512092"/>
      <point x="441.0514372592618" y="438.41308"/>
      <point x="441.0514372592618" y="442.0" type="curve" smooth="yes"/>
      <point x="441.0514372592618" y="446.0"/>
      <point x="439.0514372592618" y="451.0"/>
      <point x="433.0514372592618" y="451.0" type="curve" smooth="yes"/>
      <point x="432.0514372592618" y="451.0"/>
      <point x="430.0514372592618" y="451.0"/>
      <point x="420.0514372592618" y="447.0" type="curve" smooth="yes"/>
      <point x="375.0514372592618" y="428.0"/>
      <point x="331.0514372592618" y="421.0"/>
      <point x="290.0514372592618" y="421.0" type="curve" smooth="yes"/>
      <point x="265.0514372592618" y="421.0"/>
      <point x="215.05143725926177" y="424.0"/>
      <point x="160.05143725926177" y="447.0" type="curve" smooth="yes"/>
      <point x="151.05143725926177" y="451.0"/>
      <point x="149.05143725926177" y="451.0"/>
      <point x="148.05143725926177" y="451.0" type="curve" smooth="yes"/>
      <point x="141.05143725926177" y="451.0"/>
      <point x="140.05143725926177" y="450.0"/>
      <point x="140.05143725926177" y="427.0" type="curve" smooth="yes"/>
      <point x="140.05143725926177" y="143.0" type="line" smooth="yes"/>
      <point x="140.05143725926177" y="122.0"/>
      <point x="140.05143725926177" y="117.0"/>
      <point x="152.05143725926177" y="117.0" type="curve" smooth="yes"/>
      <point x="157.05143725926177" y="117.0"/>
      <point x="158.05143725926177" y="118.0"/>
      <point x="168.05143725926177" y="130.0" type="curve"/>
      <point x="208.05143725926177" y="187.0"/>
      <point x="267.0514372592618" y="193.0"/>
      <point x="293.0514372592618" y="193.0" type="curve" smooth="yes"/>
      <point x="350.0514372592618" y="193.0"/>
      <point x="376.0514372592618" y="144.0"/>
      <point x="384.0514372592618" y="125.0" type="curve" smooth="yes"/>
      <point x="398.0514372592618" y="93.0"/>
      <point x="402.0514372592618" y="57.0"/>
      <point x="402.0514372592618" y="6.0" type="curve" smooth="yes"/>
      <point x="402.0514372592618" y="-52.0"/>
      <point x="396.0514372592618" y="-97.0"/>
      <point x="368.0514372592618" y="-136.0" type="curve" smooth="yes"/>
      <point x="351.0514372592618" y="-160.0"/>
      <point x="315.0514372592618" y="-188.0"/>
      <point x="266.0514372592618" y="-188.0" type="curve" smooth="yes"/>
      <point x="195.05143725926177" y="-188.0"/>
      <point x="133.05143725926177" y="-140.0"/>
      <point x="115.05143725926179" y="-74.0" type="curve"/>
      <point x="145.05143725926177" y="-85.0"/>
      <point x="174.05143725926177" y="-63.0"/>
      <point x="174.05143725926177" y="-34.0" type="curve" smooth="yes"/>
      <point x="174.05143725926177" y="-14.0"/>
      <point x="159.05143725926177" y="9.0"/>
      <point x="131.05143725926177" y="9.0" type="curve" smooth="yes"/>
      <point x="115.05143725926179" y="9.0"/>
      <point x="88.05143725926179" y="0.0"/>
      <point x="88.05143725926179" y="-37.0" type="curve" smooth="yes"/>
      <point x="88.05143725926179" y="-124.0"/>
      <point x="160.05143725926177" y="-215.0"/>
    </contour>
  </outline>
</glyph>
<glyph name="six" format="2">
	<unicode hex="0036"/>
	<advance width="978"/>
	<outline>
		<contour>
			<point x="212.1028745185" y="644" type="curve"/>
			<point x="212.1028745185" y="778"/>
			<point x="216.1028745185" y="934"/>
			<point x="280.1028745185" y="1072" type="curve" smooth="yes"/>
			<point x="322.1028745185" y="1160"/>
			<point x="420.1028745185" y="1282"/>
			<point x="570.1028745185" y="1282" type="curve" smooth="yes"/>
			<point x="614.1028745185" y="1282"/>
			<point x="712.1028745185" y="1274"/>
			<point x="754.1028745185" y="1200" type="curve"/>
			<point x="732.1028745185" y="1200"/>
			<point x="656.1028745185" y="1200"/>
			<point x="656.1028745185" y="1120" type="curve" smooth="yes"/>
			<point x="656.1028745185" y="1076"/>
			<point x="688.1028745185" y="1040"/>
			<point x="736.1028745185" y="1040" type="curve" smooth="yes"/>
			<point x="778.1028745185" y="1040"/>
			<point x="818.1028745185" y="1064"/>
			<point x="818.1028745185" y="1126" type="curve" smooth="yes"/>
			<point x="818.1028745185" y="1224"/>
			<point x="748.1028745185" y="1330"/>
			<point x="568.1028745185" y="1330" type="curve" smooth="yes"/>
			<point x="318.1028745185" y="1330"/>
			<point x="54.1028745185" y="1074"/>
			<point x="54.1028745185" y="632" type="curve" smooth="yes"/>
			<point x="54.1028745185" y="76"/>
			<point x="300.1028745185" y="-42"/>
			<point x="462.1028745185" y="-42" type="curve" smooth="yes"/>
			<point x="566.1028745185" y="-42"/>
			<point x="654.1028745185" y="-8"/>
			<point x="730.1028745185" y="74" type="curve" smooth="yes"/>
			<point x="818.1028745185" y="168"/>
			<point x="864.1028745185" y="254"/>
			<point x="864.1028745185" y="408" type="curve" smooth="yes"/>
			<point x="864.1028745185" y="534"/>
			<point x="836.1028745185" y="622"/>
			<point x="754.1028745185" y="718" type="curve" smooth="yes"/>
			<point x="688.1028745185" y="794"/>
			<point x="608.1028745185" y="852"/>
			<point x="480.1028745185" y="852" type="curve" smooth="yes"/>
			<point x="320.1028745185" y="852"/>
			<point x="244.1028745185" y="730"/>
		</contour>
		<contour>
			<point x="462.1028745185" y="12" type="curve" smooth="yes"/>
			<point x="352.1028745185" y="12"/>
			<point x="282.1028745185" y="98"/>
			<point x="252.1028745185" y="182" type="curve" smooth="yes"/>
			<point x="234.1028745185" y="232"/>
			<point x="216.1028745185" y="340"/>
			<point x="216.1028745185" y="456" type="curve" smooth="yes"/>
			<point x="216.1028745185" y="614"/>
			<point x="290.1028745185" y="812"/>
			<point x="472.1028745185" y="812" type="curve" smooth="yes"/>
			<point x="572.1028745185" y="812"/>
			<point x="634.1028745185" y="750"/>
			<point x="670.1028745185" y="678" type="curve" smooth="yes"/>
			<point x="706.1028745185" y="598"/>
			<point x="706.1028745185" y="508"/>
			<point x="706.1028745185" y="410" type="curve" smooth="yes"/>
			<point x="706.1028745185" y="310"/>
			<point x="706.1028745185" y="216"/>
			<point x="664.1028745185" y="140" type="curve" smooth="yes"/>
			<point x="608.1028745185" y="36"/>
			<point x="534.1028745185" y="12"/>
		</contour>
	</outline>
</glyph>
<glyph name="seven" format="2">
	<unicode hex="0037"/>
	<advance width="978"/>
	<outline>
		<contour>
			<point x="404.1028745185" y="-430" type="curve" smooth="yes"/>
			<point x="486.1028745185" y="-430"/>
			<point x="486.1028745185" y="-354"/>
			<point x="486.1028745185" y="-322" type="curve" smooth="yes"/>
			<point x="486.1028745185" y="-240" type="line" smooth="yes"/>
			<point x="486.1028745185" y="-62"/>
			<point x="502.1028745185" y="68"/>
			<point x="526.1028745185" y="168" type="curve" smooth="yes"/>
			<point x="560.1028745185" y="304"/>
			<point x="606.1028745185" y="378"/>
			<point x="644.1028745185" y="432" type="curve" smooth="yes"/>
			<point x="736.1028745185" y="560"/>
			<point x="828.1028745185" y="688"/>
			<point x="920.1028745185" y="816" type="curve"/>
			<point x="920.1028745185" y="816"/>
			<point x="920.1028745185" y="816"/>
			<point x="920.1028745185" y="816" type="curve" smooth="yes"/>
			<point x="920.1028745185" y="860"/>
			<point x="918.1028745185" y="862"/>
			<point x="868.1028745185" y="862" type="curve" smooth="yes"/>
			<point x="424.1028745185" y="862" type="line" smooth="yes"/>
			<point x="402.1028745185" y="862"/>
			<point x="234.1028745185" y="862"/>
			<point x="198.1028745185" y="886" type="curve"/>
			<point x="188.1028745185" y="892"/>
			<point x="186.1028745185" y="894"/>
			<point x="186.1028745185" y="904" type="curve"/>
			<point x="184.1028745185" y="920"/>
			<point x="172.1028745185" y="926"/>
			<point x="164.1028745185" y="926" type="curve" smooth="yes"/>
			<point x="146.1028745185" y="926"/>
			<point x="144.1028745185" y="920"/>
			<point x="138.1028745185" y="884" type="curve" smooth="yes"/>
			<point x="118.1028745185" y="772"/>
			<point x="98.1028745185" y="662"/>
			<point x="78.1028745185" y="550" type="curve"/>
			<point x="78.1028745185" y="538"/>
			<point x="88.1028745185" y="530"/>
			<point x="100.1028745185" y="530" type="curve" smooth="yes"/>
			<point x="118.1028745185" y="530"/>
			<point x="120.1028745185" y="538"/>
			<point x="128.1028745185" y="578" type="curve" smooth="yes"/>
			<point x="134.1028745185" y="610"/>
			<point x="152.1028745185" y="714"/>
			<point x="176.1028745185" y="716" type="curve"/>
			<point x="212.1028745185" y="722"/>
			<point x="314.1028745185" y="724"/>
			<point x="356.1028745185" y="724" type="curve" smooth="yes"/>
			<point x="790.1028745185" y="724" type="line"/>
			<point x="712.1028745185" y="612"/>
			<point x="602.1028745185" y="464"/>
			<point x="552.1028745185" y="386" type="curve" smooth="yes"/>
			<point x="462.1028745185" y="248"/>
			<point x="408.1028745185" y="114"/>
			<point x="378.1028745185" y="12" type="curve" smooth="yes"/>
			<point x="334.1028745185" y="-134"/>
			<point x="324.1028745185" y="-266"/>
			<point x="324.1028745185" y="-330" type="curve" smooth="yes"/>
			<point x="324.1028745185" y="-350"/>
			<point x="324.1028745185" y="-430"/>
		</contour>
	</outline>
</glyph>
<glyph name="eight" format="2">
	<unicode hex="0038"/>
	<advance width="489"/>
	<outline>
		<contour>
			<point x="197.5" y="-21" type="curve" smooth="yes"/>
			<point x="309.5" y="-21"/>
			<point x="401.5" y="61"/>
			<point x="401.5" y="164" type="curve" smooth="yes"/>
			<point x="401.5" y="259"/>
			<point x="332.5" y="305"/>
			<point x="302.5" y="325" type="curve" smooth="yes"/>
			<point x="284.5" y="337"/>
			<point x="267.5" y="348"/>
			<point x="249.5" y="360" type="curve"/>
			<point x="292.5" y="384"/>
			<point x="374.5" y="431"/>
			<point x="374.5" y="518" type="curve" smooth="yes"/>
			<point x="374.5" y="604"/>
			<point x="291.5" y="665"/>
			<point x="198.5" y="665" type="curve" smooth="yes"/>
			<point x="101.5" y="665"/>
			<point x="21.5" y="593"/>
			<point x="21.5" y="502" type="curve" smooth="yes"/>
			<point x="21.5" y="469"/>
			<point x="31.5" y="411"/>
			<point x="100.5" y="366" type="curve" smooth="yes"/>
			<point x="110.5" y="360"/>
			<point x="134.5" y="344"/>
			<point x="143.5" y="338" type="curve"/>
			<point x="79.5" y="306"/>
			<point x="-5.5" y="249"/>
			<point x="-5.5" y="151" type="curve" smooth="yes"/>
			<point x="-5.5" y="48"/>
			<point x="93.5" y="-21"/>
		</contour>
		<contour>
			<point x="198.5" y="6" type="curve" smooth="yes"/>
			<point x="113.5" y="6"/>
			<point x="39.5" y="66"/>
			<point x="39.5" y="151" type="curve" smooth="yes"/>
			<point x="39.5" y="206"/>
			<point x="66.5" y="274"/>
			<point x="164.5" y="324" type="curve"/>
			<point x="214.5" y="291"/>
			<point x="281.5" y="247"/>
			<point x="291.5" y="241" type="curve"/>
			<point x="307.5" y="230"/>
			<point x="356.5" y="197"/>
			<point x="356.5" y="135" type="curve" smooth="yes"/>
			<point x="356.5" y="58"/>
			<point x="280.5" y="6"/>
		</contour>
		<contour>
			<point x="228.5" y="373" type="curve"/>
			<point x="205.5" y="389"/>
			<point x="147.5" y="427"/>
			<point x="123.5" y="442" type="curve" smooth="yes"/>
			<point x="98.5" y="459"/>
			<point x="61.5" y="484"/>
			<point x="61.5" y="534" type="curve" smooth="yes"/>
			<point x="61.5" y="601"/>
			<point x="130.5" y="641"/>
			<point x="197.5" y="641" type="curve" smooth="yes"/>
			<point x="270.5" y="641"/>
			<point x="334.5" y="590"/>
			<point x="334.5" y="517" type="curve" smooth="yes"/>
			<point x="334.5" y="455"/>
			<point x="288.5" y="405"/>
		</contour>
	</outline>
</glyph>
<glyph name="nine" format="2">
	<unicode hex="0039"/>
	<advance width="489"/>
	<outline>
		<contour>
			<point x="407.0514372593" y="120" type="curve"/>
			<point x="407.0514372593" y="37"/>
			<point x="404.0514372593" y="-29"/>
			<point x="373.0514372593" y="-95" type="curve" smooth="yes"/>
			<point x="363.0514372593" y="-116"/>
			<point x="322.0514372593" y="-188"/>
			<point x="239.0514372593" y="-188" type="curve" smooth="yes"/>
			<point x="227.0514372593" y="-188"/>
			<point x="165.0514372593" y="-188"/>
			<point x="138.0514372593" y="-152" type="curve"/>
			<point x="179.0514372593" y="-152"/>
			<point x="185.0514372593" y="-129"/>
			<point x="185.0514372593" y="-112" type="curve" smooth="yes"/>
			<point x="185.0514372593" y="-90"/>
			<point x="169.0514372593" y="-72"/>
			<point x="145.0514372593" y="-72" type="curve" smooth="yes"/>
			<point x="124.0514372593" y="-72"/>
			<point x="104.0514372593" y="-84"/>
			<point x="104.0514372593" y="-115" type="curve" smooth="yes"/>
			<point x="104.0514372593" y="-168"/>
			<point x="146.0514372593" y="-215"/>
			<point x="241.0514372593" y="-215" type="curve" smooth="yes"/>
			<point x="365.0514372593" y="-215"/>
			<point x="486.0514372593" y="-84"/>
			<point x="486.0514372593" y="125" type="curve" smooth="yes"/>
			<point x="486.0514372593" y="386"/>
			<point x="374.0514372593" y="452"/>
			<point x="287.0514372593" y="452" type="curve" smooth="yes"/>
			<point x="205.0514372593" y="452"/>
			<point x="166.0514372593" y="412"/>
			<point x="141.0514372593" y="386" type="curve" smooth="yes"/>
			<point x="85.0514372593" y="329"/>
			<point x="81.0514372593" y="270"/>
			<point x="81.0514372593" y="233" type="curve" smooth="yes"/>
			<point x="81.0514372593" y="207"/>
			<point x="81.0514372593" y="141"/>
			<point x="138.0514372593" y="80" type="curve" smooth="yes"/>
			<point x="164.0514372593" y="53"/>
			<point x="201.0514372593" y="17"/>
			<point x="273.0514372593" y="17" type="curve" smooth="yes"/>
			<point x="350.0514372593" y="17"/>
			<point x="389.0514372593" y="74"/>
		</contour>
		<contour>
			<point x="277.0514372593" y="37" type="curve" smooth="yes"/>
			<point x="241.0514372593" y="37"/>
			<point x="206.0514372593" y="51"/>
			<point x="180.0514372593" y="100" type="curve" smooth="yes"/>
			<point x="160.0514372593" y="138"/>
			<point x="160.0514372593" y="184"/>
			<point x="160.0514372593" y="232" type="curve" smooth="yes"/>
			<point x="160.0514372593" y="285"/>
			<point x="160.0514372593" y="328"/>
			<point x="183.0514372593" y="367" type="curve" smooth="yes"/>
			<point x="209.0514372593" y="410"/>
			<point x="243.0514372593" y="428"/>
			<point x="287.0514372593" y="428" type="curve" smooth="yes"/>
			<point x="344.0514372593" y="428"/>
			<point x="376.0514372593" y="381"/>
			<point x="389.0514372593" y="345" type="curve" smooth="yes"/>
			<point x="399.0514372593" y="314"/>
			<point x="405.0514372593" y="262"/>
			<point x="405.0514372593" y="212" type="curve" smooth="yes"/>
			<point x="405.0514372593" y="132"/>
			<point x="366.0514372593" y="37"/>
		</contour>
	</outline>
</glyph>
<glyph name="less" format="2">
	<unicode hex="003C"/>
	<advance width="1522"/>
	<outline>
		<contour>
			<point x="1288.1028745185" y="974" type="line" smooth="yes"/>
			<point x="1324.1028745185" y="990"/>
			<point x="1328.1028745185" y="1004"/>
			<point x="1328.1028745185" y="1016" type="curve" smooth="yes"/>
			<point x="1328.1028745185" y="1038"/>
			<point x="1312.1028745185" y="1054"/>
			<point x="1290.1028745185" y="1054" type="curve" smooth="yes"/>
			<point x="1286.1028745185" y="1054"/>
			<point x="1284.1028745185" y="1052"/>
			<point x="1256.1028745185" y="1040" type="curve" smooth="yes"/>
			<point x="174.1028745185" y="542" type="line" smooth="yes"/>
			<point x="138.1028745185" y="526"/>
			<point x="134.1028745185" y="512"/>
			<point x="134.1028745185" y="500" type="curve" smooth="yes"/>
			<point x="134.1028745185" y="486"/>
			<point x="136.1028745185" y="474"/>
			<point x="174.1028745185" y="456" type="curve" smooth="yes"/>
			<point x="1256.1028745185" y="-42" type="line" smooth="yes"/>
			<point x="1282.1028745185" y="-54"/>
			<point x="1286.1028745185" y="-56"/>
			<point x="1290.1028745185" y="-56" type="curve" smooth="yes"/>
			<point x="1312.1028745185" y="-56"/>
			<point x="1328.1028745185" y="-40"/>
			<point x="1328.1028745185" y="-18" type="curve" smooth="yes"/>
			<point x="1328.1028745185" y="-6"/>
			<point x="1324.1028745185" y="8"/>
			<point x="1288.1028745185" y="24" type="curve" smooth="yes"/>
			<point x="258.1028745185" y="498" type="line"/>
		</contour>
	</outline>
</glyph>
<glyph name="greater" format="2">
	<unicode hex="003E"/>
	<advance width="1522"/>
	<outline>
		<contour>
			<point x="1288.1028745185" y="456" type="line" smooth="yes"/>
			<point x="1326.1028745185" y="474"/>
			<point x="1328.1028745185" y="486"/>
			<point x="1328.1028745185" y="500" type="curve" smooth="yes"/>
			<point x="1328.1028745185" y="512"/>
			<point x="1324.1028745185" y="526"/>
			<point x="1288.1028745185" y="542" type="curve" smooth="yes"/>
			<point x="206.1028745185" y="1040" type="line" smooth="yes"/>
			<point x="180.1028745185" y="1052"/>
			<point x="176.1028745185" y="1054"/>
			<point x="172.1028745185" y="1054" type="curve" smooth="yes"/>
			<point x="148.1028745185" y="1054"/>
			<point x="134.1028745185" y="1034"/>
			<point x="134.1028745185" y="1018" type="curve" smooth="yes"/>
			<point x="134.1028745185" y="994"/>
			<point x="150.1028745185" y="986"/>
			<point x="176.1028745185" y="974" type="curve" smooth="yes"/>
			<point x="1204.1028745185" y="500" type="line"/>
			<point x="174.1028745185" y="24" type="line" smooth="yes"/>
			<point x="134.1028745185" y="6"/>
			<point x="134.1028745185" y="-8"/>
			<point x="134.1028745185" y="-20" type="curve" smooth="yes"/>
			<point x="134.1028745185" y="-36"/>
			<point x="148.1028745185" y="-56"/>
			<point x="172.1028745185" y="-56" type="curve" smooth="yes"/>
			<point x="176.1028745185" y="-56"/>
			<point x="178.1028745185" y="-54"/>
			<point x="206.1028745185" y="-42" type="curve" smooth="yes"/>
		</contour>
	</outline>
</glyph>
<glyph name="A" format="2">
  <advance width="734"/>
  <unicode hex="0041"/>
  <outline>
    <contour>
      <point x="567.0514372592618" y="236.0" type="line"/>
      <point x="568.0504372592618" y="225.344"/>
      <point x="569.0494372592618" y="214.688"/>
      <point x="570.0514372592618" y="204.0" type="curve" smooth="yes"/>
      <point x="572.0514372592618" y="178.0"/>
      <point x="584.0514372592618" y="76.0"/>
      <point x="584.0514372592618" y="61.0" type="curve" smooth="yes"/>
      <point x="584.0514372592618" y="31.0"/>
      <point x="533.0514372592618" y="29.0"/>
      <point x="517.0514372592618" y="29.0" type="curve" smooth="yes"/>
      <point x="506.0514372592618" y="29.0"/>
      <point x="495.0514372592618" y="29.0"/>
      <point x="495.0514372592618" y="11.0" type="curve" smooth="yes"/>
      <point x="495.0514372592618" y="0.0"/>
      <point x="504.0514372592618" y="0.0"/>
      <point x="510.0514372592618" y="0.0" type="curve" smooth="yes"/>
      <point x="527.0514372592618" y="0.0"/>
      <point x="547.0514372592618" y="2.0"/>
      <point x="621.0514372592618" y="2.0" type="curve" smooth="yes"/>
      <point x="682.0514372592618" y="2.0"/>
      <point x="726.0514372592618" y="0.0"/>
      <point x="727.0514372592618" y="0.0" type="curve" smooth="yes"/>
      <point x="734.0514372592618" y="0.0"/>
      <point x="745.0514372592618" y="0.0"/>
      <point x="745.0514372592618" y="19.0" type="curve" smooth="yes"/>
      <point x="745.0514372592618" y="29.0"/>
      <point x="736.0514372592618" y="29.0"/>
      <point x="721.0514372592618" y="29.0" type="curve" smooth="yes"/>
      <point x="666.0514372592618" y="29.0"/>
      <point x="665.0514372592618" y="38.0"/>
      <point x="662.0514372592618" y="68.0" type="curve" smooth="yes"/>
      <point x="601.0514372592618" y="692.0" type="line" smooth="yes"/>
      <point x="599.0514372592618" y="712.0"/>
      <point x="595.0514372592618" y="714.0"/>
      <point x="584.0514372592618" y="714.0" type="curve" smooth="yes"/>
      <point x="574.0514372592618" y="714.0"/>
      <point x="568.0514372592618" y="712.0"/>
      <point x="559.0514372592618" y="697.0" type="curve" smooth="yes"/>
      <point x="209.05143725926177" y="111.0" type="line" smooth="yes"/>
      <point x="174.05143725926177" y="52.0"/>
      <point x="140.05143725926177" y="32.0"/>
      <point x="92.05143725926179" y="29.0" type="curve" smooth="yes"/>
      <point x="81.05143725926179" y="28.0"/>
      <point x="73.05143725926179" y="28.0"/>
      <point x="73.05143725926179" y="10.0" type="curve" smooth="yes"/>
      <point x="73.05143725926179" y="4.0"/>
      <point x="78.05143725926179" y="0.0"/>
      <point x="85.05143725926179" y="0.0" type="curve" smooth="yes"/>
      <point x="103.05143725926179" y="0.0"/>
      <point x="148.05143725926177" y="2.0"/>
      <point x="166.05143725926177" y="2.0" type="curve" smooth="yes"/>
      <point x="195.05143725926177" y="2.0"/>
      <point x="227.05143725926177" y="0.0"/>
      <point x="255.05143725926177" y="0.0" type="curve" smooth="yes"/>
      <point x="261.0514372592618" y="0.0"/>
      <point x="273.0514372592618" y="0.0"/>
      <point x="273.0514372592618" y="19.0" type="curve" smooth="yes"/>
      <point x="273.0514372592618" y="28.0"/>
      <point x="265.0514372592618" y="29.0"/>
      <point x="259.0514372592618" y="29.0" type="curve" smooth="yes"/>
      <point x="236.05143725926177" y="29.0"/>
      <point x="217.05143725926177" y="39.0"/>
      <point x="217.05143725926177" y="63.0" type="curve" smooth="yes"/>
      <point x="217.05143725926177" y="77.0"/>
      <point x="223.05143725926177" y="88.0"/>
      <point x="236.05143725926177" y="110.0" type="curve" smooth="yes"/>
      <point x="312.0514372592618" y="236.0" type="line"/>
      <point x="312.0514372592618" y="236.0"/>
      <point x="312.0514372592618" y="236.0"/>
      <point x="312.0514372592618" y="236.0" type="curve"/>
    </contour>
    <contour>
      <point x="329.0514372592618" y="265.0" type="line"/>
      <point x="530.0514372592618" y="601.0" type="line"/>
      <point x="564.0514372592618" y="265.0" type="line"/>
    </contour>
  </outline>
</glyph>
<glyph name="B" format="2">
	<unicode hex="0042"/>
	<advance width="743"/>
	<outline>
		<contour>
			<point x="727.0514372593" y="217" type="curve" smooth="yes"/>
			<point x="727.0514372593" y="299"/>
			<point x="655.0514372593" y="349"/>
			<point x="574.0514372593" y="357" type="curve"/>
			<point x="683.0514372593" y="377"/>
			<point x="782.0514372593" y="453"/>
			<point x="782.0514372593" y="545" type="curve" smooth="yes"/>
			<point x="782.0514372593" y="623"/>
			<point x="713.0514372593" y="683"/>
			<point x="600.0514372593" y="683" type="curve" smooth="yes"/>
			<point x="279.0514372593" y="683" type="line" smooth="yes"/>
			<point x="260.0514372593" y="683"/>
			<point x="251.0514372593" y="683"/>
			<point x="251.0514372593" y="664" type="curve" smooth="yes"/>
			<point x="251.0514372593" y="654"/>
			<point x="260.0514372593" y="654"/>
			<point x="275.0514372593" y="654" type="curve" smooth="yes"/>
			<point x="279.0514372593" y="654"/>
			<point x="289.0514372593" y="654"/>
			<point x="297.0514372593" y="654" type="curve" smooth="yes"/>
			<point x="337.0514372593" y="654"/>
			<point x="336.0514372593" y="644"/>
			<point x="336.0514372593" y="635" type="curve" smooth="yes"/>
			<point x="336.0514372593" y="633"/>
			<point x="335.0514372593" y="625"/>
			<point x="332.0514372593" y="612" type="curve" smooth="yes"/>
			<point x="197.0514372593" y="74" type="line" smooth="yes"/>
			<point x="188.0514372593" y="39"/>
			<point x="186.0514372593" y="29"/>
			<point x="116.0514372593" y="29" type="curve" smooth="yes"/>
			<point x="97.0514372593" y="29"/>
			<point x="87.0514372593" y="29"/>
			<point x="87.0514372593" y="11" type="curve" smooth="yes"/>
			<point x="87.0514372593" y="0"/>
			<point x="93.0514372593" y="0"/>
			<point x="113.0514372593" y="0" type="curve" smooth="yes"/>
			<point x="456.0514372593" y="0" type="line" smooth="yes"/>
			<point x="609.0514372593" y="0"/>
			<point x="727.0514372593" y="116"/>
		</contour>
		<contour>
			<point x="700.0514372593" y="549" type="curve" smooth="yes"/>
			<point x="700.0514372593" y="468"/>
			<point x="619.0514372593" y="365"/>
			<point x="487.0514372593" y="365" type="curve" smooth="yes"/>
			<point x="343.0514372593" y="365" type="line"/>
			<point x="405.0514372593" y="615" type="line" smooth="yes"/>
			<point x="414.0514372593" y="652"/>
			<point x="418.0514372593" y="654"/>
			<point x="457.0514372593" y="654" type="curve" smooth="yes"/>
			<point x="587.0514372593" y="654" type="line" smooth="yes"/>
			<point x="700.0514372593" y="654"/>
			<point x="700.0514372593" y="558"/>
		</contour>
		<contour>
			<point x="643.0514372593" y="227" type="curve" smooth="yes"/>
			<point x="643.0514372593" y="131"/>
			<point x="556.0514372593" y="29"/>
			<point x="432.0514372593" y="29" type="curve" smooth="yes"/>
			<point x="286.0514372593" y="29" type="line" smooth="yes"/>
			<point x="256.0514372593" y="29"/>
			<point x="261.0514372593" y="38"/>
			<point x="267.0514372593" y="63" type="curve" smooth="yes"/>
			<point x="337.0514372593" y="345" type="line"/>
			<point x="525.0514372593" y="345" type="line" smooth="yes"/>
			<point x="643.0514372593" y="345"/>
			<point x="643.0514372593" y="235"/>
		</contour>
	</outline>
</glyph>
<glyph name="C" format="2">
  <advance width="700"/>
  <unicode hex="0043"/>
  <outline>
    <contour>
      <point x="89.05143725926179" y="250.0" type="curve" smooth="yes"/>
      <point x="89.05143725926179" y="83.0"/>
      <point x="206.05143725926177" y="-21.0"/>
      <point x="352.0514372592618" y="-21.0" type="curve" smooth="yes"/>
      <point x="432.0514372592618" y="-21.0"/>
      <point x="502.0514372592618" y="13.0"/>
      <point x="560.0514372592618" y="62.0" type="curve" smooth="yes"/>
      <point x="647.0514372592618" y="135.0"/>
      <point x="673.0514372592618" y="232.0"/>
      <point x="673.0514372592618" y="240.0" type="curve" smooth="yes"/>
      <point x="673.0514372592618" y="249.0"/>
      <point x="665.0514372592618" y="249.0"/>
      <point x="662.0514372592618" y="249.0" type="curve" smooth="yes"/>
      <point x="653.0514372592618" y="249.0"/>
      <point x="652.0514372592618" y="243.0"/>
      <point x="650.0514372592618" y="239.0" type="curve"/>
      <point x="629.7525572592618" y="170.16032"/>
      <point x="592.1228818416618" y="117.0936111104"/>
      <point x="547.8176800157618" y="79.2842957985" type="curve" smooth="yes"/>
      <point x="491.7213186032618" y="31.41260288"/>
      <point x="424.9234372592618" y="8.0"/>
      <point x="369.0514372592618" y="8.0" type="curve" smooth="yes"/>
      <point x="263.0514372592618" y="8.0"/>
      <point x="171.05143725926177" y="76.0"/>
      <point x="171.05143725926177" y="218.0" type="curve" smooth="yes"/>
      <point x="171.05143725926177" y="250.0"/>
      <point x="181.05143725926177" y="424.0"/>
      <point x="294.0514372592618" y="555.0" type="curve" smooth="yes"/>
      <point x="349.0514372592618" y="619.0"/>
      <point x="443.0514372592618" y="675.0"/>
      <point x="538.0514372592618" y="675.0" type="curve" smooth="yes"/>
      <point x="648.0514372592618" y="675.0"/>
      <point x="697.0514372592618" y="584.0"/>
      <point x="697.0514372592618" y="482.0" type="curve" smooth="yes"/>
      <point x="697.0514372592618" y="456.0"/>
      <point x="694.0514372592618" y="434.0"/>
      <point x="694.0514372592618" y="430.0" type="curve" smooth="yes"/>
      <point x="694.0514372592618" y="421.0"/>
      <point x="704.0514372592618" y="421.0"/>
      <point x="707.0514372592618" y="421.0" type="curve" smooth="yes"/>
      <point x="718.0514372592618" y="421.0"/>
      <point x="719.0514372592618" y="422.0"/>
      <point x="723.0514372592618" y="440.0" type="curve" smooth="yes"/>
      <point x="786.0514372592618" y="695.0" type="line"/>
      <point x="786.0514372592618" y="695.0"/>
      <point x="786.0514372592618" y="695.0"/>
      <point x="786.0514372592618" y="695.0" type="curve"/>
      <point x="786.0514372592618" y="704.0"/>
      <point x="779.0514372592618" y="704.0"/>
      <point x="777.0514372592618" y="704.0" type="curve" smooth="yes"/>
      <point x="775.0514372592618" y="704.0"/>
      <point x="771.0514372592618" y="704.0"/>
      <point x="763.0514372592618" y="694.0" type="curve" smooth="yes"/>
      <point x="694.0514372592618" y="610.0" type="line"/>
      <point x="694.0514372592618" y="610.0"/>
      <point x="694.0514372592618" y="610.0"/>
      <point x="694.0514372592618" y="610.0" type="curve"/>
      <point x="694.0514372592618" y="610.0"/>
      <point x="694.0514372592618" y="610.0"/>
      <point x="694.0514372592618" y="610.0" type="curve"/>
      <point x="659.0514372592618" y="670.0"/>
      <point x="604.0514372592618" y="704.0"/>
      <point x="529.0514372592618" y="704.0" type="curve" smooth="yes"/>
      <point x="313.0514372592618" y="704.0"/>
      <point x="89.05143725926179" y="485.0"/>
    </contour>
  </outline>
</glyph>
<glyph name="D" format="2">
  <advance width="813"/>
  <unicode hex="0044"/>
  <outline>
    <contour>
      <point x="828.0514372592618" y="432.0" type="curve" smooth="yes"/>
      <point x="828.0514372592618" y="576.0"/>
      <point x="742.0514372592618" y="683.0"/>
      <point x="599.0514372592618" y="683.0" type="curve" smooth="yes"/>
      <point x="278.0514372592618" y="683.0" type="line" smooth="yes"/>
      <point x="259.0514372592618" y="683.0"/>
      <point x="250.05143725926177" y="683.0"/>
      <point x="250.05143725926177" y="664.0" type="curve" smooth="yes"/>
      <point x="250.05143725926177" y="654.0"/>
      <point x="259.0514372592618" y="654.0"/>
      <point x="274.0514372592618" y="654.0" type="curve" smooth="yes"/>
      <point x="292.0513172592618" y="654.0"/>
      <point x="304.7397926688618" y="653.3034223488"/>
      <point x="313.6841527545618" y="652.0387333797" type="curve" smooth="yes"/>
      <point x="335.0514372592618" y="649.0175033808"/>
      <point x="335.0514372592618" y="642.75412"/>
      <point x="335.0514372592618" y="635.0" type="curve" smooth="yes"/>
      <point x="335.0514372592618" y="633.0"/>
      <point x="335.0514372592618" y="627.0"/>
      <point x="331.0514372592618" y="612.0" type="curve" smooth="yes"/>
      <point x="196.05143725926177" y="74.0" type="line" smooth="yes"/>
      <point x="187.05143725926177" y="39.0"/>
      <point x="185.05143725926177" y="29.0"/>
      <point x="115.05143725926179" y="29.0" type="curve" smooth="yes"/>
      <point x="96.05143725926179" y="29.0"/>
      <point x="86.05143725926179" y="29.0"/>
      <point x="86.05143725926179" y="11.0" type="curve" smooth="yes"/>
      <point x="86.05143725926179" y="0.0"/>
      <point x="92.05143725926179" y="0.0"/>
      <point x="112.05143725926179" y="0.0" type="curve" smooth="yes"/>
      <point x="429.0514372592618" y="0.0" type="line" smooth="yes"/>
      <point x="631.0514372592618" y="0.0"/>
      <point x="828.0514372592618" y="209.0"/>
    </contour>
    <contour>
      <point x="407.0514372592618" y="615.0" type="line" smooth="yes"/>
      <point x="416.0514372592618" y="652.0"/>
      <point x="420.0514372592618" y="654.0"/>
      <point x="459.0514372592618" y="654.0" type="curve" smooth="yes"/>
      <point x="569.0514372592618" y="654.0" type="line" smooth="yes"/>
      <point x="663.0514372592618" y="654.0"/>
      <point x="749.0514372592618" y="603.0"/>
      <point x="749.0514372592618" y="465.0" type="curve" smooth="yes"/>
      <point x="749.0514372592618" y="415.0"/>
      <point x="729.0514372592618" y="241.0"/>
      <point x="632.0514372592618" y="131.0" type="curve" smooth="yes"/>
      <point x="604.0514372592618" y="98.0"/>
      <point x="528.0514372592618" y="29.0"/>
      <point x="413.0514372592618" y="29.0" type="curve" smooth="yes"/>
      <point x="289.0514372592618" y="29.0" type="line" smooth="yes"/>
      <point x="257.0514372592618" y="29.0"/>
      <point x="263.0514372592618" y="38.0"/>
      <point x="269.0514372592618" y="63.0" type="curve" smooth="yes"/>
    </contour>
  </outline>
</glyph>
<glyph name="E" format="2">
	<unicode hex="0045"/>
	<advance width="1448"/>
	<outline>
		<contour>
			<point x="282.1028745185" y="148" type="line" smooth="yes"/>
			<point x="264.1028745185" y="78"/>
			<point x="260.1028745185" y="58"/>
			<point x="120.1028745185" y="58" type="curve" smooth="yes"/>
			<point x="82.1028745185" y="58"/>
			<point x="62.1028745185" y="58"/>
			<point x="62.1028745185" y="22" type="curve" smooth="yes"/>
			<point x="62.1028745185" y="0"/>
			<point x="74.1028745185" y="0"/>
			<point x="114.1028745185" y="0" type="curve" smooth="yes"/>
			<point x="1118.1028745185" y="0" type="line" smooth="yes"/>
			<point x="1162.1028745185" y="0"/>
			<point x="1164.1028745185" y="2"/>
			<point x="1178.1028745185" y="34" type="curve" smooth="yes"/>
			<point x="1360.1028745185" y="464" type="line" smooth="yes"/>
			<point x="1364.1028745185" y="474"/>
			<point x="1368.1028745185" y="486"/>
			<point x="1368.1028745185" y="494" type="curve" smooth="yes"/>
			<point x="1368.1028745185" y="506"/>
			<point x="1358.1028745185" y="512"/>
			<point x="1348.1028745185" y="512" type="curve" smooth="yes"/>
			<point x="1336.1028745185" y="512"/>
			<point x="1330.1028745185" y="510"/>
			<point x="1308.1028745185" y="458" type="curve" smooth="yes"/>
			<point x="1190.1028745185" y="178"/>
			<point x="1104.1028745185" y="58"/>
			<point x="784.1028745185" y="58" type="curve" smooth="yes"/>
			<point x="462.1028745185" y="58" type="line" smooth="yes"/>
			<point x="414.1028745185" y="58"/>
			<point x="421.1028745185" y="76"/>
			<point x="432.1028745185" y="126" type="curve" smooth="yes"/>
			<point x="570.1028745185" y="678" type="line"/>
			<point x="768.1028745185" y="678" type="line" smooth="yes"/>
			<point x="924.1028745185" y="678"/>
			<point x="936.1028745185" y="644"/>
			<point x="936.1028745185" y="584" type="curve" smooth="yes"/>
			<point x="936.1028745185" y="520"/>
			<point x="918.1028745185" y="480"/>
			<point x="916.1028745185" y="464" type="curve" smooth="yes"/>
			<point x="914.1028745185" y="450"/>
			<point x="926.1028745185" y="444"/>
			<point x="938.1028745185" y="444" type="curve" smooth="yes"/>
			<point x="956.1028745185" y="444"/>
			<point x="958.1028745185" y="458"/>
			<point x="966.1028745185" y="486" type="curve" smooth="yes"/>
			<point x="1080.1028745185" y="950" type="line"/>
			<point x="1080.1028745185" y="960"/>
			<point x="1072.1028745185" y="970"/>
			<point x="1060.1028745185" y="970" type="curve" smooth="yes"/>
			<point x="1042.1028745185" y="970"/>
			<point x="1040.1028745185" y="962"/>
			<point x="1032.1028745185" y="934" type="curve" smooth="yes"/>
			<point x="992.1028745185" y="780"/>
			<point x="952.1028745185" y="736"/>
			<point x="774.1028745185" y="736" type="curve" smooth="yes"/>
			<point x="584.1028745185" y="736" type="line"/>
			<point x="625.1028745185" y="900"/>
			<point x="667.1028745185" y="1064"/>
			<point x="708.1028745185" y="1228" type="curve" smooth="yes"/>
			<point x="726.1028745185" y="1298"/>
			<point x="730.1028745185" y="1304"/>
			<point x="812.1028745185" y="1304" type="curve" smooth="yes"/>
			<point x="1098.1028745185" y="1304" type="line" smooth="yes"/>
			<point x="1344.1028745185" y="1304"/>
			<point x="1394.1028745185" y="1238"/>
			<point x="1394.1028745185" y="1086" type="curve" smooth="yes"/>
			<point x="1394.1028745185" y="1054"/>
			<point x="1390.1028745185" y="992"/>
			<point x="1382.1028745185" y="938" type="curve" smooth="yes"/>
			<point x="1380.1028745185" y="922"/>
			<point x="1392.1028745185" y="916"/>
			<point x="1404.1028745185" y="916" type="curve" smooth="yes"/>
			<point x="1418.1028745185" y="916"/>
			<point x="1426.1028745185" y="924"/>
			<point x="1430.1028745185" y="960" type="curve" smooth="yes"/>
			<point x="1470.1028745185" y="1292"/>
			<point x="1476.1028745185" y="1336"/>
			<point x="1476.1028745185" y="1340" type="curve" smooth="yes"/>
			<point x="1476.1028745185" y="1362"/>
			<point x="1458.1028745185" y="1362"/>
			<point x="1422.1028745185" y="1362" type="curve" smooth="yes"/>
			<point x="446.1028745185" y="1362" type="line" smooth="yes"/>
			<point x="408.1028745185" y="1362"/>
			<point x="388.1028745185" y="1362"/>
			<point x="388.1028745185" y="1326" type="curve" smooth="yes"/>
			<point x="388.1028745185" y="1304"/>
			<point x="402.1028745185" y="1304"/>
			<point x="436.1028745185" y="1304" type="curve" smooth="yes"/>
			<point x="560.1028745185" y="1304"/>
			<point x="560.1028745185" y="1290"/>
			<point x="560.1028745185" y="1268" type="curve" smooth="yes"/>
			<point x="560.1028745185" y="1258"/>
			<point x="558.1028745185" y="1250"/>
			<point x="552.1028745185" y="1228" type="curve" smooth="yes"/>
		</contour>
	</outline>
</glyph>
<glyph name="F" format="2">
	<unicode hex="0046"/>
	<advance width="633"/>
	<outline>
		<contour>
			<point x="336.0514372593" y="326" type="line"/>
			<point x="432.0514372593" y="326" type="line" smooth="yes"/>
			<point x="508.0514372593" y="326"/>
			<point x="514.0514372593" y="309"/>
			<point x="514.0514372593" y="280" type="curve" smooth="yes"/>
			<point x="514.0514372593" y="249"/>
			<point x="504.0514372593" y="225"/>
			<point x="504.0514372593" y="220" type="curve" smooth="yes"/>
			<point x="504.0514372593" y="213"/>
			<point x="508.0514372593" y="209"/>
			<point x="515.0514372593" y="209" type="curve" smooth="yes"/>
			<point x="523.0514372593" y="209"/>
			<point x="524.0514372593" y="213"/>
			<point x="528.0514372593" y="229" type="curve" smooth="yes"/>
			<point x="586.0514372593" y="462" type="line"/>
			<point x="586.0514372593" y="466"/>
			<point x="583.0514372593" y="472"/>
			<point x="576.0514372593" y="472" type="curve" smooth="yes"/>
			<point x="567.0514372593" y="472"/>
			<point x="566.0514372593" y="468"/>
			<point x="562.0514372593" y="451" type="curve" smooth="yes"/>
			<point x="541.0514372593" y="376"/>
			<point x="521.0514372593" y="355"/>
			<point x="434.0514372593" y="355" type="curve" smooth="yes"/>
			<point x="343.0514372593" y="355" type="line"/>
			<point x="364.6964372593" y="441.247"/>
			<point x="386.3414372593" y="527.494"/>
			<point x="408.0514372593" y="614" type="curve" smooth="yes"/>
			<point x="417.0514372593" y="649"/>
			<point x="419.0514372593" y="652"/>
			<point x="460.0514372593" y="652" type="curve" smooth="yes"/>
			<point x="594.0514372593" y="652" type="line" smooth="yes"/>
			<point x="719.0514372593" y="652"/>
			<point x="737.0514372593" y="615"/>
			<point x="737.0514372593" y="544" type="curve" smooth="yes"/>
			<point x="737.0514372593" y="498"/>
			<point x="731.0514372593" y="476"/>
			<point x="731.0514372593" y="469" type="curve" smooth="yes"/>
			<point x="731.0514372593" y="461"/>
			<point x="736.0514372593" y="458"/>
			<point x="742.0514372593" y="458" type="curve" smooth="yes"/>
			<point x="749.0514372593" y="458"/>
			<point x="753.0514372593" y="462"/>
			<point x="755.0514372593" y="480" type="curve" smooth="yes"/>
			<point x="777.0514372593" y="665" type="line" smooth="yes"/>
			<point x="779.0514372593" y="678"/>
			<point x="775.0514372593" y="681"/>
			<point x="756.0514372593" y="681" type="curve" smooth="yes"/>
			<point x="277.0514372593" y="681" type="line" smooth="yes"/>
			<point x="258.0514372593" y="681"/>
			<point x="248.0514372593" y="681"/>
			<point x="248.0514372593" y="663" type="curve" smooth="yes"/>
			<point x="248.0514372593" y="652"/>
			<point x="255.0514372593" y="652"/>
			<point x="272.0514372593" y="652" type="curve" smooth="yes"/>
			<point x="287.0517172593" y="652"/>
			<point x="298.4228295161" y="651.5902552548"/>
			<point x="307.0428148735" y="650.8132516117" type="curve" smooth="yes"/>
			<point x="334.0514372593" y="648.3787001456"/>
			<point x="334.0514372593" y="642.33866"/>
			<point x="334.0514372593" y="634" type="curve" smooth="yes"/>
			<point x="334.0514372593" y="629"/>
			<point x="333.0514372593" y="625"/>
			<point x="330.0514372593" y="614" type="curve" smooth="yes"/>
			<point x="195.0514372593" y="74" type="line" smooth="yes"/>
			<point x="186.0514372593" y="39"/>
			<point x="184.0514372593" y="29"/>
			<point x="114.0514372593" y="29" type="curve" smooth="yes"/>
			<point x="95.0514372593" y="29"/>
			<point x="85.0514372593" y="29"/>
			<point x="85.0514372593" y="11" type="curve" smooth="yes"/>
			<point x="85.0514372593" y="0"/>
			<point x="94.0514372593" y="0"/>
			<point x="100.0514372593" y="0" type="curve" smooth="yes"/>
			<point x="119.0514372593" y="0"/>
			<point x="139.0514372593" y="2"/>
			<point x="158.0514372593" y="2" type="curve" smooth="yes"/>
			<point x="201.3414372593" y="2"/>
			<point x="244.6314372593" y="2"/>
			<point x="288.0514372593" y="2" type="curve" smooth="yes"/>
			<point x="310.0514372593" y="2"/>
			<point x="334.0514372593" y="0"/>
			<point x="356.0514372593" y="0" type="curve" smooth="yes"/>
			<point x="365.0514372593" y="0"/>
			<point x="377.0514372593" y="0"/>
			<point x="377.0514372593" y="18" type="curve" smooth="yes"/>
			<point x="377.0514372593" y="29"/>
			<point x="371.0514372593" y="29"/>
			<point x="349.0514372593" y="29" type="curve" smooth="yes"/>
			<point x="327.5950372593" y="29"/>
			<point x="311.8186623793" y="29.51636592"/>
			<point x="300.2196877921" y="30.5691327577" type="curve" smooth="yes"/>
			<point x="269.1125703793" y="33.39253248"/>
			<point x="268.0514372593" y="40.074"/>
			<point x="268.0514372593" y="51" type="curve" smooth="yes"/>
			<point x="268.0514372593" y="56"/>
			<point x="270.0514372593" y="64"/>
			<point x="272.0514372593" y="71" type="curve" smooth="yes"/>
		</contour>
	</outline>
</glyph>
<glyph name="G" format="2">
	<unicode hex="0047"/>
	<advance width="1544"/>
	<outline>
		<contour>
			<point x="70.1028745185" y="500" type="curve" smooth="yes"/>
			<point x="70.1028745185" y="170"/>
			<point x="298.1028745185" y="-42"/>
			<point x="598.1028745185" y="-42" type="curve" smooth="yes"/>
			<point x="742.1028745185" y="-42"/>
			<point x="924.1028745185" y="6"/>
			<point x="1024.1028745185" y="132" type="curve"/>
			<point x="1046.1028745185" y="56"/>
			<point x="1080.1028745185" y="20"/>
			<point x="1092.1028745185" y="8" type="curve" smooth="yes"/>
			<point x="1100.1028745185" y="0"/>
			<point x="1116.1028745185" y="-2"/>
			<point x="1120.1028745185" y="14" type="curve" smooth="yes"/>
			<point x="1134.1028745185" y="70"/>
			<point x="1197.1028745185" y="320"/>
			<point x="1216.1028745185" y="400" type="curve" smooth="yes"/>
			<point x="1236.1028745185" y="476"/>
			<point x="1240.1028745185" y="482"/>
			<point x="1350.1028745185" y="484" type="curve" smooth="yes"/>
			<point x="1358.1028745185" y="484"/>
			<point x="1382.1028745185" y="484"/>
			<point x="1382.1028745185" y="522" type="curve" smooth="yes"/>
			<point x="1382.1028745185" y="542"/>
			<point x="1362.1028745185" y="542"/>
			<point x="1356.1028745185" y="542" type="curve" smooth="yes"/>
			<point x="1322.1028745185" y="542"/>
			<point x="1284.1028745185" y="538"/>
			<point x="1248.1028745185" y="538" type="curve" smooth="yes"/>
			<point x="1198.1028745185" y="538"/>
			<point x="1144.1028745185" y="538"/>
			<point x="1098.1028745185" y="538" type="curve" smooth="yes"/>
			<point x="1060.1028745185" y="538"/>
			<point x="928.1028745185" y="542"/>
			<point x="886.1028745185" y="542" type="curve" smooth="yes"/>
			<point x="868.1028745185" y="542"/>
			<point x="844.1028745185" y="542"/>
			<point x="844.1028745185" y="506" type="curve" smooth="yes"/>
			<point x="844.1028745185" y="486"/>
			<point x="856.1028745185" y="484"/>
			<point x="888.1028745185" y="484" type="curve" smooth="yes"/>
			<point x="946.1028745185" y="484"/>
			<point x="974.1028745185" y="482"/>
			<point x="1010.1028745185" y="480" type="curve" smooth="yes"/>
			<point x="1066.1028745185" y="476"/>
			<point x="1068.1028745185" y="458"/>
			<point x="1068.1028745185" y="438" type="curve" smooth="yes"/>
			<point x="1068.1028745185" y="436"/>
			<point x="1030.1028745185" y="234"/>
			<point x="992.1028745185" y="174" type="curve" smooth="yes"/>
			<point x="956.1028745185" y="122"/>
			<point x="902.1028745185" y="84"/>
			<point x="842.1028745185" y="58" type="curve" smooth="yes"/>
			<point x="776.1028745185" y="28"/>
			<point x="702.1028745185" y="16"/>
			<point x="640.1028745185" y="16" type="curve" smooth="yes"/>
			<point x="486.1028745185" y="16"/>
			<point x="236.1028745185" y="96"/>
			<point x="236.1028745185" y="442" type="curve" smooth="yes"/>
			<point x="236.1028745185" y="576"/>
			<point x="284.1028745185" y="882"/>
			<point x="478.1028745185" y="1108" type="curve" smooth="yes"/>
			<point x="604.1028745185" y="1252"/>
			<point x="790.1028745185" y="1350"/>
			<point x="966.1028745185" y="1350" type="curve" smooth="yes"/>
			<point x="1202.1028745185" y="1350"/>
			<point x="1286.1028745185" y="1148"/>
			<point x="1286.1028745185" y="964" type="curve" smooth="yes"/>
			<point x="1286.1028745185" y="932"/>
			<point x="1278.1028745185" y="888"/>
			<point x="1278.1028745185" y="860" type="curve" smooth="yes"/>
			<point x="1278.1028745185" y="842"/>
			<point x="1298.1028745185" y="842"/>
			<point x="1304.1028745185" y="842" type="curve" smooth="yes"/>
			<point x="1326.1028745185" y="842"/>
			<point x="1328.1028745185" y="844"/>
			<point x="1336.1028745185" y="880" type="curve" smooth="yes"/>
			<point x="1462.1028745185" y="1390" type="line"/>
			<point x="1462.1028745185" y="1408"/>
			<point x="1448.1028745185" y="1408"/>
			<point x="1444.1028745185" y="1408" type="curve" smooth="yes"/>
			<point x="1440.1028745185" y="1408"/>
			<point x="1432.1028745185" y="1408"/>
			<point x="1416.1028745185" y="1388" type="curve" smooth="yes"/>
			<point x="1278.1028745185" y="1222" type="line"/>
			<point x="1278.1028745185" y="1222"/>
			<point x="1278.1028745185" y="1222"/>
			<point x="1278.1028745185" y="1222" type="curve"/>
			<point x="1256.1028745185" y="1258"/>
			<point x="1166.1028745185" y="1408"/>
			<point x="948.1028745185" y="1408" type="curve" smooth="yes"/>
			<point x="520.1028745185" y="1408"/>
			<point x="70.1028745185" y="972"/>
		</contour>
	</outline>
</glyph>
<glyph name="H" format="2">
	<unicode hex="0048"/>
	<advance width="1622"/>
	<outline>
		<contour>
			<point x="507" y="682" type="line"/>
			<point x="1113" y="682" type="line"/>
			<point x="1079" y="550"/>
			<point x="977" y="132"/>
			<point x="973" y="120" type="curve" smooth="yes"/>
			<point x="951" y="60"/>
			<point x="919" y="60"/>
			<point x="801" y="58" type="curve" smooth="yes"/>
			<point x="777" y="58"/>
			<point x="759" y="58"/>
			<point x="759" y="20" type="curve" smooth="yes"/>
			<point x="759" y="0"/>
			<point x="781" y="0"/>
			<point x="787" y="0" type="curve" smooth="yes"/>
			<point x="823" y="0"/>
			<point x="865" y="4"/>
			<point x="903" y="4" type="curve" smooth="yes"/>
			<point x="982" y="4"/>
			<point x="1060" y="4"/>
			<point x="1139" y="4" type="curve" smooth="yes"/>
			<point x="1177" y="4"/>
			<point x="1219" y="0"/>
			<point x="1257" y="0" type="curve" smooth="yes"/>
			<point x="1273" y="0"/>
			<point x="1295" y="0"/>
			<point x="1295" y="38" type="curve" smooth="yes"/>
			<point x="1295" y="58"/>
			<point x="1277" y="58"/>
			<point x="1247" y="58" type="curve" smooth="yes"/>
			<point x="1217" y="58"/>
			<point x="1194" y="59"/>
			<point x="1177" y="61" type="curve" smooth="yes"/>
			<point x="1125" y="66"/>
			<point x="1125" y="79"/>
			<point x="1125" y="94" type="curve" smooth="yes"/>
			<point x="1125" y="96"/>
			<point x="1125" y="110"/>
			<point x="1129" y="126" type="curve" smooth="yes"/>
			<point x="1403" y="1220" type="line" smooth="yes"/>
			<point x="1421" y="1288"/>
			<point x="1425" y="1308"/>
			<point x="1567" y="1308" type="curve" smooth="yes"/>
			<point x="1603" y="1308"/>
			<point x="1623" y="1308"/>
			<point x="1623" y="1344" type="curve" smooth="yes"/>
			<point x="1623" y="1366"/>
			<point x="1605" y="1366"/>
			<point x="1593" y="1366" type="curve" smooth="yes"/>
			<point x="1557" y="1366"/>
			<point x="1515" y="1362"/>
			<point x="1477" y="1362" type="curve" smooth="yes"/>
			<point x="1398" y="1362"/>
			<point x="1320" y="1362"/>
			<point x="1241" y="1362" type="curve" smooth="yes"/>
			<point x="1203" y="1362"/>
			<point x="1161" y="1366"/>
			<point x="1123" y="1366" type="curve" smooth="yes"/>
			<point x="1109" y="1366"/>
			<point x="1085" y="1366"/>
			<point x="1085" y="1328" type="curve" smooth="yes"/>
			<point x="1085" y="1308"/>
			<point x="1099" y="1308"/>
			<point x="1137" y="1308" type="curve" smooth="yes"/>
			<point x="1169" y="1308"/>
			<point x="1192" y="1307"/>
			<point x="1210" y="1305" type="curve" smooth="yes"/>
			<point x="1257" y="1299"/>
			<point x="1257" y="1286"/>
			<point x="1257" y="1270" type="curve" smooth="yes"/>
			<point x="1257" y="1266"/>
			<point x="1257" y="1254"/>
			<point x="1249" y="1224" type="curve" smooth="yes"/>
			<point x="1127" y="740" type="line"/>
			<point x="523" y="740" type="line"/>
			<point x="643" y="1220" type="line" smooth="yes"/>
			<point x="661" y="1288"/>
			<point x="665" y="1308"/>
			<point x="807" y="1308" type="curve" smooth="yes"/>
			<point x="843" y="1308"/>
			<point x="863" y="1308"/>
			<point x="863" y="1344" type="curve" smooth="yes"/>
			<point x="863" y="1366"/>
			<point x="845" y="1366"/>
			<point x="833" y="1366" type="curve" smooth="yes"/>
			<point x="797" y="1366"/>
			<point x="755" y="1362"/>
			<point x="717" y="1362" type="curve" smooth="yes"/>
			<point x="638" y="1362"/>
			<point x="560" y="1362"/>
			<point x="481" y="1362" type="curve" smooth="yes"/>
			<point x="443" y="1362"/>
			<point x="401" y="1366"/>
			<point x="363" y="1366" type="curve" smooth="yes"/>
			<point x="349" y="1366"/>
			<point x="325" y="1366"/>
			<point x="325" y="1328" type="curve" smooth="yes"/>
			<point x="325" y="1308"/>
			<point x="339" y="1308"/>
			<point x="377" y="1308" type="curve" smooth="yes"/>
			<point x="411" y="1308"/>
			<point x="435" y="1307"/>
			<point x="453" y="1304" type="curve" smooth="yes"/>
			<point x="497" y="1298"/>
			<point x="497" y="1286"/>
			<point x="497" y="1270" type="curve" smooth="yes"/>
			<point x="497" y="1266"/>
			<point x="497" y="1254"/>
			<point x="489" y="1224" type="curve" smooth="yes"/>
			<point x="219" y="148" type="line" smooth="yes"/>
			<point x="201" y="78"/>
			<point x="197" y="58"/>
			<point x="59" y="58" type="curve" smooth="yes"/>
			<point x="13" y="58"/>
			<point x="-1" y="58"/>
			<point x="-1" y="20" type="curve" smooth="yes"/>
			<point x="-1" y="0"/>
			<point x="21" y="0"/>
			<point x="27" y="0" type="curve" smooth="yes"/>
			<point x="63" y="0"/>
			<point x="105" y="4"/>
			<point x="143" y="4" type="curve" smooth="yes"/>
			<point x="222" y="4"/>
			<point x="300" y="4"/>
			<point x="379" y="4" type="curve" smooth="yes"/>
			<point x="417" y="4"/>
			<point x="459" y="0"/>
			<point x="497" y="0" type="curve" smooth="yes"/>
			<point x="513" y="0"/>
			<point x="535" y="0"/>
			<point x="535" y="38" type="curve" smooth="yes"/>
			<point x="535" y="58"/>
			<point x="517" y="58"/>
			<point x="487" y="58" type="curve" smooth="yes"/>
			<point x="461" y="58"/>
			<point x="441" y="59"/>
			<point x="424" y="60" type="curve" smooth="yes"/>
			<point x="365" y="65"/>
			<point x="365" y="78"/>
			<point x="365" y="94" type="curve" smooth="yes"/>
			<point x="365" y="96"/>
			<point x="365" y="110"/>
			<point x="369" y="126" type="curve" smooth="yes"/>
		</contour>
	</outline>
</glyph>
<glyph name="I" format="2">
	<unicode hex="0049"/>
	<advance width="862"/>
	<outline>
		<contour>
			<point x="282.1028745185" y="148" type="line" smooth="yes"/>
			<point x="264.1028745185" y="78"/>
			<point x="260.1028745185" y="58"/>
			<point x="114.1028745185" y="58" type="curve" smooth="yes"/>
			<point x="70.1028745185" y="58"/>
			<point x="52.1028745185" y="58"/>
			<point x="52.1028745185" y="20" type="curve" smooth="yes"/>
			<point x="52.1028745185" y="0"/>
			<point x="72.1028745185" y="0"/>
			<point x="82.1028745185" y="0" type="curve" smooth="yes"/>
			<point x="118.1028745185" y="0"/>
			<point x="162.1028745185" y="4"/>
			<point x="198.1028745185" y="4" type="curve" smooth="yes"/>
			<point x="280.1028745185" y="4"/>
			<point x="362.1028745185" y="4"/>
			<point x="444.1028745185" y="4" type="curve" smooth="yes"/>
			<point x="484.1028745185" y="4"/>
			<point x="528.1028745185" y="0"/>
			<point x="568.1028745185" y="0" type="curve" smooth="yes"/>
			<point x="584.1028745185" y="0"/>
			<point x="608.1028745185" y="0"/>
			<point x="608.1028745185" y="36" type="curve" smooth="yes"/>
			<point x="608.1028745185" y="58"/>
			<point x="596.1028745185" y="58"/>
			<point x="552.1028745185" y="58" type="curve" smooth="yes"/>
			<point x="526.1028745185" y="58"/>
			<point x="505.1028745185" y="59"/>
			<point x="489.1028745185" y="60" type="curve" smooth="yes"/>
			<point x="428.1028745185" y="65"/>
			<point x="428.1028745185" y="79"/>
			<point x="428.1028745185" y="98" type="curve" smooth="yes"/>
			<point x="428.1028745185" y="102"/>
			<point x="428.1028745185" y="112"/>
			<point x="436.1028745185" y="144" type="curve" smooth="yes"/>
			<point x="706.1028745185" y="1218" type="line" smooth="yes"/>
			<point x="724.1028745185" y="1288"/>
			<point x="728.1028745185" y="1308"/>
			<point x="874.1028745185" y="1308" type="curve" smooth="yes"/>
			<point x="918.1028745185" y="1308"/>
			<point x="934.1028745185" y="1308"/>
			<point x="934.1028745185" y="1346" type="curve" smooth="yes"/>
			<point x="934.1028745185" y="1366"/>
			<point x="912.1028745185" y="1366"/>
			<point x="906.1028745185" y="1366" type="curve" smooth="yes"/>
			<point x="870.1028745185" y="1366"/>
			<point x="826.1028745185" y="1362"/>
			<point x="790.1028745185" y="1362" type="curve" smooth="yes"/>
			<point x="708.1028745185" y="1362"/>
			<point x="626.1028745185" y="1362"/>
			<point x="544.1028745185" y="1362" type="curve" smooth="yes"/>
			<point x="504.1028745185" y="1362"/>
			<point x="458.1028745185" y="1366"/>
			<point x="418.1028745185" y="1366" type="curve" smooth="yes"/>
			<point x="402.1028745185" y="1366"/>
			<point x="380.1028745185" y="1366"/>
			<point x="380.1028745185" y="1328" type="curve" smooth="yes"/>
			<point x="380.1028745185" y="1308"/>
			<point x="396.1028745185" y="1308"/>
			<point x="436.1028745185" y="1308" type="curve" smooth="yes"/>
			<point x="462.1028745185" y="1308"/>
			<point x="476.1028745185" y="1308"/>
			<point x="506.1028745185" y="1305" type="curve" smooth="yes"/>
			<point x="560.1028745185" y="1300"/>
			<point x="560.1028745185" y="1287"/>
			<point x="560.1028745185" y="1270" type="curve" smooth="yes"/>
			<point x="560.1028745185" y="1256"/>
			<point x="556.1028745185" y="1244"/>
			<point x="552.1028745185" y="1226" type="curve" smooth="yes"/>
		</contour>
	</outline>
</glyph>
<glyph name="J" format="2">
	<unicode hex="004A"/>
	<advance width="541"/>
	<outline>
		<contour>
			<point x="242.0514372593" y="-21" type="curve" smooth="yes"/>
			<point x="333.0514372593" y="-21"/>
			<point x="431.0514372593" y="48"/>
			<point x="455.0514372593" y="143" type="curve" smooth="yes"/>
			<point x="573.0514372593" y="614" type="line" smooth="yes"/>
			<point x="581.0514372593" y="644"/>
			<point x="583.0514372593" y="654"/>
			<point x="632.0514372593" y="654" type="curve" smooth="yes"/>
			<point x="648.0514372593" y="654"/>
			<point x="658.0514372593" y="654"/>
			<point x="658.0514372593" y="672" type="curve" smooth="yes"/>
			<point x="658.0514372593" y="683"/>
			<point x="649.0514372593" y="683"/>
			<point x="645.0514372593" y="683" type="curve" smooth="yes"/>
			<point x="628.0514372593" y="683"/>
			<point x="609.0514372593" y="681"/>
			<point x="591.0514372593" y="681" type="curve" smooth="yes"/>
			<point x="572.7364372593" y="681"/>
			<point x="554.4214372593" y="681"/>
			<point x="536.0514372593" y="681" type="curve" smooth="yes"/>
			<point x="494.0514372593" y="681"/>
			<point x="450.0514372593" y="683"/>
			<point x="408.0514372593" y="683" type="curve" smooth="yes"/>
			<point x="399.0514372593" y="683"/>
			<point x="387.0514372593" y="683"/>
			<point x="387.0514372593" y="665" type="curve" smooth="yes"/>
			<point x="387.0514372593" y="655"/>
			<point x="395.0514372593" y="655"/>
			<point x="395.0514372593" y="654" type="curve"/>
			<point x="403.3764372593" y="654"/>
			<point x="411.7014372593" y="654"/>
			<point x="420.0514372593" y="654" type="curve" smooth="yes"/>
			<point x="500.0514372593" y="654"/>
			<point x="500.0514372593" y="646"/>
			<point x="500.0514372593" y="631" type="curve" smooth="yes"/>
			<point x="500.0514372593" y="630"/>
			<point x="500.0514372593" y="623"/>
			<point x="496.0514372593" y="607" type="curve" smooth="yes"/>
			<point x="457.7564372593" y="454.819"/>
			<point x="419.4614372593" y="302.638"/>
			<point x="381.0514372593" y="150" type="curve" smooth="yes"/>
			<point x="355.0514372593" y="48"/>
			<point x="288.0514372593" y="-1"/>
			<point x="240.0514372593" y="-1" type="curve" smooth="yes"/>
			<point x="206.0514372593" y="-1"/>
			<point x="158.0514372593" y="15"/>
			<point x="146.0514372593" y="68" type="curve"/>
			<point x="185.0514372593" y="58"/>
			<point x="218.0514372593" y="91.48485"/>
			<point x="218.0514372593" y="124" type="curve" smooth="yes"/>
			<point x="218.0514372593" y="140"/>
			<point x="208.0514372593" y="161"/>
			<point x="178.0514372593" y="161" type="curve" smooth="yes"/>
			<point x="160.0514372593" y="161"/>
			<point x="118.0514372593" y="151"/>
			<point x="118.0514372593" y="86" type="curve" smooth="yes"/>
			<point x="118.0514372593" y="23"/>
			<point x="170.0514372593" y="-21"/>
		</contour>
	</outline>
</glyph>
<glyph name="K" format="2">
  <advance width="833"/>
  <unicode hex="004B"/>
  <outline>
    <contour>
      <point x="324.0514372592618" y="280.0" type="line"/>
      <point x="407.0514372592618" y="610.0" type="line" smooth="yes"/>
      <point x="416.0514372592618" y="644.0"/>
      <point x="418.0514372592618" y="654.0"/>
      <point x="489.0514372592618" y="654.0" type="curve" smooth="yes"/>
      <point x="508.0514372592618" y="654.0"/>
      <point x="517.0514372592618" y="654.0"/>
      <point x="517.0514372592618" y="673.0" type="curve" smooth="yes"/>
      <point x="517.0514372592618" y="683.0"/>
      <point x="507.0514372592618" y="683.0"/>
      <point x="502.0514372592618" y="683.0" type="curve" smooth="yes"/>
      <point x="484.0514372592618" y="683.0"/>
      <point x="463.0514372592618" y="681.0"/>
      <point x="444.0514372592618" y="681.0" type="curve" smooth="yes"/>
      <point x="404.7574372592618" y="681.0"/>
      <point x="365.4634372592618" y="681.0"/>
      <point x="326.0514372592618" y="681.0" type="curve" smooth="yes"/>
      <point x="308.0514372592618" y="681.0"/>
      <point x="286.0514372592618" y="683.0"/>
      <point x="268.0514372592618" y="683.0" type="curve" smooth="yes"/>
      <point x="260.0514372592618" y="683.0"/>
      <point x="249.05143725926177" y="683.0"/>
      <point x="249.05143725926177" y="664.0" type="curve" smooth="yes"/>
      <point x="249.05143725926177" y="654.0"/>
      <point x="258.0514372592618" y="654.0"/>
      <point x="273.0514372592618" y="654.0" type="curve" smooth="yes"/>
      <point x="287.0514372592618" y="654.0"/>
      <point x="302.0514372592618" y="657.0"/>
      <point x="310.0514372592618" y="656.0" type="curve" smooth="yes"/>
      <point x="338.0514372592618" y="653.0"/>
      <point x="334.0514372592618" y="643.0"/>
      <point x="334.0514372592618" y="635.0" type="curve" smooth="yes"/>
      <point x="334.0514372592618" y="633.0"/>
      <point x="334.0514372592618" y="627.0"/>
      <point x="330.0514372592618" y="612.0" type="curve" smooth="yes"/>
      <point x="195.05143725926177" y="74.0" type="line" smooth="yes"/>
      <point x="186.05143725926177" y="39.0"/>
      <point x="184.05143725926177" y="29.0"/>
      <point x="114.05143725926179" y="29.0" type="curve" smooth="yes"/>
      <point x="95.05143725926179" y="29.0"/>
      <point x="85.05143725926179" y="29.0"/>
      <point x="85.05143725926179" y="11.0" type="curve" smooth="yes"/>
      <point x="85.05143725926179" y="0.0"/>
      <point x="94.05143725926179" y="0.0"/>
      <point x="100.05143725926179" y="0.0" type="curve" smooth="yes"/>
      <point x="119.05143725926179" y="0.0"/>
      <point x="139.05143725926177" y="2.0"/>
      <point x="158.05143725926177" y="2.0" type="curve" smooth="yes"/>
      <point x="197.0124372592618" y="2.0"/>
      <point x="235.9734372592618" y="2.0"/>
      <point x="275.0514372592618" y="2.0" type="curve" smooth="yes"/>
      <point x="294.0514372592618" y="2.0"/>
      <point x="315.0514372592618" y="0.0"/>
      <point x="334.0514372592618" y="0.0" type="curve" smooth="yes"/>
      <point x="342.0514372592618" y="0.0"/>
      <point x="353.0514372592618" y="0.0"/>
      <point x="353.0514372592618" y="19.0" type="curve" smooth="yes"/>
      <point x="353.0514372592618" y="29.0"/>
      <point x="344.0514372592618" y="29.0"/>
      <point x="329.0514372592618" y="29.0" type="curve" smooth="yes"/>
      <point x="315.0514372592618" y="29.0"/>
      <point x="308.0514372592618" y="32.0"/>
      <point x="300.0514372592618" y="33.0" type="curve" smooth="yes"/>
      <point x="272.0514372592618" y="36.0"/>
      <point x="268.0514372592618" y="39.0"/>
      <point x="268.0514372592618" y="47.0" type="curve" smooth="yes"/>
      <point x="268.0514372592618" y="54.0"/>
      <point x="274.0514372592618" y="79.0"/>
      <point x="278.0514372592618" y="95.0" type="curve" smooth="yes"/>
      <point x="291.0384372592618" y="146.615"/>
      <point x="304.0254372592618" y="198.23"/>
      <point x="317.0514372592618" y="250.0" type="curve"/>
      <point x="317.0514372592618" y="250.0"/>
      <point x="317.0514372592618" y="250.0"/>
      <point x="317.0514372592618" y="250.0" type="curve"/>
      <point x="469.0514372592618" y="369.0" type="line"/>
      <point x="469.0514372592618" y="369.0"/>
      <point x="469.0514372592618" y="369.0"/>
      <point x="469.0514372592618" y="369.0" type="curve"/>
      <point x="498.0514372592618" y="305.0"/>
      <point x="551.0514372592618" y="179.0"/>
      <point x="592.0514372592618" y="79.0" type="curve" smooth="yes"/>
      <point x="595.0514372592618" y="71.0"/>
      <point x="597.0514372592618" y="67.0"/>
      <point x="597.0514372592618" y="60.0" type="curve" smooth="yes"/>
      <point x="597.0514372592618" y="30.0"/>
      <point x="557.0514372592618" y="29.0"/>
      <point x="548.0514372592618" y="29.0" type="curve" smooth="yes"/>
      <point x="539.0514372592618" y="29.0"/>
      <point x="529.0514372592618" y="29.0"/>
      <point x="529.0514372592618" y="10.0" type="curve" smooth="yes"/>
      <point x="529.0514372592618" y="0.0"/>
      <point x="540.0514372592618" y="0.0"/>
      <point x="543.0514372592618" y="0.0" type="curve" smooth="yes"/>
      <point x="578.0514372592618" y="0.0"/>
      <point x="615.0514372592618" y="2.0"/>
      <point x="650.0514372592618" y="2.0" type="curve" smooth="yes"/>
      <point x="666.0354372592618" y="2.0"/>
      <point x="682.0194372592618" y="2.0"/>
      <point x="698.0514372592618" y="2.0" type="curve" smooth="yes"/>
      <point x="713.0514372592618" y="2.0"/>
      <point x="730.0514372592618" y="0.0"/>
      <point x="745.0514372592618" y="0.0" type="curve" smooth="yes"/>
      <point x="751.0514372592618" y="0.0"/>
      <point x="762.0514372592618" y="0.0"/>
      <point x="762.0514372592618" y="19.0" type="curve" smooth="yes"/>
      <point x="762.0514372592618" y="29.0"/>
      <point x="753.0514372592618" y="29.0"/>
      <point x="743.0514372592618" y="29.0" type="curve" smooth="yes"/>
      <point x="706.0514372592618" y="30.0"/>
      <point x="693.0514372592618" y="38.0"/>
      <point x="678.0514372592618" y="74.0" type="curve" smooth="yes"/>
      <point x="539.0514372592618" y="404.0" type="line" smooth="yes"/>
      <point x="538.0514372592618" y="407.0"/>
      <point x="534.0514372592618" y="415.0"/>
      <point x="534.0514372592618" y="418.0" type="curve" smooth="yes"/>
      <point x="534.0514372592618" y="419.0"/>
      <point x="535.0514372592618" y="420.0"/>
      <point x="552.0514372592618" y="433.0" type="curve" smooth="yes"/>
      <point x="584.3524372592618" y="458.308"/>
      <point x="616.6534372592618" y="483.616"/>
      <point x="649.0514372592618" y="509.0" type="curve" smooth="yes"/>
      <point x="783.0514372592618" y="613.0"/>
      <point x="827.0514372592618" y="648.0"/>
      <point x="896.0514372592618" y="654.0" type="curve" smooth="yes"/>
      <point x="903.0514372592618" y="655.0"/>
      <point x="913.0514372592618" y="655.0"/>
      <point x="913.0514372592618" y="672.0" type="curve" smooth="yes"/>
      <point x="913.0514372592618" y="678.0"/>
      <point x="910.0514372592618" y="683.0"/>
      <point x="902.0514372592618" y="683.0" type="curve" smooth="yes"/>
      <point x="891.0514372592618" y="683.0"/>
      <point x="873.0514372592618" y="681.0"/>
      <point x="845.0514372592618" y="681.0" type="curve" smooth="yes"/>
      <point x="838.0584372592618" y="681.0"/>
      <point x="831.0654372592618" y="681.0"/>
      <point x="824.0514372592618" y="681.0" type="curve" smooth="yes"/>
      <point x="793.0514372592618" y="681.0"/>
      <point x="766.0514372592618" y="683.0"/>
      <point x="736.0514372592618" y="683.0" type="curve" smooth="yes"/>
      <point x="729.0514372592618" y="683.0"/>
      <point x="717.0514372592618" y="683.0"/>
      <point x="717.0514372592618" y="665.0" type="curve" smooth="yes"/>
      <point x="717.0514372592618" y="655.0"/>
      <point x="724.0514372592618" y="654.0"/>
      <point x="730.0514372592618" y="654.0" type="curve" smooth="yes"/>
      <point x="741.0514372592618" y="654.0"/>
      <point x="754.0514372592618" y="649.0"/>
      <point x="754.0514372592618" y="635.0" type="curve" smooth="yes"/>
      <point x="754.0514372592618" y="615.0"/>
      <point x="724.0514372592618" y="591.0"/>
      <point x="716.0514372592618" y="585.0" type="curve" smooth="yes"/>
    </contour>
  </outline>
</glyph>
<glyph name="L" format="2">
	<unicode hex="004C"/>
	<advance width="666"/>
	<outline>
		<contour>
			<point x="195.0514372593" y="74" type="line" smooth="yes"/>
			<point x="186.0514372593" y="39"/>
			<point x="184.0514372593" y="29"/>
			<point x="114.0514372593" y="29" type="curve" smooth="yes"/>
			<point x="95.0514372593" y="29"/>
			<point x="85.0514372593" y="29"/>
			<point x="85.0514372593" y="11" type="curve" smooth="yes"/>
			<point x="85.0514372593" y="0"/>
			<point x="91.0514372593" y="0"/>
			<point x="111.0514372593" y="0" type="curve" smooth="yes"/>
			<point x="559.0514372593" y="0" type="line" smooth="yes"/>
			<point x="581.0514372593" y="0"/>
			<point x="582.0514372593" y="1"/>
			<point x="589.0514372593" y="19" type="curve" smooth="yes"/>
			<point x="666.0514372593" y="232" type="line" smooth="yes"/>
			<point x="668.0514372593" y="237"/>
			<point x="670.0514372593" y="243"/>
			<point x="670.0514372593" y="246" type="curve" smooth="yes"/>
			<point x="670.0514372593" y="252"/>
			<point x="665.0514372593" y="256"/>
			<point x="660.0514372593" y="256" type="curve" smooth="yes"/>
			<point x="653.0514372593" y="256"/>
			<point x="651.0514372593" y="254"/>
			<point x="643.0514372593" y="232" type="curve" smooth="yes"/>
			<point x="610.0514372593" y="142"/>
			<point x="565.0514372593" y="29"/>
			<point x="396.0514372593" y="29" type="curve" smooth="yes"/>
			<point x="300.0514372593" y="29" type="line" smooth="yes"/>
			<point x="269.0514372593" y="29"/>
			<point x="266.0514372593" y="30"/>
			<point x="266.0514372593" y="41" type="curve" smooth="yes"/>
			<point x="266.0514372593" y="47"/>
			<point x="268.0514372593" y="54"/>
			<point x="270.0514372593" y="63" type="curve" smooth="yes"/>
			<point x="406.0514372593" y="606" type="line" smooth="yes"/>
			<point x="415.0514372593" y="644"/>
			<point x="418.0514372593" y="654"/>
			<point x="506.0514372593" y="654" type="curve" smooth="yes"/>
			<point x="533.0514372593" y="654"/>
			<point x="540.0514372593" y="654"/>
			<point x="540.0514372593" y="673" type="curve" smooth="yes"/>
			<point x="540.0514372593" y="683"/>
			<point x="529.0514372593" y="683"/>
			<point x="525.0514372593" y="683" type="curve" smooth="yes"/>
			<point x="505.0514372593" y="683"/>
			<point x="482.0514372593" y="681"/>
			<point x="462.0514372593" y="681" type="curve" smooth="yes"/>
			<point x="417.4294372593" y="681"/>
			<point x="372.8074372593" y="681"/>
			<point x="328.0514372593" y="681" type="curve" smooth="yes"/>
			<point x="309.0514372593" y="681"/>
			<point x="287.0514372593" y="683"/>
			<point x="268.0514372593" y="683" type="curve" smooth="yes"/>
			<point x="260.0514372593" y="683"/>
			<point x="249.0514372593" y="683"/>
			<point x="249.0514372593" y="664" type="curve" smooth="yes"/>
			<point x="249.0514372593" y="654"/>
			<point x="258.0514372593" y="654"/>
			<point x="273.0514372593" y="654" type="curve" smooth="yes"/>
			<point x="289.0517372593" y="654"/>
			<point x="300.8551585693" y="653.44958968"/>
			<point x="309.5625424696" y="652.4390019318" type="curve" smooth="yes"/>
			<point x="334.0514372593" y="649.59679613"/>
			<point x="334.0514372593" y="643.1147"/>
			<point x="334.0514372593" y="635" type="curve" smooth="yes"/>
			<point x="334.0514372593" y="633"/>
			<point x="334.0514372593" y="627"/>
			<point x="330.0514372593" y="612" type="curve" smooth="yes"/>
		</contour>
	</outline>
</glyph>
<glyph name="M" format="2">
  <advance width="947"/>
  <unicode hex="004D"/>
  <outline>
    <contour>
      <point x="205.05143725926177" y="102.0" type="line" smooth="yes"/>
      <point x="193.05143725926177" y="54.0"/>
      <point x="170.05143725926177" y="32.0"/>
      <point x="103.05143725926179" y="29.0" type="curve" smooth="yes"/>
      <point x="100.05143725926179" y="29.0"/>
      <point x="88.05143725926179" y="28.0"/>
      <point x="88.05143725926179" y="11.0" type="curve" smooth="yes"/>
      <point x="88.05143725926179" y="0.0"/>
      <point x="97.05143725926179" y="0.0"/>
      <point x="101.05143725926179" y="0.0" type="curve" smooth="yes"/>
      <point x="121.05143725926179" y="0.0"/>
      <point x="172.05143725926177" y="2.0"/>
      <point x="200.05143725926177" y="2.0" type="curve" smooth="yes"/>
      <point x="254.05143725926177" y="2.0"/>
      <point x="271.0514372592618" y="0.0"/>
      <point x="285.0514372592618" y="0.0" type="curve" smooth="yes"/>
      <point x="292.0514372592618" y="0.0"/>
      <point x="303.0514372592618" y="0.0"/>
      <point x="303.0514372592618" y="19.0" type="curve" smooth="yes"/>
      <point x="303.0514372592618" y="28.0"/>
      <point x="293.0514372592618" y="29.0"/>
      <point x="289.0514372592618" y="29.0" type="curve" smooth="yes"/>
      <point x="256.0514372592618" y="30.0"/>
      <point x="224.05143725926177" y="36.0"/>
      <point x="224.05143725926177" y="72.0" type="curve" smooth="yes"/>
      <point x="224.05143725926177" y="81.0"/>
      <point x="224.05143725926177" y="83.0"/>
      <point x="228.05143725926177" y="97.0" type="curve" smooth="yes"/>
      <point x="366.0514372592618" y="648.0" type="line"/>
      <point x="367.0514372592618" y="648.0" type="line"/>
      <point x="450.0514372592618" y="27.0" type="line" smooth="yes"/>
      <point x="453.0514372592618" y="3.0"/>
      <point x="454.0514372592618" y="0.0"/>
      <point x="463.0514372592618" y="0.0" type="curve" smooth="yes"/>
      <point x="474.0514372592618" y="0.0"/>
      <point x="478.0514372592618" y="8.0"/>
      <point x="484.0514372592618" y="17.0" type="curve" smooth="yes"/>
      <point x="886.0514372592618" y="653.0" type="line"/>
      <point x="887.0514372592618" y="653.0" type="line"/>
      <point x="742.0514372592618" y="74.0" type="line" smooth="yes"/>
      <point x="733.0514372592618" y="39.0"/>
      <point x="731.0514372592618" y="29.0"/>
      <point x="661.0514372592618" y="29.0" type="curve" smooth="yes"/>
      <point x="642.0514372592618" y="29.0"/>
      <point x="632.0514372592618" y="29.0"/>
      <point x="632.0514372592618" y="11.0" type="curve" smooth="yes"/>
      <point x="632.0514372592618" y="0.0"/>
      <point x="641.0514372592618" y="0.0"/>
      <point x="647.0514372592618" y="0.0" type="curve" smooth="yes"/>
      <point x="664.0514372592618" y="0.0"/>
      <point x="684.0514372592618" y="2.0"/>
      <point x="701.0514372592618" y="2.0" type="curve" smooth="yes"/>
      <point x="740.3454372592618" y="2.0"/>
      <point x="779.6394372592619" y="2.0"/>
      <point x="819.0514372592618" y="2.0" type="curve" smooth="yes"/>
      <point x="836.0514372592618" y="2.0"/>
      <point x="857.0514372592618" y="0.0"/>
      <point x="874.0514372592618" y="0.0" type="curve" smooth="yes"/>
      <point x="882.0514372592618" y="0.0"/>
      <point x="893.0514372592618" y="0.0"/>
      <point x="893.0514372592618" y="19.0" type="curve" smooth="yes"/>
      <point x="893.0514372592618" y="29.0"/>
      <point x="884.0514372592618" y="29.0"/>
      <point x="869.0514372592618" y="29.0" type="curve" smooth="yes"/>
      <point x="855.0513272592618" y="29.0"/>
      <point x="844.2643825053618" y="29.4213987208"/>
      <point x="835.9531494418618" y="30.1916597471" type="curve" smooth="yes"/>
      <point x="808.0514372592618" y="32.7775096802"/>
      <point x="808.0514372592618" y="39.2951"/>
      <point x="808.0514372592618" y="47.0" type="curve" smooth="yes"/>
      <point x="808.0514372592618" y="48.0"/>
      <point x="808.0514372592618" y="55.0"/>
      <point x="810.0514372592618" y="63.0" type="curve" smooth="yes"/>
      <point x="947.0514372592618" y="610.0" type="line" smooth="yes"/>
      <point x="956.0514372592618" y="644.0"/>
      <point x="958.0514372592618" y="654.0"/>
      <point x="1029.0514372592618" y="654.0" type="curve" smooth="yes"/>
      <point x="1048.0514372592618" y="654.0"/>
      <point x="1057.0514372592618" y="654.0"/>
      <point x="1057.0514372592618" y="673.0" type="curve" smooth="yes"/>
      <point x="1057.0514372592618" y="683.0"/>
      <point x="1050.0514372592618" y="683.0"/>
      <point x="1031.0514372592618" y="683.0" type="curve" smooth="yes"/>
      <point x="911.0514372592618" y="683.0" type="line" smooth="yes"/>
      <point x="886.0514372592618" y="683.0"/>
      <point x="885.0514372592618" y="682.0"/>
      <point x="874.0514372592618" y="666.0" type="curve" smooth="yes"/>
      <point x="509.0514372592618" y="89.0" type="line"/>
      <point x="434.0514372592618" y="661.0" type="line" smooth="yes"/>
      <point x="431.0514372592618" y="683.0"/>
      <point x="430.0514372592618" y="683.0"/>
      <point x="404.0514372592618" y="683.0" type="curve" smooth="yes"/>
      <point x="280.0514372592618" y="683.0" type="line" smooth="yes"/>
      <point x="261.0514372592618" y="683.0"/>
      <point x="252.05143725926177" y="683.0"/>
      <point x="252.05143725926177" y="664.0" type="curve" smooth="yes"/>
      <point x="252.05143725926177" y="654.0"/>
      <point x="261.0514372592618" y="654.0"/>
      <point x="276.0514372592618" y="654.0" type="curve" smooth="yes"/>
      <point x="293.0515272592618" y="654.0"/>
      <point x="305.0514372592618" y="653.0"/>
      <point x="314.1588069767618" y="652.24419185" type="curve" smooth="yes"/>
      <point x="337.0514372592618" y="650.0"/>
      <point x="337.0514372592618" y="642.93441"/>
      <point x="337.0514372592618" y="635.0" type="curve" smooth="yes"/>
      <point x="337.0514372592618" y="633.0"/>
      <point x="337.0514372592618" y="627.0"/>
      <point x="333.0514372592618" y="612.0" type="curve" smooth="yes"/>
    </contour>
  </outline>
</glyph>
<glyph name="N" format="2">
  <advance width="784"/>
  <unicode hex="004E"/>
  <outline>
    <contour>
      <point x="202.05143725926177" y="102.0" type="line" smooth="yes"/>
      <point x="190.05143725926177" y="53.0"/>
      <point x="166.05143725926177" y="32.0"/>
      <point x="100.05143725926179" y="29.0" type="curve"/>
      <point x="95.05143725926179" y="29.0"/>
      <point x="85.05143725926179" y="28.0"/>
      <point x="85.05143725926179" y="10.0" type="curve" smooth="yes"/>
      <point x="85.05143725926179" y="0.0"/>
      <point x="95.05143725926179" y="0.0"/>
      <point x="98.05143725926179" y="0.0" type="curve" smooth="yes"/>
      <point x="118.05143725926179" y="0.0"/>
      <point x="169.05143725926177" y="2.0"/>
      <point x="189.05143725926177" y="2.0" type="curve" smooth="yes"/>
      <point x="261.0514372592618" y="2.0"/>
      <point x="268.0514372592618" y="0.0"/>
      <point x="282.0514372592618" y="0.0" type="curve" smooth="yes"/>
      <point x="289.0514372592618" y="0.0"/>
      <point x="300.0514372592618" y="0.0"/>
      <point x="300.0514372592618" y="19.0" type="curve" smooth="yes"/>
      <point x="300.0514372592618" y="28.0"/>
      <point x="290.0514372592618" y="29.0"/>
      <point x="286.0514372592618" y="29.0" type="curve" smooth="yes"/>
      <point x="253.05143725926177" y="30.0"/>
      <point x="221.05143725926177" y="36.0"/>
      <point x="221.05143725926177" y="72.0" type="curve" smooth="yes"/>
      <point x="221.05143725926177" y="80.0"/>
      <point x="223.05143725926177" y="89.0"/>
      <point x="225.05143725926177" y="97.0" type="curve" smooth="yes"/>
      <point x="360.0514372592618" y="632.0" type="line"/>
      <point x="366.0514372592618" y="622.0"/>
      <point x="366.0514372592618" y="620.0"/>
      <point x="370.0514372592618" y="611.0" type="curve" smooth="yes"/>
      <point x="608.0514372592618" y="18.0" type="line" smooth="yes"/>
      <point x="613.0514372592618" y="6.0"/>
      <point x="615.0514372592618" y="0.0"/>
      <point x="624.0514372592618" y="0.0" type="curve" smooth="yes"/>
      <point x="634.0514372592618" y="0.0"/>
      <point x="635.0514372592618" y="3.0"/>
      <point x="639.0514372592618" y="20.0" type="curve" smooth="yes"/>
      <point x="779.0514372592618" y="578.0" type="line" smooth="yes"/>
      <point x="790.0514372592618" y="621.0"/>
      <point x="806.0514372592618" y="651.0"/>
      <point x="882.0514372592618" y="654.0" type="curve" smooth="yes"/>
      <point x="885.0514372592618" y="654.0"/>
      <point x="897.0514372592618" y="655.0"/>
      <point x="897.0514372592618" y="672.0" type="curve" smooth="yes"/>
      <point x="897.0514372592618" y="683.0"/>
      <point x="888.0514372592618" y="683.0"/>
      <point x="884.0514372592618" y="683.0" type="curve" smooth="yes"/>
      <point x="864.0514372592618" y="683.0"/>
      <point x="813.0514372592618" y="681.0"/>
      <point x="793.0514372592618" y="681.0" type="curve" smooth="yes"/>
      <point x="721.0514372592618" y="681.0"/>
      <point x="713.0514372592618" y="683.0"/>
      <point x="699.0514372592618" y="683.0" type="curve" smooth="yes"/>
      <point x="693.0514372592618" y="683.0"/>
      <point x="681.0514372592618" y="683.0"/>
      <point x="681.0514372592618" y="664.0" type="curve" smooth="yes"/>
      <point x="681.0514372592618" y="654.0"/>
      <point x="689.0514372592618" y="654.0"/>
      <point x="696.0514372592618" y="654.0" type="curve" smooth="yes"/>
      <point x="756.0514372592618" y="652.0"/>
      <point x="760.0514372592618" y="629.0"/>
      <point x="760.0514372592618" y="611.0" type="curve" smooth="yes"/>
      <point x="760.0514372592618" y="602.0"/>
      <point x="759.0514372592618" y="599.0"/>
      <point x="756.0514372592618" y="585.0" type="curve" smooth="yes"/>
      <point x="643.0514372592618" y="134.0" type="line"/>
      <point x="429.0514372592618" y="666.0" type="line" smooth="yes"/>
      <point x="422.0514372592618" y="682.0"/>
      <point x="421.0514372592618" y="683.0"/>
      <point x="399.0514372592618" y="683.0" type="curve" smooth="yes"/>
      <point x="277.0514372592618" y="683.0" type="line" smooth="yes"/>
      <point x="257.0514372592618" y="683.0"/>
      <point x="248.05143725926177" y="683.0"/>
      <point x="248.05143725926177" y="664.0" type="curve" smooth="yes"/>
      <point x="248.05143725926177" y="654.0"/>
      <point x="255.05143725926177" y="654.0"/>
      <point x="274.0514372592618" y="654.0" type="curve" smooth="yes"/>
      <point x="279.0514372592618" y="654.0"/>
      <point x="338.0514372592618" y="654.0"/>
      <point x="338.0514372592618" y="645.0" type="curve" smooth="yes"/>
      <point x="338.0514372592618" y="643.0"/>
      <point x="336.0514372592618" y="636.0"/>
      <point x="335.0514372592618" y="632.0" type="curve" smooth="yes"/>
    </contour>
  </outline>
</glyph>
<glyph name="O" format="2">
	<unicode hex="004F"/>
	<advance width="748"/>
	<outline>
		<contour>
			<point x="679.5" y="438" type="curve" smooth="yes"/>
			<point x="679.5" y="603"/>
			<point x="571.5" y="704"/>
			<point x="431.5" y="704" type="curve" smooth="yes"/>
			<point x="217.5" y="704"/>
			<point x="1.5" y="474"/>
			<point x="1.5" y="243" type="curve" smooth="yes"/>
			<point x="1.5" y="86"/>
			<point x="105.5" y="-21"/>
			<point x="250.5" y="-21" type="curve" smooth="yes"/>
			<point x="460.5" y="-21"/>
			<point x="679.5" y="198"/>
		</contour>
		<contour>
			<point x="256.5" y="2" type="curve" smooth="yes"/>
			<point x="174.5" y="2"/>
			<point x="87.5" y="62"/>
			<point x="87.5" y="218" type="curve" smooth="yes"/>
			<point x="87.5" y="309"/>
			<point x="120.5" y="458"/>
			<point x="202.5" y="558" type="curve" smooth="yes"/>
			<point x="275.5" y="646"/>
			<point x="359.5" y="682"/>
			<point x="426.5" y="682" type="curve" smooth="yes"/>
			<point x="514.5" y="682"/>
			<point x="599.5" y="618"/>
			<point x="599.5" y="474" type="curve" smooth="yes"/>
			<point x="599.5" y="385"/>
			<point x="561.5" y="246"/>
			<point x="494.5" y="151" type="curve" smooth="yes"/>
			<point x="421.5" y="49"/>
			<point x="330.5" y="2"/>
		</contour>
	</outline>
</glyph>
<glyph name="P" format="2">
	<unicode hex="0050"/>
	<advance width="1262"/>
	<outline>
		<contour>
			<point x="221" y="148" type="line" smooth="yes"/>
			<point x="203" y="78"/>
			<point x="199" y="58"/>
			<point x="59" y="58" type="curve" smooth="yes"/>
			<point x="21" y="58"/>
			<point x="1" y="58"/>
			<point x="1" y="22" type="curve" smooth="yes"/>
			<point x="1" y="0"/>
			<point x="19" y="0"/>
			<point x="31" y="0" type="curve" smooth="yes"/>
			<point x="69" y="0"/>
			<point x="109" y="4"/>
			<point x="147" y="4" type="curve" smooth="yes"/>
			<point x="225" y="4"/>
			<point x="303" y="4"/>
			<point x="381" y="4" type="curve" smooth="yes"/>
			<point x="419" y="4"/>
			<point x="461" y="0"/>
			<point x="499" y="0" type="curve" smooth="yes"/>
			<point x="515" y="0"/>
			<point x="537" y="0"/>
			<point x="537" y="38" type="curve" smooth="yes"/>
			<point x="537" y="58"/>
			<point x="519" y="58"/>
			<point x="489" y="58" type="curve" smooth="yes"/>
			<point x="458" y="58"/>
			<point x="434" y="59"/>
			<point x="417" y="61" type="curve" smooth="yes"/>
			<point x="368" y="66"/>
			<point x="367" y="77"/>
			<point x="367" y="92" type="curve" smooth="yes"/>
			<point x="367" y="102"/>
			<point x="369" y="116"/>
			<point x="371" y="126" type="curve" smooth="yes"/>
			<point x="499" y="636" type="line"/>
			<point x="835" y="636" type="line" smooth="yes"/>
			<point x="1111" y="636"/>
			<point x="1387" y="840"/>
			<point x="1387" y="1068" type="curve" smooth="yes"/>
			<point x="1387" y="1224"/>
			<point x="1255" y="1366"/>
			<point x="1003" y="1366" type="curve" smooth="yes"/>
			<point x="385" y="1366" type="line" smooth="yes"/>
			<point x="347" y="1366"/>
			<point x="329" y="1366"/>
			<point x="329" y="1328" type="curve" smooth="yes"/>
			<point x="329" y="1308"/>
			<point x="347" y="1308"/>
			<point x="377" y="1308" type="curve" smooth="yes"/>
			<point x="411" y="1308"/>
			<point x="436" y="1307"/>
			<point x="453" y="1304" type="curve" smooth="yes"/>
			<point x="499" y="1299"/>
			<point x="499" y="1286"/>
			<point x="499" y="1270" type="curve" smooth="yes"/>
			<point x="499" y="1266"/>
			<point x="499" y="1254"/>
			<point x="491" y="1224" type="curve" smooth="yes"/>
		</contour>
		<contour>
			<point x="507" y="684" type="line"/>
			<point x="643" y="1230" type="line" smooth="yes"/>
			<point x="661" y="1304"/>
			<point x="669" y="1308"/>
			<point x="747" y="1308" type="curve" smooth="yes"/>
			<point x="945" y="1308" type="line" smooth="yes"/>
			<point x="1095" y="1308"/>
			<point x="1219" y="1260"/>
			<point x="1219" y="1110" type="curve" smooth="yes"/>
			<point x="1219" y="1058"/>
			<point x="1193" y="888"/>
			<point x="1101" y="796" type="curve" smooth="yes"/>
			<point x="1067" y="760"/>
			<point x="971" y="684"/>
			<point x="789" y="684" type="curve" smooth="yes"/>
		</contour>
	</outline>
</glyph>
<glyph name="Q" format="2">
	<unicode hex="0051"/>
	<advance width="1550"/>
	<outline>
		<contour>
			<point x="66.1028745185" y="486" type="curve" smooth="yes"/>
			<point x="66.1028745185" y="172"/>
			<point x="274.1028745185" y="-42"/>
			<point x="564.1028745185" y="-42" type="curve" smooth="yes"/>
			<point x="632.1028745185" y="-42"/>
			<point x="698.1028745185" y="-32"/>
			<point x="762.1028745185" y="-12" type="curve"/>
			<point x="750.1028745185" y="-132"/>
			<point x="750.1028745185" y="-142"/>
			<point x="750.1028745185" y="-180" type="curve" smooth="yes"/>
			<point x="750.1028745185" y="-238"/>
			<point x="750.1028745185" y="-388"/>
			<point x="910.1028745185" y="-388" type="curve" smooth="yes"/>
			<point x="1148.1028745185" y="-388"/>
			<point x="1236.1028745185" y="-14"/>
			<point x="1236.1028745185" y="-2" type="curve" smooth="yes"/>
			<point x="1236.1028745185" y="10"/>
			<point x="1228.1028745185" y="18"/>
			<point x="1218.1028745185" y="18" type="curve" smooth="yes"/>
			<point x="1206.1028745185" y="18"/>
			<point x="1202.1028745185" y="8"/>
			<point x="1196.1028745185" y="-14" type="curve"/>
			<point x="1152.1028745185" y="-140"/>
			<point x="1048.1028745185" y="-212"/>
			<point x="960.1028745185" y="-212" type="curve" smooth="yes"/>
			<point x="858.1028745185" y="-212"/>
			<point x="832.1028745185" y="-142"/>
			<point x="822.1028745185" y="12" type="curve"/>
			<point x="1166.1028745185" y="150"/>
			<point x="1422.1028745185" y="514"/>
			<point x="1422.1028745185" y="876" type="curve" smooth="yes"/>
			<point x="1422.1028745185" y="1206"/>
			<point x="1206.1028745185" y="1408"/>
			<point x="926.1028745185" y="1408" type="curve" smooth="yes"/>
			<point x="498.1028745185" y="1408"/>
			<point x="66.1028745185" y="948"/>
		</contour>
		<contour>
			<point x="228.1028745185" y="426" type="curve" smooth="yes"/>
			<point x="228.1028745185" y="566"/>
			<point x="280.1028745185" y="832"/>
			<point x="412.1028745185" y="1034" type="curve" smooth="yes"/>
			<point x="560.1028745185" y="1262"/>
			<point x="758.1028745185" y="1364"/>
			<point x="914.1028745185" y="1364" type="curve" smooth="yes"/>
			<point x="1122.1028745185" y="1364"/>
			<point x="1262.1028745185" y="1196"/>
			<point x="1262.1028745185" y="936" type="curve" smooth="yes"/>
			<point x="1262.1028745185" y="788"/>
			<point x="1192.1028745185" y="292"/>
			<point x="816.1028745185" y="72" type="curve"/>
			<point x="806.1028745185" y="174"/>
			<point x="778.1028745185" y="294"/>
			<point x="646.1028745185" y="294" type="curve" smooth="yes"/>
			<point x="538.1028745185" y="294"/>
			<point x="446.1028745185" y="186"/>
			<point x="446.1028745185" y="88" type="curve" smooth="yes"/>
			<point x="446.1028745185" y="66"/>
			<point x="454.1028745185" y="36"/>
			<point x="462.1028745185" y="22" type="curve"/>
			<point x="304.1028745185" y="76"/>
			<point x="228.1028745185" y="242"/>
		</contour>
		<contour>
			<point x="486.1028745185" y="90" type="curve" smooth="yes"/>
			<point x="486.1028745185" y="162"/>
			<point x="556.1028745185" y="254"/>
			<point x="646.1028745185" y="254" type="curve" smooth="yes"/>
			<point x="762.1028745185" y="254"/>
			<point x="774.1028745185" y="158"/>
			<point x="766.1028745185" y="46" type="curve"/>
			<point x="694.1028745185" y="14"/>
			<point x="632.1028745185" y="2"/>
			<point x="576.1028745185" y="2" type="curve" smooth="yes"/>
			<point x="556.1028745185" y="2"/>
			<point x="486.1028745185" y="2"/>
		</contour>
	</outline>
</glyph>
<glyph name="R" format="2">
	<unicode hex="0052"/>
	<advance width="745"/>
	<outline>
		<contour>
			<point x="341.0514372593" y="352" type="line"/>
			<point x="407.0514372593" y="615" type="line" smooth="yes"/>
			<point x="416.0514372593" y="652"/>
			<point x="420.0514372593" y="654"/>
			<point x="459.0514372593" y="654" type="curve" smooth="yes"/>
			<point x="483.0274372593" y="654"/>
			<point x="507.0034372593" y="654"/>
			<point x="531.0514372593" y="654" type="curve" smooth="yes"/>
			<point x="617.0514372593" y="654"/>
			<point x="681.0514372593" y="628"/>
			<point x="681.0514372593" y="550" type="curve" smooth="yes"/>
			<point x="681.0514372593" y="520.56841"/>
			<point x="672.3925826887" y="459.1656646624"/>
			<point x="626.4385728075" y="412.4939188852" type="curve" smooth="yes"/>
			<point x="592.7620053418" y="378.2913716107"/>
			<point x="539.0563472593" y="352"/>
			<point x="454.0514372593" y="352" type="curve" smooth="yes"/>
		</contour>
		<contour>
			<point x="767.0514372593" y="533" type="curve" smooth="yes"/>
			<point x="767.0514372593" y="611"/>
			<point x="688.0514372593" y="683"/>
			<point x="549.0514372593" y="683" type="curve" smooth="yes"/>
			<point x="278.0514372593" y="683" type="line" smooth="yes"/>
			<point x="258.0514372593" y="683"/>
			<point x="249.0514372593" y="683"/>
			<point x="249.0514372593" y="664" type="curve" smooth="yes"/>
			<point x="249.0514372593" y="654"/>
			<point x="256.0514372593" y="654"/>
			<point x="275.0514372593" y="654" type="curve" smooth="yes"/>
			<point x="292.0512372593" y="654"/>
			<point x="304.2344839253" y="653.3577928888"/>
			<point x="312.9658513134" y="652.1871015044" type="curve" smooth="yes"/>
			<point x="335.0514372593" y="649.2258923333"/>
			<point x="335.0514372593" y="642.88337"/>
			<point x="335.0514372593" y="635" type="curve" smooth="yes"/>
			<point x="335.0514372593" y="633"/>
			<point x="335.0514372593" y="627"/>
			<point x="331.0514372593" y="612" type="curve" smooth="yes"/>
			<point x="196.0514372593" y="74" type="line" smooth="yes"/>
			<point x="187.0514372593" y="39"/>
			<point x="185.0514372593" y="29"/>
			<point x="116.0514372593" y="29" type="curve" smooth="yes"/>
			<point x="93.0514372593" y="29"/>
			<point x="86.0514372593" y="29"/>
			<point x="86.0514372593" y="10" type="curve" smooth="yes"/>
			<point x="86.0514372593" y="0"/>
			<point x="97.0514372593" y="0"/>
			<point x="100.0514372593" y="0" type="curve" smooth="yes"/>
			<point x="118.0514372593" y="0"/>
			<point x="139.0514372593" y="2"/>
			<point x="158.0514372593" y="2" type="curve" smooth="yes"/>
			<point x="197.3454372593" y="2"/>
			<point x="236.6394372593" y="2"/>
			<point x="276.0514372593" y="2" type="curve" smooth="yes"/>
			<point x="294.0514372593" y="2"/>
			<point x="315.0514372593" y="0"/>
			<point x="333.0514372593" y="0" type="curve" smooth="yes"/>
			<point x="341.0514372593" y="0"/>
			<point x="352.0514372593" y="0"/>
			<point x="352.0514372593" y="19" type="curve" smooth="yes"/>
			<point x="352.0514372593" y="29"/>
			<point x="343.0514372593" y="29"/>
			<point x="328.0514372593" y="29" type="curve" smooth="yes"/>
			<point x="312.0511372593" y="29"/>
			<point x="300.2477159493" y="29.55041032"/>
			<point x="291.5403320489" y="30.5429514898" type="curve" smooth="yes"/>
			<point x="267.0514372593" y="33.33440258"/>
			<point x="267.0514372593" y="39.623"/>
			<point x="267.0514372593" y="47" type="curve" smooth="yes"/>
			<point x="267.0514372593" y="48"/>
			<point x="267.0514372593" y="55"/>
			<point x="269.0514372593" y="63" type="curve" smooth="yes"/>
			<point x="336.0514372593" y="332" type="line"/>
			<point x="456.0514372593" y="332" type="line" smooth="yes"/>
			<point x="551.0514372593" y="332"/>
			<point x="569.0514372593" y="272"/>
			<point x="569.0514372593" y="239" type="curve" smooth="yes"/>
			<point x="569.0514372593" y="224"/>
			<point x="559.0514372593" y="185"/>
			<point x="552.0514372593" y="159" type="curve" smooth="yes"/>
			<point x="541.0514372593" y="113"/>
			<point x="538.0514372593" y="102"/>
			<point x="538.0514372593" y="83" type="curve" smooth="yes"/>
			<point x="538.0514372593" y="12"/>
			<point x="596.0514372593" y="-21"/>
			<point x="663.0514372593" y="-21" type="curve" smooth="yes"/>
			<point x="744.0514372593" y="-21"/>
			<point x="779.0514372593" y="78"/>
			<point x="779.0514372593" y="92" type="curve" smooth="yes"/>
			<point x="779.0514372593" y="99"/>
			<point x="774.0514372593" y="102"/>
			<point x="768.0514372593" y="102" type="curve" smooth="yes"/>
			<point x="760.0514372593" y="102"/>
			<point x="758.0514372593" y="96"/>
			<point x="756.0514372593" y="88" type="curve"/>
			<point x="732.0514372593" y="17"/>
			<point x="691.0514372593" y="-1"/>
			<point x="666.0514372593" y="-1" type="curve" smooth="yes"/>
			<point x="641.0514372593" y="-1"/>
			<point x="625.0514372593" y="10"/>
			<point x="625.0514372593" y="55" type="curve" smooth="yes"/>
			<point x="625.0514372593" y="79"/>
			<point x="637.0514372593" y="170"/>
			<point x="638.0514372593" y="175" type="curve"/>
			<point x="643.0514372593" y="212"/>
			<point x="643.0514372593" y="216"/>
			<point x="643.0514372593" y="224" type="curve" smooth="yes"/>
			<point x="643.0514372593" y="297"/>
			<point x="584.0514372593" y="328"/>
			<point x="546.0514372593" y="340" type="curve"/>
			<point x="670.0514372593" y="367"/>
			<point x="767.0514372593" y="447"/>
		</contour>
	</outline>
</glyph>
<glyph name="S" format="2">
	<unicode hex="0053"/>
	<advance width="602"/>
	<outline>
		<contour>
			<point x="217.0514372593" y="475" type="curve" smooth="yes"/>
			<point x="217.0514372593" y="400"/>
			<point x="262.0514372593" y="356"/>
			<point x="311.0514372593" y="339" type="curve" smooth="yes"/>
			<point x="322.0514372593" y="335"/>
			<point x="381.0514372593" y="319"/>
			<point x="411.0514372593" y="312" type="curve" smooth="yes"/>
			<point x="462.0514372593" y="298"/>
			<point x="475.0514372593" y="294"/>
			<point x="496.0514372593" y="272" type="curve"/>
			<point x="500.0514372593" y="267"/>
			<point x="520.0514372593" y="244"/>
			<point x="520.0514372593" y="197" type="curve" smooth="yes"/>
			<point x="520.0514372593" y="104"/>
			<point x="434.0514372593" y="8"/>
			<point x="334.0514372593" y="8" type="curve" smooth="yes"/>
			<point x="252.0514372593" y="8"/>
			<point x="161.0514372593" y="43"/>
			<point x="161.0514372593" y="155" type="curve" smooth="yes"/>
			<point x="161.0514372593" y="185"/>
			<point x="169.0514372593" y="209.33333"/>
			<point x="169.0514372593" y="218" type="curve" smooth="yes"/>
			<point x="169.0514372593" y="222"/>
			<point x="167.0514372593" y="227"/>
			<point x="159.0514372593" y="227" type="curve" smooth="yes"/>
			<point x="150.0514372593" y="227"/>
			<point x="149.0514372593" y="225"/>
			<point x="145.0514372593" y="208" type="curve" smooth="yes"/>
			<point x="127.0694372593" y="135.739"/>
			<point x="109.0874372593" y="63.478"/>
			<point x="91.0514372593" y="-9" type="curve" smooth="yes"/>
			<point x="88.0514372593" y="-21"/>
			<point x="97.0514372593" y="-21"/>
			<point x="99.0514372593" y="-21" type="curve" smooth="yes"/>
			<point x="102.0514372593" y="-21"/>
			<point x="105.0514372593" y="-21"/>
			<point x="117.0514372593" y="-5" type="curve" smooth="yes"/>
			<point x="132.3694372593" y="14.98"/>
			<point x="147.6874372593" y="34.96"/>
			<point x="163.0514372593" y="55" type="curve"/>
			<point x="187.0514372593" y="19"/>
			<point x="239.0514372593" y="-21"/>
			<point x="332.0514372593" y="-21" type="curve" smooth="yes"/>
			<point x="461.0514372593" y="-21"/>
			<point x="579.0514372593" y="104"/>
			<point x="579.0514372593" y="229" type="curve" smooth="yes"/>
			<point x="579.0514372593" y="271"/>
			<point x="569.0514372593" y="308"/>
			<point x="531.0514372593" y="345" type="curve" smooth="yes"/>
			<point x="510.0514372593" y="366"/>
			<point x="492.0514372593" y="371"/>
			<point x="400.0514372593" y="395" type="curve" smooth="yes"/>
			<point x="333.0514372593" y="413"/>
			<point x="324.0514372593" y="416"/>
			<point x="306.0514372593" y="432" type="curve"/>
			<point x="289.0514372593" y="449"/>
			<point x="276.0514372593" y="473"/>
			<point x="276.0514372593" y="507" type="curve" smooth="yes"/>
			<point x="276.0514372593" y="591"/>
			<point x="361.0514372593" y="677"/>
			<point x="456.0514372593" y="677" type="curve" smooth="yes"/>
			<point x="554.0514372593" y="677"/>
			<point x="600.0514372593" y="617"/>
			<point x="600.0514372593" y="522" type="curve" smooth="yes"/>
			<point x="600.0514372593" y="496"/>
			<point x="595.0514372593" y="469"/>
			<point x="595.0514372593" y="465" type="curve" smooth="yes"/>
			<point x="595.0514372593" y="456"/>
			<point x="603.0514372593" y="456"/>
			<point x="606.0514372593" y="456" type="curve" smooth="yes"/>
			<point x="615.0514372593" y="456"/>
			<point x="616.0514372593" y="459"/>
			<point x="620.0514372593" y="475" type="curve" smooth="yes"/>
			<point x="674.0514372593" y="695" type="line"/>
			<point x="674.0514372593" y="704"/>
			<point x="667.0514372593" y="704"/>
			<point x="665.0514372593" y="704" type="curve" smooth="yes"/>
			<point x="661.0514372593" y="704"/>
			<point x="660.0514372593" y="703"/>
			<point x="648.0514372593" y="688" type="curve" smooth="yes"/>
			<point x="642.0514372593" y="681"/>
			<point x="601.0514372593" y="629"/>
			<point x="600.0514372593" y="628" type="curve"/>
			<point x="567.0514372593" y="693"/>
			<point x="501.0514372593" y="704"/>
			<point x="459.0514372593" y="704" type="curve" smooth="yes"/>
			<point x="332.0514372593" y="704"/>
			<point x="217.0514372593" y="588"/>
		</contour>
	</outline>
</glyph>
<glyph name="T" format="2">
	<unicode hex="0054"/>
	<advance width="1146"/>
	<outline>
		<contour>
			<point x="319" y="156" type="line" smooth="yes"/>
			<point x="304" y="97"/>
			<point x="298" y="71"/>
			<point x="205" y="62" type="curve" smooth="yes"/>
			<point x="175" y="59"/>
			<point x="135" y="58"/>
			<point x="83" y="58" type="curve" smooth="yes"/>
			<point x="33" y="58"/>
			<point x="19" y="58"/>
			<point x="19" y="20" type="curve" smooth="yes"/>
			<point x="19" y="0"/>
			<point x="41" y="0"/>
			<point x="51" y="0" type="curve" smooth="yes"/>
			<point x="101" y="0"/>
			<point x="153" y="4"/>
			<point x="203" y="4" type="curve" smooth="yes"/>
			<point x="307" y="4"/>
			<point x="411" y="4"/>
			<point x="515" y="4" type="curve" smooth="yes"/>
			<point x="565" y="4"/>
			<point x="619" y="0"/>
			<point x="669" y="0" type="curve" smooth="yes"/>
			<point x="691" y="0"/>
			<point x="711" y="0"/>
			<point x="711" y="38" type="curve" smooth="yes"/>
			<point x="711" y="58"/>
			<point x="697" y="58"/>
			<point x="645" y="58" type="curve" smooth="yes"/>
			<point x="601" y="58"/>
			<point x="568" y="59"/>
			<point x="543" y="61" type="curve" smooth="yes"/>
			<point x="459" y="68"/>
			<point x="455" y="84"/>
			<point x="473" y="154" type="curve" smooth="yes"/>
			<point x="741" y="1220" type="line" smooth="yes"/>
			<point x="753" y="1268"/>
			<point x="757" y="1286"/>
			<point x="787" y="1294" type="curve" smooth="yes"/>
			<point x="803" y="1298"/>
			<point x="869" y="1298"/>
			<point x="911" y="1298" type="curve" smooth="yes"/>
			<point x="1111" y="1298"/>
			<point x="1205" y="1290"/>
			<point x="1205" y="1134" type="curve" smooth="yes"/>
			<point x="1205" y="1104"/>
			<point x="1197" y="1028"/>
			<point x="1183" y="940" type="curve" smooth="yes"/>
			<point x="1181" y="922"/>
			<point x="1189" y="910"/>
			<point x="1203" y="910" type="curve" smooth="yes"/>
			<point x="1223" y="910"/>
			<point x="1223" y="920"/>
			<point x="1229" y="952" type="curve" smooth="yes"/>
			<point x="1289" y="1316" type="line" smooth="yes"/>
			<point x="1295" y="1354"/>
			<point x="1290" y="1356"/>
			<point x="1239" y="1356" type="curve" smooth="yes"/>
			<point x="145" y="1356" type="line" smooth="yes"/>
			<point x="99" y="1356"/>
			<point x="97" y="1354"/>
			<point x="85" y="1318" type="curve" smooth="yes"/>
			<point x="-37" y="958" type="line" smooth="yes"/>
			<point x="-39" y="952"/>
			<point x="-45" y="932"/>
			<point x="-45" y="930" type="curve" smooth="yes"/>
			<point x="-45" y="920"/>
			<point x="-37" y="910"/>
			<point x="-25" y="910" type="curve" smooth="yes"/>
			<point x="-9" y="910"/>
			<point x="-5" y="918"/>
			<point x="3" y="944" type="curve" smooth="yes"/>
			<point x="87" y="1186"/>
			<point x="129" y="1298"/>
			<point x="395" y="1298" type="curve" smooth="yes"/>
			<point x="529" y="1298" type="line" smooth="yes"/>
			<point x="577" y="1298"/>
			<point x="597" y="1298"/>
			<point x="597" y="1276" type="curve" smooth="yes"/>
			<point x="597" y="1270"/>
			<point x="595" y="1260"/>
			<point x="587" y="1230" type="curve" smooth="yes"/>
		</contour>
	</outline>
</glyph>
<glyph name="U" format="2">
  <advance width="665"/>
  <unicode hex="0055"/>
  <outline>
    <contour>
      <point x="295.0514372592618" y="-21.0" type="curve" smooth="yes"/>
      <point x="386.0514372592618" y="-21.0"/>
      <point x="524.0514372592618" y="54.0"/>
      <point x="571.0514372592618" y="224.0" type="curve" smooth="yes"/>
      <point x="592.0514372592618" y="300.0"/>
      <point x="612.0514372592618" y="388.0"/>
      <point x="657.0514372592618" y="565.0" type="curve" smooth="yes"/>
      <point x="670.0514372592618" y="617.0"/>
      <point x="678.0514372592618" y="654.0"/>
      <point x="766.0514372592618" y="654.0" type="curve" smooth="yes"/>
      <point x="774.0514372592618" y="654.0"/>
      <point x="778.0514372592618" y="663.0"/>
      <point x="778.0514372592618" y="672.0" type="curve" smooth="yes"/>
      <point x="778.0514372592618" y="683.0"/>
      <point x="769.0514372592618" y="683.0"/>
      <point x="765.0514372592618" y="683.0" type="curve" smooth="yes"/>
      <point x="751.0514372592618" y="683.0"/>
      <point x="733.0514372592618" y="681.0"/>
      <point x="719.0514372592618" y="681.0" type="curve" smooth="yes"/>
      <point x="703.4004372592618" y="681.0"/>
      <point x="687.7494372592618" y="681.0"/>
      <point x="672.0514372592618" y="681.0" type="curve" smooth="yes"/>
      <point x="610.0514372592618" y="681.0"/>
      <point x="578.0514372592618" y="683.0"/>
      <point x="577.0514372592618" y="683.0" type="curve" smooth="yes"/>
      <point x="571.0514372592618" y="683.0"/>
      <point x="559.0514372592618" y="683.0"/>
      <point x="559.0514372592618" y="664.0" type="curve" smooth="yes"/>
      <point x="559.0514372592618" y="654.0"/>
      <point x="567.0514372592618" y="654.0"/>
      <point x="574.0514372592618" y="654.0" type="curve" smooth="yes"/>
      <point x="634.0514372592618" y="652.0"/>
      <point x="638.0514372592618" y="629.0"/>
      <point x="638.0514372592618" y="611.0" type="curve" smooth="yes"/>
      <point x="638.0514372592618" y="605.0"/>
      <point x="637.0514372592618" y="599.0"/>
      <point x="634.0514372592618" y="585.0" type="curve" smooth="yes"/>
      <point x="604.4144372592618" y="466.785"/>
      <point x="574.7774372592618" y="348.57"/>
      <point x="545.0514372592618" y="230.0" type="curve" smooth="yes"/>
      <point x="510.0514372592618" y="90.0"/>
      <point x="394.0514372592618" y="8.0"/>
      <point x="300.0514372592618" y="8.0" type="curve" smooth="yes"/>
      <point x="228.05143725926177" y="8.0"/>
      <point x="179.05143725926177" y="56.0"/>
      <point x="179.05143725926177" y="139.0" type="curve" smooth="yes"/>
      <point x="179.05143725926177" y="143.0"/>
      <point x="179.05143725926177" y="173.0"/>
      <point x="190.05143725926177" y="217.0" type="curve" smooth="yes"/>
      <point x="288.0514372592618" y="610.0" type="line" smooth="yes"/>
      <point x="297.0514372592618" y="644.0"/>
      <point x="299.0514372592618" y="654.0"/>
      <point x="370.0514372592618" y="654.0" type="curve" smooth="yes"/>
      <point x="388.0514372592618" y="654.0"/>
      <point x="398.0514372592618" y="654.0"/>
      <point x="398.0514372592618" y="672.0" type="curve" smooth="yes"/>
      <point x="398.0514372592618" y="683.0"/>
      <point x="389.0514372592618" y="683.0"/>
      <point x="383.0514372592618" y="683.0" type="curve" smooth="yes"/>
      <point x="365.0514372592618" y="683.0"/>
      <point x="344.0514372592618" y="681.0"/>
      <point x="325.0514372592618" y="681.0" type="curve" smooth="yes"/>
      <point x="285.7574372592618" y="681.0"/>
      <point x="246.4634372592618" y="681.0"/>
      <point x="207.05143725926177" y="681.0" type="curve" smooth="yes"/>
      <point x="188.05143725926177" y="681.0"/>
      <point x="167.05143725926177" y="683.0"/>
      <point x="148.05143725926177" y="683.0" type="curve" smooth="yes"/>
      <point x="141.05143725926177" y="683.0"/>
      <point x="129.05143725926177" y="683.0"/>
      <point x="129.05143725926177" y="664.0" type="curve" smooth="yes"/>
      <point x="129.05143725926177" y="654.0"/>
      <point x="136.05143725926177" y="654.0"/>
      <point x="155.05143725926177" y="654.0" type="curve" smooth="yes"/>
      <point x="171.05163725926178" y="654.0"/>
      <point x="182.7850639252618" y="653.4310968888"/>
      <point x="191.38953770216176" y="652.3881090368" type="curve" smooth="yes"/>
      <point x="215.05143725926177" y="649.5199413333"/>
      <point x="215.05143725926177" y="643.06663"/>
      <point x="215.05143725926177" y="635.0" type="curve" smooth="yes"/>
      <point x="215.05143725926177" y="629.0"/>
      <point x="208.05143725926177" y="600.0"/>
      <point x="203.05143725926177" y="583.0" type="curve" smooth="yes"/>
      <point x="174.08043725926177" y="466.45"/>
      <point x="145.10943725926177" y="349.9"/>
      <point x="116.05143725926179" y="233.0" type="curve" smooth="yes"/>
      <point x="113.05143725926179" y="222.0"/>
      <point x="107.05143725926179" y="195.0"/>
      <point x="107.05143725926179" y="168.0" type="curve" smooth="yes"/>
      <point x="107.05143725926179" y="58.0"/>
      <point x="186.05143725926177" y="-21.0"/>
    </contour>
  </outline>
</glyph>
<glyph name="V" format="2">
	<unicode hex="0056"/>
	<advance width="1140"/>
	<outline>
		<contour>
			<point x="432.1028745185" y="-42" type="curve" smooth="yes"/>
			<point x="456.1028745185" y="-42"/>
			<point x="466.1028745185" y="-36"/>
			<point x="486.1028745185" y="-4" type="curve" smooth="yes"/>
			<point x="1208.1028745185" y="1144" type="line" smooth="yes"/>
			<point x="1276.1028745185" y="1252"/>
			<point x="1338.1028745185" y="1300"/>
			<point x="1440.1028745185" y="1308" type="curve" smooth="yes"/>
			<point x="1460.1028745185" y="1310"/>
			<point x="1476.1028745185" y="1310"/>
			<point x="1476.1028745185" y="1346" type="curve" smooth="yes"/>
			<point x="1476.1028745185" y="1354"/>
			<point x="1472.1028745185" y="1366"/>
			<point x="1454.1028745185" y="1366" type="curve" smooth="yes"/>
			<point x="1418.1028745185" y="1366"/>
			<point x="1332.1028745185" y="1362"/>
			<point x="1296.1028745185" y="1362" type="curve" smooth="yes"/>
			<point x="1238.1028745185" y="1362"/>
			<point x="1178.1028745185" y="1366"/>
			<point x="1122.1028745185" y="1366" type="curve" smooth="yes"/>
			<point x="1106.1028745185" y="1366"/>
			<point x="1086.1028745185" y="1366"/>
			<point x="1086.1028745185" y="1328" type="curve" smooth="yes"/>
			<point x="1086.1028745185" y="1310"/>
			<point x="1104.1028745185" y="1308"/>
			<point x="1112.1028745185" y="1308" type="curve" smooth="yes"/>
			<point x="1186.1028745185" y="1308"/>
			<point x="1194.1028745185" y="1266"/>
			<point x="1194.1028745185" y="1242" type="curve" smooth="yes"/>
			<point x="1194.1028745185" y="1212"/>
			<point x="1170.1028745185" y="1174"/>
			<point x="1164.1028745185" y="1164" type="curve" smooth="yes"/>
			<point x="536.1028745185" y="168" type="line"/>
			<point x="402.1028745185" y="1200" type="line" smooth="yes"/>
			<point x="400.1028745185" y="1214"/>
			<point x="396.1028745185" y="1236"/>
			<point x="396.1028745185" y="1248" type="curve" smooth="yes"/>
			<point x="396.1028745185" y="1292"/>
			<point x="466.1028745185" y="1308"/>
			<point x="522.1028745185" y="1308" type="curve" smooth="yes"/>
			<point x="552.1028745185" y="1308"/>
			<point x="570.1028745185" y="1308"/>
			<point x="570.1028745185" y="1346" type="curve" smooth="yes"/>
			<point x="570.1028745185" y="1366"/>
			<point x="548.1028745185" y="1366"/>
			<point x="542.1028745185" y="1366" type="curve" smooth="yes"/>
			<point x="508.1028745185" y="1366"/>
			<point x="468.1028745185" y="1362"/>
			<point x="434.1028745185" y="1362" type="curve" smooth="yes"/>
			<point x="397.1028745185" y="1362"/>
			<point x="359.1028745185" y="1362"/>
			<point x="322.1028745185" y="1362" type="curve" smooth="yes"/>
			<point x="176.1028745185" y="1362"/>
			<point x="116.1028745185" y="1366"/>
			<point x="114.1028745185" y="1366" type="curve" smooth="yes"/>
			<point x="102.1028745185" y="1366"/>
			<point x="78.1028745185" y="1366"/>
			<point x="78.1028745185" y="1330" type="curve" smooth="yes"/>
			<point x="78.1028745185" y="1308"/>
			<point x="92.1028745185" y="1308"/>
			<point x="124.1028745185" y="1308" type="curve" smooth="yes"/>
			<point x="226.1028745185" y="1308"/>
			<point x="232.1028745185" y="1290"/>
			<point x="238.1028745185" y="1240" type="curve" smooth="yes"/>
			<point x="398.1028745185" y="6" type="line" smooth="yes"/>
			<point x="404.1028745185" y="-36"/>
			<point x="404.1028745185" y="-42"/>
		</contour>
	</outline>
</glyph>
<glyph name="W" format="2">
	<unicode hex="0057"/>
	<advance width="1848"/>
	<outline>
		<contour>
			<point x="974.1028745185" y="1038" type="line"/>
			<point x="1048.1028745185" y="4" type="line" smooth="yes"/>
			<point x="1050.1028745185" y="-30"/>
			<point x="1052.1028745185" y="-42"/>
			<point x="1076.1028745185" y="-42" type="curve" smooth="yes"/>
			<point x="1096.1028745185" y="-42"/>
			<point x="1102.1028745185" y="-32"/>
			<point x="1118.1028745185" y="-4" type="curve" smooth="yes"/>
			<point x="1776.1028745185" y="1144" type="line" smooth="yes"/>
			<point x="1822.1028745185" y="1222"/>
			<point x="1866.1028745185" y="1296"/>
			<point x="1986.1028745185" y="1308" type="curve" smooth="yes"/>
			<point x="2004.1028745185" y="1310"/>
			<point x="2022.1028745185" y="1312"/>
			<point x="2022.1028745185" y="1344" type="curve" smooth="yes"/>
			<point x="2022.1028745185" y="1366"/>
			<point x="2004.1028745185" y="1366"/>
			<point x="1998.1028745185" y="1366" type="curve" smooth="yes"/>
			<point x="1994.1028745185" y="1366"/>
			<point x="1980.1028745185" y="1362"/>
			<point x="1848.1028745185" y="1362" type="curve" smooth="yes"/>
			<point x="1788.1028745185" y="1362"/>
			<point x="1726.1028745185" y="1366"/>
			<point x="1668.1028745185" y="1366" type="curve" smooth="yes"/>
			<point x="1656.1028745185" y="1366"/>
			<point x="1632.1028745185" y="1366"/>
			<point x="1632.1028745185" y="1328" type="curve" smooth="yes"/>
			<point x="1632.1028745185" y="1310"/>
			<point x="1648.1028745185" y="1308"/>
			<point x="1660.1028745185" y="1308" type="curve" smooth="yes"/>
			<point x="1700.1028745185" y="1306"/>
			<point x="1764.1028745185" y="1294"/>
			<point x="1764.1028745185" y="1232" type="curve" smooth="yes"/>
			<point x="1764.1028745185" y="1206"/>
			<point x="1756.1028745185" y="1192"/>
			<point x="1736.1028745185" y="1158" type="curve" smooth="yes"/>
			<point x="1190.1028745185" y="202" type="line"/>
			<point x="1118.1028745185" y="1244" type="line"/>
			<point x="1118.1028745185" y="1268"/>
			<point x="1140.1028745185" y="1306"/>
			<point x="1252.1028745185" y="1308" type="curve" smooth="yes"/>
			<point x="1278.1028745185" y="1308"/>
			<point x="1298.1028745185" y="1308"/>
			<point x="1298.1028745185" y="1346" type="curve" smooth="yes"/>
			<point x="1298.1028745185" y="1366"/>
			<point x="1278.1028745185" y="1366"/>
			<point x="1268.1028745185" y="1366" type="curve" smooth="yes"/>
			<point x="1198.1028745185" y="1366"/>
			<point x="1124.1028745185" y="1362"/>
			<point x="1052.1028745185" y="1362" type="curve" smooth="yes"/>
			<point x="1017.1028745185" y="1362"/>
			<point x="983.1028745185" y="1362"/>
			<point x="948.1028745185" y="1362" type="curve" smooth="yes"/>
			<point x="918.1028745185" y="1362"/>
			<point x="882.1028745185" y="1366"/>
			<point x="852.1028745185" y="1366" type="curve" smooth="yes"/>
			<point x="840.1028745185" y="1366"/>
			<point x="816.1028745185" y="1366"/>
			<point x="816.1028745185" y="1328" type="curve" smooth="yes"/>
			<point x="816.1028745185" y="1308"/>
			<point x="830.1028745185" y="1308"/>
			<point x="864.1028745185" y="1308" type="curve" smooth="yes"/>
			<point x="956.1028745185" y="1308"/>
			<point x="956.1028745185" y="1306"/>
			<point x="964.1028745185" y="1184" type="curve" smooth="yes"/>
			<point x="966.1028745185" y="1160"/>
			<point x="968.1028745185" y="1136"/>
			<point x="970.1028745185" y="1112" type="curve"/>
			<point x="970.1028745185" y="1112"/>
			<point x="970.1028745185" y="1112"/>
			<point x="970.1028745185" y="1112" type="curve"/>
			<point x="452.1028745185" y="202" type="line"/>
			<point x="378.1028745185" y="1234" type="line"/>
			<point x="378.1028745185" y="1256"/>
			<point x="378.1028745185" y="1306"/>
			<point x="514.1028745185" y="1308" type="curve" smooth="yes"/>
			<point x="536.1028745185" y="1308"/>
			<point x="558.1028745185" y="1308"/>
			<point x="558.1028745185" y="1344" type="curve" smooth="yes"/>
			<point x="558.1028745185" y="1366"/>
			<point x="540.1028745185" y="1366"/>
			<point x="528.1028745185" y="1366" type="curve" smooth="yes"/>
			<point x="458.1028745185" y="1366"/>
			<point x="384.1028745185" y="1362"/>
			<point x="312.1028745185" y="1362" type="curve" smooth="yes"/>
			<point x="277.1028745185" y="1362"/>
			<point x="243.1028745185" y="1362"/>
			<point x="208.1028745185" y="1362" type="curve" smooth="yes"/>
			<point x="178.1028745185" y="1362"/>
			<point x="142.1028745185" y="1366"/>
			<point x="112.1028745185" y="1366" type="curve" smooth="yes"/>
			<point x="100.1028745185" y="1366"/>
			<point x="76.1028745185" y="1366"/>
			<point x="76.1028745185" y="1328" type="curve" smooth="yes"/>
			<point x="76.1028745185" y="1308"/>
			<point x="92.1028745185" y="1308"/>
			<point x="120.1028745185" y="1308" type="curve" smooth="yes"/>
			<point x="214.1028745185" y="1308"/>
			<point x="216.1028745185" y="1296"/>
			<point x="220.1028745185" y="1232" type="curve" smooth="yes"/>
			<point x="308.1028745185" y="4" type="line" smooth="yes"/>
			<point x="310.1028745185" y="-30"/>
			<point x="312.1028745185" y="-42"/>
			<point x="336.1028745185" y="-42" type="curve" smooth="yes"/>
			<point x="356.1028745185" y="-42"/>
			<point x="360.1028745185" y="-34"/>
			<point x="378.1028745185" y="-4" type="curve" smooth="yes"/>
		</contour>
	</outline>
</glyph>
<glyph name="X" format="2">
	<unicode hex="0058"/>
	<advance width="812"/>
	<outline>
		<contour>
			<point x="438.5" y="382" type="curve"/>
			<point x="494.777" y="442.273"/>
			<point x="551.054" y="502.546"/>
			<point x="607.5" y="563" type="curve" smooth="yes"/>
			<point x="649.5" y="608"/>
			<point x="690.5" y="649"/>
			<point x="771.5" y="654" type="curve" smooth="yes"/>
			<point x="781.5" y="655"/>
			<point x="791.5" y="655"/>
			<point x="791.5" y="672" type="curve" smooth="yes"/>
			<point x="791.5" y="683"/>
			<point x="782.5" y="683"/>
			<point x="778.5" y="683" type="curve" smooth="yes"/>
			<point x="770.5" y="683"/>
			<point x="749.5" y="681"/>
			<point x="689.5" y="681" type="curve" smooth="yes"/>
			<point x="647.5" y="681"/>
			<point x="602.5" y="683"/>
			<point x="591.5" y="683" type="curve" smooth="yes"/>
			<point x="584.5" y="683"/>
			<point x="572.5" y="683"/>
			<point x="572.5" y="665" type="curve" smooth="yes"/>
			<point x="572.5" y="655"/>
			<point x="579.5" y="654"/>
			<point x="585.5" y="654" type="curve" smooth="yes"/>
			<point x="601.5" y="653"/>
			<point x="618.5" y="643"/>
			<point x="618.5" y="624" type="curve" smooth="yes"/>
			<point x="618.5" y="617"/>
			<point x="614.5" y="606"/>
			<point x="603.5" y="594" type="curve" smooth="yes"/>
			<point x="428.5" y="406" type="line"/>
			<point x="334.5" y="625" type="line" smooth="yes"/>
			<point x="333.5" y="628"/>
			<point x="333.5" y="629"/>
			<point x="333.5" y="631" type="curve" smooth="yes"/>
			<point x="333.5" y="651"/>
			<point x="378.5" y="654"/>
			<point x="389.5" y="654" type="curve" smooth="yes"/>
			<point x="395.5" y="654"/>
			<point x="406.5" y="655"/>
			<point x="406.5" y="672" type="curve" smooth="yes"/>
			<point x="406.5" y="683"/>
			<point x="397.5" y="683"/>
			<point x="391.5" y="683" type="curve" smooth="yes"/>
			<point x="374.5" y="683"/>
			<point x="354.5" y="681"/>
			<point x="320.5" y="681" type="curve" smooth="yes"/>
			<point x="306.847" y="681"/>
			<point x="293.194" y="681"/>
			<point x="279.5" y="681" type="curve" smooth="yes"/>
			<point x="218.5" y="681"/>
			<point x="174.5" y="683"/>
			<point x="173.5" y="683" type="curve" smooth="yes"/>
			<point x="165.5" y="683"/>
			<point x="155.5" y="683"/>
			<point x="155.5" y="664" type="curve" smooth="yes"/>
			<point x="155.5" y="654"/>
			<point x="164.5" y="654"/>
			<point x="177.5" y="654" type="curve" smooth="yes"/>
			<point x="235.5" y="654"/>
			<point x="239.5" y="644"/>
			<point x="249.5" y="620" type="curve" smooth="yes"/>
			<point x="289.127" y="527.426"/>
			<point x="328.754" y="434.852"/>
			<point x="368.5" y="342" type="curve"/>
			<point x="296.239" y="264.744"/>
			<point x="223.978" y="187.488"/>
			<point x="151.5" y="110" type="curve" smooth="yes"/>
			<point x="115.5" y="71"/>
			<point x="72.5" y="33"/>
			<point x="-1.5" y="29" type="curve" smooth="yes"/>
			<point x="-13.5" y="28"/>
			<point x="-21.5" y="28"/>
			<point x="-21.5" y="10" type="curve" smooth="yes"/>
			<point x="-21.5" y="7"/>
			<point x="-20.5" y="0"/>
			<point x="-9.5" y="0" type="curve" smooth="yes"/>
			<point x="4.5" y="0"/>
			<point x="19.5" y="2"/>
			<point x="80.5" y="2" type="curve" smooth="yes"/>
			<point x="112.5" y="2"/>
			<point x="147.5" y="0"/>
			<point x="178.5" y="0" type="curve" smooth="yes"/>
			<point x="185.5" y="0"/>
			<point x="197.5" y="0"/>
			<point x="197.5" y="18" type="curve" smooth="yes"/>
			<point x="197.5" y="28"/>
			<point x="190.5" y="29"/>
			<point x="184.5" y="29" type="curve" smooth="yes"/>
			<point x="164.5" y="29"/>
			<point x="151.5" y="42"/>
			<point x="151.5" y="58" type="curve" smooth="yes"/>
			<point x="151.5" y="75"/>
			<point x="164.5" y="86"/>
			<point x="192.5" y="117" type="curve" smooth="yes"/>
			<point x="254.438" y="183.6"/>
			<point x="316.376" y="250.2"/>
			<point x="378.5" y="317" type="curve"/>
			<point x="483.5" y="71" type="line" smooth="yes"/>
			<point x="485.5" y="66"/>
			<point x="488.5" y="59"/>
			<point x="488.5" y="58" type="curve" smooth="yes"/>
			<point x="488.5" y="49"/>
			<point x="466.5" y="31"/>
			<point x="434.5" y="29" type="curve" smooth="yes"/>
			<point x="428.5" y="29"/>
			<point x="417.5" y="28"/>
			<point x="417.5" y="10" type="curve" smooth="yes"/>
			<point x="417.5" y="0"/>
			<point x="427.5" y="0"/>
			<point x="432.5" y="0" type="curve" smooth="yes"/>
			<point x="449.5" y="0"/>
			<point x="469.5" y="2"/>
			<point x="486.5" y="2" type="curve" smooth="yes"/>
			<point x="523.13" y="2"/>
			<point x="559.76" y="2"/>
			<point x="596.5" y="2" type="curve" smooth="yes"/>
			<point x="614.5" y="2"/>
			<point x="633.5" y="0"/>
			<point x="650.5" y="0" type="curve" smooth="yes"/>
			<point x="657.5" y="0"/>
			<point x="668.5" y="0"/>
			<point x="668.5" y="19" type="curve" smooth="yes"/>
			<point x="668.5" y="29"/>
			<point x="658.5" y="29"/>
			<point x="649.5" y="29" type="curve" smooth="yes"/>
			<point x="589.5" y="30"/>
			<point x="587.5" y="35"/>
			<point x="570.5" y="72" type="curve" smooth="yes"/>
			<point x="526.544" y="175.23"/>
			<point x="482.588" y="278.46"/>
		</contour>
	</outline>
</glyph>
<glyph name="Y" format="2">
	<unicode hex="0059"/>
	<advance width="568"/>
	<outline>
		<contour>
			<point x="281.5" y="309" type="line"/>
			<point x="168.5" y="613" type="line" smooth="yes"/>
			<point x="165.5" y="621"/>
			<point x="162.5" y="629"/>
			<point x="162.5" y="631" type="curve" smooth="yes"/>
			<point x="162.5" y="652"/>
			<point x="203.5" y="654"/>
			<point x="215.5" y="654" type="curve" smooth="yes"/>
			<point x="227.5" y="654"/>
			<point x="238.5" y="654"/>
			<point x="238.5" y="672" type="curve" smooth="yes"/>
			<point x="238.5" y="683"/>
			<point x="229.5" y="683"/>
			<point x="223.5" y="683" type="curve" smooth="yes"/>
			<point x="206.5" y="683"/>
			<point x="186.5" y="681"/>
			<point x="169.5" y="681" type="curve" smooth="yes"/>
			<point x="132.537" y="681"/>
			<point x="95.574" y="681"/>
			<point x="58.5" y="681" type="curve" smooth="yes"/>
			<point x="40.5" y="681"/>
			<point x="21.5" y="683"/>
			<point x="4.5" y="683" type="curve" smooth="yes"/>
			<point x="-2.5" y="683"/>
			<point x="-13.5" y="683"/>
			<point x="-13.5" y="664" type="curve" smooth="yes"/>
			<point x="-13.5" y="654"/>
			<point x="-4.5" y="654"/>
			<point x="10.5" y="654" type="curve" smooth="yes"/>
			<point x="59.5" y="654"/>
			<point x="68.5" y="645"/>
			<point x="77.5" y="622" type="curve" smooth="yes"/>
			<point x="201.5" y="289" type="line" smooth="yes"/>
			<point x="202.5" y="286"/>
			<point x="205.5" y="275"/>
			<point x="205.5" y="272" type="curve" smooth="yes"/>
			<point x="205.5" y="269"/>
			<point x="156.5" y="72"/>
			<point x="153.5" y="62" type="curve" smooth="yes"/>
			<point x="145.5" y="35"/>
			<point x="135.5" y="30"/>
			<point x="71.5" y="29" type="curve" smooth="yes"/>
			<point x="54.5" y="29"/>
			<point x="46.5" y="29"/>
			<point x="46.5" y="10" type="curve" smooth="yes"/>
			<point x="46.5" y="0"/>
			<point x="57.5" y="0"/>
			<point x="60.5" y="0" type="curve" smooth="yes"/>
			<point x="78.5" y="0"/>
			<point x="99.5" y="2"/>
			<point x="118.5" y="2" type="curve" smooth="yes"/>
			<point x="157.794" y="2"/>
			<point x="197.088" y="2"/>
			<point x="236.5" y="2" type="curve" smooth="yes"/>
			<point x="254.5" y="2"/>
			<point x="275.5" y="0"/>
			<point x="293.5" y="0" type="curve" smooth="yes"/>
			<point x="300.5" y="0"/>
			<point x="312.5" y="0"/>
			<point x="312.5" y="18" type="curve" smooth="yes"/>
			<point x="312.5" y="29"/>
			<point x="305.5" y="29"/>
			<point x="288.5" y="29" type="curve" smooth="yes"/>
			<point x="274.49978" y="29"/>
			<point x="263.6609496782" y="29.3569310927"/>
			<point x="255.2696356313" y="30.0362510167" type="curve" smooth="yes"/>
			<point x="226.5" y="32.3653006244"/>
			<point x="226.5" y="38.48391"/>
			<point x="226.5" y="47" type="curve" smooth="yes"/>
			<point x="226.5" y="54"/>
			<point x="234.5" y="86"/>
			<point x="239.5" y="106" type="curve" smooth="yes"/>
			<point x="251.488" y="153.952"/>
			<point x="263.476" y="201.904"/>
			<point x="275.5" y="250" type="curve" smooth="yes"/>
			<point x="281.5" y="271"/>
			<point x="281.5" y="273"/>
			<point x="290.5" y="283" type="curve" smooth="yes"/>
			<point x="541.5" y="572" type="line" smooth="yes"/>
			<point x="547.5" y="578"/>
			<point x="556.5" y="587"/>
			<point x="564.5" y="595" type="curve" smooth="yes"/>
			<point x="608.5" y="640"/>
			<point x="645.5" y="651"/>
			<point x="680.5" y="654" type="curve" smooth="yes"/>
			<point x="691.5" y="655"/>
			<point x="700.5" y="656"/>
			<point x="700.5" y="673" type="curve" smooth="yes"/>
			<point x="700.5" y="683"/>
			<point x="690.5" y="683"/>
			<point x="688.5" y="683" type="curve" smooth="yes"/>
			<point x="682.5" y="683"/>
			<point x="673.5" y="681"/>
			<point x="610.5" y="681" type="curve" smooth="yes"/>
			<point x="581.5" y="681"/>
			<point x="550.5" y="683"/>
			<point x="522.5" y="683" type="curve" smooth="yes"/>
			<point x="515.5" y="683"/>
			<point x="504.5" y="683"/>
			<point x="504.5" y="664" type="curve" smooth="yes"/>
			<point x="504.5" y="655"/>
			<point x="513.5" y="654"/>
			<point x="516.5" y="654" type="curve" smooth="yes"/>
			<point x="546.5" y="654"/>
			<point x="547.5" y="637"/>
			<point x="547.5" y="631" type="curve" smooth="yes"/>
			<point x="547.5" y="620"/>
			<point x="539.5" y="605"/>
			<point x="519.5" y="582" type="curve" smooth="yes"/>
		</contour>
	</outline>
</glyph>
<glyph name="Z" format="2">
	<unicode hex="005A"/>
	<advance width="670"/>
	<outline>
		<contour>
			<point x="657.0514372593" y="654" type="line"/>
			<point x="109.0514372593" y="34" type="line" smooth="yes"/>
			<point x="100.0514372593" y="23"/>
			<point x="96.0514372593" y="19"/>
			<point x="96.0514372593" y="8" type="curve" smooth="yes"/>
			<point x="96.0514372593" y="0"/>
			<point x="101.0514372593" y="0"/>
			<point x="120.0514372593" y="0" type="curve" smooth="yes"/>
			<point x="547.0514372593" y="0" type="line" smooth="yes"/>
			<point x="570.0514372593" y="0"/>
			<point x="571.0514372593" y="1"/>
			<point x="577.0514372593" y="19" type="curve" smooth="yes"/>
			<point x="647.0514372593" y="240" type="line" smooth="yes"/>
			<point x="648.0514372593" y="243"/>
			<point x="650.0514372593" y="250"/>
			<point x="650.0514372593" y="254" type="curve" smooth="yes"/>
			<point x="650.0514372593" y="259"/>
			<point x="646.0514372593" y="264"/>
			<point x="640.0514372593" y="264" type="curve" smooth="yes"/>
			<point x="632.0514372593" y="264"/>
			<point x="631.0514372593" y="263"/>
			<point x="623.0514372593" y="238" type="curve" smooth="yes"/>
			<point x="581.0514372593" y="109"/>
			<point x="537.0514372593" y="31"/>
			<point x="363.0514372593" y="31" type="curve" smooth="yes"/>
			<point x="190.0514372593" y="31" type="line"/>
			<point x="739.0514372593" y="652" type="line" smooth="yes"/>
			<point x="745.0514372593" y="659"/>
			<point x="750.0514372593" y="665"/>
			<point x="750.0514372593" y="675" type="curve" smooth="yes"/>
			<point x="750.0514372593" y="682"/>
			<point x="749.0514372593" y="683"/>
			<point x="726.0514372593" y="683" type="curve" smooth="yes"/>
			<point x="313.0514372593" y="683" type="line" smooth="yes"/>
			<point x="290.0514372593" y="683"/>
			<point x="289.0514372593" y="682"/>
			<point x="283.0514372593" y="664" type="curve" smooth="yes"/>
			<point x="228.0514372593" y="484" type="line" smooth="yes"/>
			<point x="225.0514372593" y="474"/>
			<point x="225.0514372593" y="472"/>
			<point x="225.0514372593" y="470" type="curve" smooth="yes"/>
			<point x="225.0514372593" y="466"/>
			<point x="228.0514372593" y="460"/>
			<point x="235.0514372593" y="460" type="curve" smooth="yes"/>
			<point x="243.0514372593" y="460"/>
			<point x="245.0514372593" y="464"/>
			<point x="249.0514372593" y="477" type="curve" smooth="yes"/>
			<point x="286.0514372593" y="585"/>
			<point x="335.0514372593" y="654"/>
			<point x="493.0514372593" y="654" type="curve" smooth="yes"/>
		</contour>
	</outline>
</glyph>
<glyph name="a" format="2">
	<unicode hex="0061"/>
	<advance width="514"/>
	<outline>
		<contour>
			<point x="-6.5" y="147" type="curve" smooth="yes"/>
			<point x="-6.5" y="48"/>
			<point x="51.5" y="-10"/>
			<point x="119.5" y="-10" type="curve" smooth="yes"/>
			<point x="174.5" y="-10"/>
			<point x="221.5" y="33"/>
			<point x="249.5" y="66" type="curve"/>
			<point x="259.5" y="7"/>
			<point x="306.5" y="-10"/>
			<point x="336.5" y="-10" type="curve" smooth="yes"/>
			<point x="366.5" y="-10"/>
			<point x="390.5" y="8"/>
			<point x="408.5" y="44" type="curve" smooth="yes"/>
			<point x="424.5" y="78"/>
			<point x="438.5" y="139"/>
			<point x="438.5" y="143" type="curve" smooth="yes"/>
			<point x="438.5" y="148"/>
			<point x="434.5" y="152"/>
			<point x="428.5" y="152" type="curve" smooth="yes"/>
			<point x="419.5" y="152"/>
			<point x="418.5" y="147"/>
			<point x="414.5" y="132" type="curve" smooth="yes"/>
			<point x="399.5" y="73"/>
			<point x="380.5" y="10"/>
			<point x="339.5" y="10" type="curve" smooth="yes"/>
			<point x="310.5" y="10"/>
			<point x="308.5" y="36"/>
			<point x="308.5" y="56" type="curve" smooth="yes"/>
			<point x="308.5" y="79"/>
			<point x="310.5" y="90"/>
			<point x="320.5" y="129" type="curve" smooth="yes"/>
			<point x="335.5" y="189"/>
			<point x="353.5" y="260"/>
			<point x="364.5" y="303" type="curve" smooth="yes"/>
			<point x="382.5" y="372"/>
			<point x="386.5" y="393"/>
			<point x="386.5" y="397" type="curve" smooth="yes"/>
			<point x="386.5" y="411"/>
			<point x="375.5" y="422"/>
			<point x="360.5" y="422" type="curve" smooth="yes"/>
			<point x="328.5" y="422"/>
			<point x="320.5" y="387"/>
			<point x="318.5" y="375" type="curve"/>
			<point x="307.5" y="401"/>
			<point x="280.5" y="441"/>
			<point x="228.5" y="441" type="curve" smooth="yes"/>
			<point x="115.5" y="441"/>
			<point x="-6.5" y="295"/>
		</contour>
		<contour>
			<point x="58.5" y="106" type="curve" smooth="yes"/>
			<point x="58.5" y="161"/>
			<point x="89.5" y="273"/>
			<point x="108.5" y="315" type="curve" smooth="yes"/>
			<point x="142.5" y="385"/>
			<point x="189.5" y="421"/>
			<point x="228.5" y="421" type="curve" smooth="yes"/>
			<point x="294.5" y="421"/>
			<point x="307.5" y="339"/>
			<point x="307.5" y="331" type="curve" smooth="yes"/>
			<point x="307.5" y="330"/>
			<point x="304.5" y="317"/>
			<point x="303.5" y="315" type="curve"/>
			<point x="287.183" y="249.732"/>
			<point x="270.866" y="184.464"/>
			<point x="254.5" y="119" type="curve" smooth="yes"/>
			<point x="249.5" y="102"/>
			<point x="249.5" y="100"/>
			<point x="235.5" y="81" type="curve" smooth="yes"/>
			<point x="213.5" y="53"/>
			<point x="169.5" y="10"/>
			<point x="122.5" y="10" type="curve" smooth="yes"/>
			<point x="81.5" y="10"/>
			<point x="58.5" y="47"/>
		</contour>
	</outline>
</glyph>
<glyph name="b" format="2">
	<unicode hex="0062"/>
	<advance width="832"/>
	<outline>
		<contour>
			<point x="304.1028745185" y="-20" type="curve" smooth="yes"/>
			<point x="536.1028745185" y="-20"/>
			<point x="776.1028745185" y="278"/>
			<point x="776.1028745185" y="568" type="curve" smooth="yes"/>
			<point x="776.1028745185" y="752"/>
			<point x="672.1028745185" y="882"/>
			<point x="522.1028745185" y="882" type="curve" smooth="yes"/>
			<point x="418.1028745185" y="882"/>
			<point x="324.1028745185" y="796"/>
			<point x="286.1028745185" y="756" type="curve"/>
			<point x="432.1028745185" y="1338" type="line" smooth="yes"/>
			<point x="434.1028745185" y="1346"/>
			<point x="438.1028745185" y="1358"/>
			<point x="438.1028745185" y="1368" type="curve" smooth="yes"/>
			<point x="438.1028745185" y="1388"/>
			<point x="418.1028745185" y="1388"/>
			<point x="414.1028745185" y="1388" type="curve" smooth="yes"/>
			<point x="410.1028745185" y="1388"/>
			<point x="240.1028745185" y="1372"/>
			<point x="204.1028745185" y="1370" type="curve" smooth="yes"/>
			<point x="156.1028745185" y="1368"/>
			<point x="142.1028745185" y="1364"/>
			<point x="142.1028745185" y="1328" type="curve" smooth="yes"/>
			<point x="142.1028745185" y="1308"/>
			<point x="162.1028745185" y="1308"/>
			<point x="182.1028745185" y="1308" type="curve" smooth="yes"/>
			<point x="284.1028745185" y="1308"/>
			<point x="284.1028745185" y="1290"/>
			<point x="284.1028745185" y="1270" type="curve" smooth="yes"/>
			<point x="284.1028745185" y="1256"/>
			<point x="268.1028745185" y="1198"/>
			<point x="260.1028745185" y="1162" type="curve" smooth="yes"/>
			<point x="192.1028745185" y="890"/>
			<point x="78.1028745185" y="436"/>
			<point x="70.1028745185" y="400" type="curve" smooth="yes"/>
			<point x="60.1028745185" y="350"/>
			<point x="60.1028745185" y="316"/>
			<point x="60.1028745185" y="290" type="curve" smooth="yes"/>
			<point x="60.1028745185" y="86"/>
			<point x="174.1028745185" y="-20"/>
		</contour>
		<contour>
			<point x="306.1028745185" y="20" type="curve" smooth="yes"/>
			<point x="242.1028745185" y="20"/>
			<point x="172.1028745185" y="68"/>
			<point x="172.1028745185" y="224" type="curve" smooth="yes"/>
			<point x="172.1028745185" y="290"/>
			<point x="178.1028745185" y="328"/>
			<point x="214.1028745185" y="468" type="curve" smooth="yes"/>
			<point x="220.1028745185" y="494"/>
			<point x="252.1028745185" y="622"/>
			<point x="260.1028745185" y="648" type="curve"/>
			<point x="260.1028745185" y="648"/>
			<point x="260.1028745185" y="648"/>
			<point x="260.1028745185" y="648" type="curve"/>
			<point x="264.1028745185" y="664"/>
			<point x="382.1028745185" y="842"/>
			<point x="518.1028745185" y="842" type="curve" smooth="yes"/>
			<point x="606.1028745185" y="842"/>
			<point x="646.1028745185" y="754"/>
			<point x="646.1028745185" y="650" type="curve" smooth="yes"/>
			<point x="646.1028745185" y="554"/>
			<point x="590.1028745185" y="328"/>
			<point x="540.1028745185" y="224" type="curve" smooth="yes"/>
			<point x="490.1028745185" y="116"/>
			<point x="398.1028745185" y="20"/>
		</contour>
	</outline>
</glyph>
<glyph name="c" format="2">
	<unicode hex="0063"/>
	<advance width="421"/>
	<outline>
		<contour>
			<point x="-6.5" y="156" type="curve" smooth="yes"/>
			<point x="-6.5" y="69"/>
			<point x="47.5" y="-10"/>
			<point x="149.5" y="-10" type="curve" smooth="yes"/>
			<point x="204.0224" y="-10"/>
			<point x="250.5087595" y="7.03640586"/>
			<point x="286.6394914817" y="28.2870560069" type="curve" smooth="yes"/>
			<point x="340.63281034" y="60.04376467"/>
			<point x="371.5" y="101.2117"/>
			<point x="371.5" y="109" type="curve" smooth="yes"/>
			<point x="371.5" y="115"/>
			<point x="365.5" y="120"/>
			<point x="361.5" y="120" type="curve" smooth="yes"/>
			<point x="358.5" y="120"/>
			<point x="357.5" y="119"/>
			<point x="348.5" y="110" type="curve"/>
			<point x="284.5" y="25"/>
			<point x="189.5" y="10"/>
			<point x="151.5" y="10" type="curve" smooth="yes"/>
			<point x="82.5" y="10"/>
			<point x="60.5" y="70"/>
			<point x="60.5" y="120" type="curve" smooth="yes"/>
			<point x="60.5" y="155"/>
			<point x="77.5" y="252"/>
			<point x="113.5" y="320" type="curve" smooth="yes"/>
			<point x="139.5" y="367"/>
			<point x="193.5" y="421"/>
			<point x="256.5" y="421" type="curve" smooth="yes"/>
			<point x="269.5" y="421"/>
			<point x="324.5" y="419"/>
			<point x="344.5" y="376" type="curve"/>
			<point x="325.5" y="376"/>
			<point x="316.5" y="376"/>
			<point x="302.5" y="364" type="curve" smooth="yes"/>
			<point x="296.5" y="359"/>
			<point x="285.5" y="344"/>
			<point x="285.5" y="328" type="curve" smooth="yes"/>
			<point x="285.5" y="308"/>
			<point x="300.5" y="296"/>
			<point x="319.5" y="296" type="curve" smooth="yes"/>
			<point x="343.5" y="296"/>
			<point x="370.5" y="316"/>
			<point x="370.5" y="356" type="curve" smooth="yes"/>
			<point x="370.5" y="404"/>
			<point x="324.5" y="441"/>
			<point x="255.5" y="441" type="curve" smooth="yes"/>
			<point x="124.5" y="441"/>
			<point x="-6.5" y="298"/>
		</contour>
	</outline>
</glyph>
<glyph name="d" format="2">
	<unicode hex="0064"/>
	<advance width="1016"/>
	<outline>
		<contour>
			<point x="239" y="-20" type="curve" smooth="yes"/>
			<point x="349" y="-20"/>
			<point x="443" y="66"/>
			<point x="499" y="132" type="curve"/>
			<point x="519" y="14"/>
			<point x="613" y="-20"/>
			<point x="673" y="-20" type="curve" smooth="yes"/>
			<point x="733" y="-20"/>
			<point x="781" y="16"/>
			<point x="817" y="88" type="curve" smooth="yes"/>
			<point x="849" y="156"/>
			<point x="877" y="278"/>
			<point x="877" y="286" type="curve" smooth="yes"/>
			<point x="877" y="296"/>
			<point x="869" y="304"/>
			<point x="857" y="304" type="curve" smooth="yes"/>
			<point x="839" y="304"/>
			<point x="837" y="294"/>
			<point x="829" y="264" type="curve" smooth="yes"/>
			<point x="799" y="146"/>
			<point x="761" y="20"/>
			<point x="679" y="20" type="curve" smooth="yes"/>
			<point x="621" y="20"/>
			<point x="617" y="72"/>
			<point x="617" y="112" type="curve" smooth="yes"/>
			<point x="617" y="120"/>
			<point x="617" y="162"/>
			<point x="631" y="218" type="curve" smooth="yes"/>
			<point x="913" y="1338" type="line" smooth="yes"/>
			<point x="915" y="1346"/>
			<point x="919" y="1358"/>
			<point x="919" y="1368" type="curve" smooth="yes"/>
			<point x="919" y="1388"/>
			<point x="899" y="1388"/>
			<point x="895" y="1388" type="curve" smooth="yes"/>
			<point x="887" y="1388"/>
			<point x="732" y="1373"/>
			<point x="685" y="1370" type="curve" smooth="yes"/>
			<point x="635" y="1366"/>
			<point x="621" y="1364"/>
			<point x="621" y="1328" type="curve" smooth="yes"/>
			<point x="621" y="1308"/>
			<point x="637" y="1308"/>
			<point x="665" y="1308" type="curve" smooth="yes"/>
			<point x="763" y="1308"/>
			<point x="765" y="1290"/>
			<point x="765" y="1270" type="curve" smooth="yes"/>
			<point x="765" y="1258"/>
			<point x="761" y="1242"/>
			<point x="759" y="1236" type="curve"/>
			<point x="718" y="1074"/>
			<point x="678" y="912"/>
			<point x="637" y="750" type="curve"/>
			<point x="615" y="802"/>
			<point x="561" y="882"/>
			<point x="457" y="882" type="curve" smooth="yes"/>
			<point x="231" y="882"/>
			<point x="-13" y="590"/>
			<point x="-13" y="294" type="curve" smooth="yes"/>
			<point x="-13" y="96"/>
			<point x="103" y="-20"/>
		</contour>
		<contour>
			<point x="245" y="20" type="curve" smooth="yes"/>
			<point x="163" y="20"/>
			<point x="117" y="94"/>
			<point x="117" y="212" type="curve" smooth="yes"/>
			<point x="117" y="322"/>
			<point x="179" y="546"/>
			<point x="217" y="630" type="curve" smooth="yes"/>
			<point x="285" y="770"/>
			<point x="379" y="842"/>
			<point x="457" y="842" type="curve" smooth="yes"/>
			<point x="589" y="842"/>
			<point x="615" y="678"/>
			<point x="615" y="662" type="curve" smooth="yes"/>
			<point x="615" y="660"/>
			<point x="609" y="634"/>
			<point x="607" y="630" type="curve"/>
			<point x="574" y="499"/>
			<point x="542" y="369"/>
			<point x="509" y="238" type="curve" smooth="yes"/>
			<point x="499" y="204"/>
			<point x="499" y="200"/>
			<point x="471" y="162" type="curve" smooth="yes"/>
			<point x="427" y="106"/>
			<point x="339" y="20"/>
		</contour>
	</outline>
</glyph>
<glyph name="e" format="2">
	<unicode hex="0065"/>
	<advance width="453"/>
	<outline>
		<contour>
			<point x="84.0514372593" y="168" type="curve" smooth="yes"/>
			<point x="84.0514372593" y="63"/>
			<point x="144.0514372593" y="-10"/>
			<point x="235.0514372593" y="-10" type="curve" smooth="yes"/>
			<point x="292.0245572593" y="-10"/>
			<point x="340.2229789393" y="8.6023604384"/>
			<point x="377.0000567327" y="31.1770127667" type="curve" smooth="yes"/>
			<point x="428.0131961489" y="62.4901011248"/>
			<point x="457.0514372593" y="101.44596"/>
			<point x="457.0514372593" y="109" type="curve" smooth="yes"/>
			<point x="457.0514372593" y="115"/>
			<point x="451.0514372593" y="120"/>
			<point x="447.0514372593" y="120" type="curve" smooth="yes"/>
			<point x="444.0514372593" y="120"/>
			<point x="443.0514372593" y="119"/>
			<point x="434.0514372593" y="110" type="curve"/>
			<point x="370.0514372593" y="25"/>
			<point x="275.0514372593" y="10"/>
			<point x="237.0514372593" y="10" type="curve" smooth="yes"/>
			<point x="180.0514372593" y="10"/>
			<point x="150.0514372593" y="55"/>
			<point x="150.0514372593" y="129" type="curve" smooth="yes"/>
			<point x="150.0514372593" y="143"/>
			<point x="150.0514372593" y="168"/>
			<point x="165.0514372593" y="232" type="curve"/>
			<point x="182.7004372593" y="232"/>
			<point x="200.3494372593" y="232"/>
			<point x="218.0514372593" y="232" type="curve" smooth="yes"/>
			<point x="245.0514372593" y="232"/>
			<point x="313.0514372593" y="234"/>
			<point x="361.0514372593" y="252" type="curve" smooth="yes"/>
			<point x="437.0514372593" y="281"/>
			<point x="444.0514372593" y="339"/>
			<point x="444.0514372593" y="357" type="curve" smooth="yes"/>
			<point x="444.0514372593" y="401"/>
			<point x="406.0514372593" y="441"/>
			<point x="340.0514372593" y="441" type="curve" smooth="yes"/>
			<point x="235.0514372593" y="441"/>
			<point x="84.0514372593" y="346"/>
		</contour>
		<contour>
			<point x="170.0514372593" y="252" type="curve"/>
			<point x="213.0514372593" y="406"/>
			<point x="308.0514372593" y="421"/>
			<point x="340.0514372593" y="421" type="curve" smooth="yes"/>
			<point x="384.0514372593" y="421"/>
			<point x="414.0514372593" y="395"/>
			<point x="414.0514372593" y="357" type="curve" smooth="yes"/>
			<point x="414.0514372593" y="252"/>
			<point x="254.0514372593" y="252"/>
			<point x="212.0514372593" y="252" type="curve" smooth="yes"/>
			<point x="198.0654372593" y="252"/>
			<point x="184.0794372593" y="252"/>
		</contour>
	</outline>
</glyph>
<glyph name="f" format="2">
	<unicode hex="0066"/>
	<advance width="482"/>
	<outline>
		<contour>
			<point x="400.0514372593" y="402" type="curve"/>
			<point x="485.0514372593" y="402" type="line" smooth="yes"/>
			<point x="505.0514372593" y="402"/>
			<point x="513.0514372593" y="402"/>
			<point x="513.0514372593" y="421" type="curve" smooth="yes"/>
			<point x="513.0514372593" y="431"/>
			<point x="505.0514372593" y="431"/>
			<point x="487.0514372593" y="431" type="curve" smooth="yes"/>
			<point x="406.0514372593" y="431" type="line"/>
			<point x="425.0514372593" y="534"/>
			<point x="439.0514372593" y="605"/>
			<point x="447.0514372593" y="637" type="curve" smooth="yes"/>
			<point x="449.8816372593" y="648.3208"/>
			<point x="456.0493506093" y="659.41909911"/>
			<point x="464.5050406111" y="667.9859165941" type="curve" smooth="yes"/>
			<point x="473.9753417093" y="677.58067953"/>
			<point x="486.3156372593" y="684"/>
			<point x="500.0514372593" y="684" type="curve" smooth="yes"/>
			<point x="521.0514372593" y="684"/>
			<point x="542.0514372593" y="675"/>
			<point x="552.0514372593" y="666" type="curve"/>
			<point x="513.0514372593" y="662"/>
			<point x="501.0514372593" y="633"/>
			<point x="501.0514372593" y="616" type="curve" smooth="yes"/>
			<point x="501.0514372593" y="596"/>
			<point x="516.0514372593" y="584"/>
			<point x="535.0514372593" y="584" type="curve" smooth="yes"/>
			<point x="555.0514372593" y="584"/>
			<point x="585.0514372593" y="601"/>
			<point x="585.0514372593" y="639" type="curve" smooth="yes"/>
			<point x="585.0514372593" y="681"/>
			<point x="543.0514372593" y="704"/>
			<point x="499.0514372593" y="704" type="curve" smooth="yes"/>
			<point x="456.0514372593" y="704"/>
			<point x="414.0514372593" y="672"/>
			<point x="394.0514372593" y="633" type="curve" smooth="yes"/>
			<point x="376.0514372593" y="598"/>
			<point x="366.0514372593" y="562"/>
			<point x="343.0514372593" y="431" type="curve"/>
			<point x="276.0514372593" y="431" type="line" smooth="yes"/>
			<point x="257.0514372593" y="431"/>
			<point x="247.0514372593" y="431"/>
			<point x="247.0514372593" y="413" type="curve" smooth="yes"/>
			<point x="247.0514372593" y="402"/>
			<point x="253.0514372593" y="402"/>
			<point x="273.0514372593" y="402" type="curve" smooth="yes"/>
			<point x="337.0514372593" y="402" type="line"/>
			<point x="328.0514372593" y="355.5"/>
			<point x="313.3014372593" y="275.75"/>
			<point x="297.9264372593" y="194.25" type="curve" smooth="yes"/>
			<point x="282.5514372593" y="112.75"/>
			<point x="266.5514372593" y="29.5"/>
			<point x="255.0514372593" y="-24" type="curve" smooth="yes"/>
			<point x="238.0514372593" y="-111"/>
			<point x="223.0514372593" y="-184"/>
			<point x="173.0514372593" y="-184" type="curve" smooth="yes"/>
			<point x="170.0514372593" y="-184"/>
			<point x="141.0514372593" y="-184"/>
			<point x="123.0514372593" y="-165" type="curve"/>
			<point x="174.0514372593" y="-161"/>
			<point x="174.0514372593" y="-117"/>
			<point x="174.0514372593" y="-116" type="curve" smooth="yes"/>
			<point x="174.0514372593" y="-96"/>
			<point x="159.0514372593" y="-84"/>
			<point x="140.0514372593" y="-84" type="curve" smooth="yes"/>
			<point x="120.0514372593" y="-84"/>
			<point x="90.0514372593" y="-101"/>
			<point x="90.0514372593" y="-139" type="curve" smooth="yes"/>
			<point x="90.0514372593" y="-182"/>
			<point x="134.0514372593" y="-204"/>
			<point x="173.0514372593" y="-204" type="curve" smooth="yes"/>
			<point x="215.1672372593" y="-204"/>
			<point x="247.0538526593" y="-172.80098697"/>
			<point x="270.7527047812" y="-132.6474139357" type="curve" smooth="yes"/>
			<point x="304.4499585493" y="-75.55329253"/>
			<point x="321.5933372593" y="-0.355"/>
			<point x="328.0514372593" y="29" type="curve" smooth="yes"/>
			<point x="346.0514372593" y="106"/>
			<point x="395.0514372593" y="372"/>
		</contour>
	</outline>
</glyph>
<glyph name="g" format="2">
	<unicode hex="0067"/>
	<advance width="468"/>
	<outline>
		<contour>
			<point x="29.5" y="155" type="curve" smooth="yes"/>
			<point x="29.5" y="51"/>
			<point x="92.5" y="0"/>
			<point x="156.5" y="0" type="curve" smooth="yes"/>
			<point x="209.5" y="0"/>
			<point x="256.5" y="42"/>
			<point x="274.5" y="62" type="curve"/>
			<point x="274.5" y="62" type="line"/>
			<point x="267.174" y="32.03"/>
			<point x="259.848" y="2.06"/>
			<point x="252.5" y="-28" type="curve" smooth="yes"/>
			<point x="239.5" y="-83"/>
			<point x="232.5" y="-108"/>
			<point x="196.5" y="-143" type="curve" smooth="yes"/>
			<point x="155.5" y="-184"/>
			<point x="117.5" y="-184"/>
			<point x="95.5" y="-184" type="curve" smooth="yes"/>
			<point x="65.5" y="-184"/>
			<point x="40.5" y="-182"/>
			<point x="15.5" y="-174" type="curve"/>
			<point x="47.5" y="-165"/>
			<point x="55.5" y="-137"/>
			<point x="55.5" y="-126" type="curve" smooth="yes"/>
			<point x="55.5" y="-110"/>
			<point x="43.5" y="-94"/>
			<point x="21.5" y="-94" type="curve" smooth="yes"/>
			<point x="-2.5" y="-94"/>
			<point x="-28.5" y="-114"/>
			<point x="-28.5" y="-147" type="curve" smooth="yes"/>
			<point x="-28.5" y="-188"/>
			<point x="12.5" y="-204"/>
			<point x="97.5" y="-204" type="curve" smooth="yes"/>
			<point x="226.5" y="-204"/>
			<point x="293.5" y="-121"/>
			<point x="306.5" y="-67" type="curve" smooth="yes"/>
			<point x="417.5" y="381" type="line" smooth="yes"/>
			<point x="420.5" y="393"/>
			<point x="420.5" y="395"/>
			<point x="420.5" y="397" type="curve" smooth="yes"/>
			<point x="420.5" y="411"/>
			<point x="409.5" y="422"/>
			<point x="394.5" y="422" type="curve" smooth="yes"/>
			<point x="370.5" y="422"/>
			<point x="356.5" y="402"/>
			<point x="353.5" y="375" type="curve"/>
			<point x="340.5" y="404"/>
			<point x="312.5" y="441"/>
			<point x="262.5" y="441" type="curve" smooth="yes"/>
			<point x="153.5" y="441"/>
			<point x="29.5" y="304"/>
		</contour>
		<contour>
			<point x="291.5" y="127" type="line" smooth="yes"/>
			<point x="287.5" y="111"/>
			<point x="285.5" y="107"/>
			<point x="272.5" y="92" type="curve"/>
			<point x="231.5" y="39"/>
			<point x="189.5" y="20"/>
			<point x="158.5" y="20" type="curve" smooth="yes"/>
			<point x="125.5" y="20"/>
			<point x="94.5" y="46"/>
			<point x="94.5" y="115" type="curve" smooth="yes"/>
			<point x="94.5" y="168"/>
			<point x="124.5" y="280"/>
			<point x="146.5" y="325" type="curve" smooth="yes"/>
			<point x="175.5" y="381"/>
			<point x="220.5" y="421"/>
			<point x="262.5" y="421" type="curve" smooth="yes"/>
			<point x="328.5" y="421"/>
			<point x="341.5" y="339"/>
			<point x="341.5" y="333" type="curve"/>
			<point x="340.501" y="328.338"/>
			<point x="339.502" y="323.676"/>
			<point x="338.5" y="319" type="curve"/>
		</contour>
	</outline>
</glyph>
<glyph name="h" format="2">
  <advance width="563"/>
  <unicode hex="0068"/>
  <outline>
    <contour>
      <point x="391.0514372592618" y="441.0" type="curve" smooth="yes"/>
      <point x="334.0514372592618" y="441.0"/>
      <point x="284.0514372592618" y="414.0"/>
      <point x="243.05143725926177" y="362.0" type="curve"/>
      <point x="320.0514372592618" y="669.0" type="line" smooth="yes"/>
      <point x="321.0514372592618" y="673.0"/>
      <point x="323.0514372592618" y="679.0"/>
      <point x="323.0514372592618" y="684.0" type="curve" smooth="yes"/>
      <point x="323.0514372592618" y="694.0"/>
      <point x="313.0514372592618" y="694.0"/>
      <point x="311.0514372592618" y="694.0" type="curve" smooth="yes"/>
      <point x="306.0514372592618" y="694.0"/>
      <point x="229.4410872592618" y="686.29942"/>
      <point x="206.05143725926177" y="685.0" type="curve" smooth="yes"/>
      <point x="181.05143725926177" y="683.0"/>
      <point x="174.05143725926177" y="682.0"/>
      <point x="174.05143725926177" y="664.0" type="curve" smooth="yes"/>
      <point x="174.05143725926177" y="654.0"/>
      <point x="182.05143725926177" y="654.0"/>
      <point x="196.05143725926177" y="654.0" type="curve" smooth="yes"/>
      <point x="245.05143725926177" y="654.0"/>
      <point x="246.05143725926177" y="645.0"/>
      <point x="246.05143725926177" y="635.0" type="curve" smooth="yes"/>
      <point x="246.05143725926177" y="629.0"/>
      <point x="244.05143725926177" y="621.0"/>
      <point x="243.05143725926177" y="618.0" type="curve"/>
      <point x="98.05143725926179" y="39.0" type="line" smooth="yes"/>
      <point x="94.05143725926179" y="24.0"/>
      <point x="94.05143725926179" y="22.0"/>
      <point x="94.05143725926179" y="16.0" type="curve" smooth="yes"/>
      <point x="94.05143725926179" y="-6.0"/>
      <point x="111.05143725926179" y="-10.0"/>
      <point x="121.05143725926179" y="-10.0" type="curve" smooth="yes"/>
      <point x="138.05143725926177" y="-10.0"/>
      <point x="151.05143725926177" y="3.0"/>
      <point x="156.05143725926177" y="14.0" type="curve"/>
      <point x="171.0364372592618" y="74.273"/>
      <point x="186.0214372592618" y="134.546"/>
      <point x="201.05143725926177" y="195.0" type="curve" smooth="yes"/>
      <point x="206.05143725926177" y="217.0"/>
      <point x="212.05143725926177" y="238.0"/>
      <point x="217.05143725926177" y="260.0" type="curve" smooth="yes"/>
      <point x="228.05143725926177" y="302.0"/>
      <point x="228.05143725926177" y="303.0"/>
      <point x="247.05143725926177" y="332.0" type="curve" smooth="yes"/>
      <point x="266.0514372592618" y="361.0"/>
      <point x="311.0514372592618" y="421.0"/>
      <point x="388.0514372592618" y="421.0" type="curve" smooth="yes"/>
      <point x="428.0514372592618" y="421.0"/>
      <point x="442.0514372592618" y="391.0"/>
      <point x="442.0514372592618" y="351.0" type="curve" smooth="yes"/>
      <point x="442.0514372592618" y="295.0"/>
      <point x="403.0514372592618" y="186.0"/>
      <point x="381.0514372592618" y="126.0" type="curve" smooth="yes"/>
      <point x="372.0514372592618" y="102.0"/>
      <point x="367.0514372592618" y="89.0"/>
      <point x="367.0514372592618" y="71.0" type="curve" smooth="yes"/>
      <point x="367.0514372592618" y="26.0"/>
      <point x="398.0514372592618" y="-10.0"/>
      <point x="446.0514372592618" y="-10.0" type="curve" smooth="yes"/>
      <point x="539.0514372592618" y="-10.0"/>
      <point x="574.0514372592618" y="137.0"/>
      <point x="574.0514372592618" y="143.0" type="curve" smooth="yes"/>
      <point x="574.0514372592618" y="148.0"/>
      <point x="570.0514372592618" y="152.0"/>
      <point x="564.0514372592618" y="152.0" type="curve" smooth="yes"/>
      <point x="555.0514372592618" y="152.0"/>
      <point x="554.0514372592618" y="149.0"/>
      <point x="549.0514372592618" y="132.0" type="curve" smooth="yes"/>
      <point x="526.0514372592618" y="52.0"/>
      <point x="489.0514372592618" y="10.0"/>
      <point x="449.0514372592618" y="10.0" type="curve" smooth="yes"/>
      <point x="439.0514372592618" y="10.0"/>
      <point x="423.0514372592618" y="11.0"/>
      <point x="423.0514372592618" y="43.0" type="curve" smooth="yes"/>
      <point x="423.0514372592618" y="69.0"/>
      <point x="435.0514372592618" y="101.0"/>
      <point x="439.0514372592618" y="112.0" type="curve" smooth="yes"/>
      <point x="457.0514372592618" y="160.0"/>
      <point x="502.0514372592618" y="278.0"/>
      <point x="502.0514372592618" y="336.0" type="curve" smooth="yes"/>
      <point x="502.0514372592618" y="396.0"/>
      <point x="467.0514372592618" y="441.0"/>
    </contour>
  </outline>
</glyph>
<glyph name="i" format="2">
  <advance width="334"/>
  <unicode hex="0069"/>
  <outline>
    <contour>
      <point x="314.0514372592618" y="624.0" type="curve" smooth="yes"/>
      <point x="314.0514372592618" y="639.0"/>
      <point x="302.0514372592618" y="657.0"/>
      <point x="280.0514372592618" y="657.0" type="curve" smooth="yes"/>
      <point x="257.0514372592618" y="657.0"/>
      <point x="231.05143725926177" y="635.0"/>
      <point x="231.05143725926177" y="609.0" type="curve" smooth="yes"/>
      <point x="231.05143725926177" y="584.0"/>
      <point x="252.05143725926177" y="576.0"/>
      <point x="264.0514372592618" y="576.0" type="curve" smooth="yes"/>
      <point x="291.0514372592618" y="576.0"/>
      <point x="314.0514372592618" y="602.0"/>
    </contour>
    <contour>
      <point x="115.05143725926179" y="71.0" type="curve" smooth="yes"/>
      <point x="115.05143725926179" y="26.0"/>
      <point x="146.05143725926177" y="-10.0"/>
      <point x="194.05143725926177" y="-10.0" type="curve" smooth="yes"/>
      <point x="286.0514372592618" y="-10.0"/>
      <point x="322.0514372592618" y="136.0"/>
      <point x="322.0514372592618" y="143.0" type="curve" smooth="yes"/>
      <point x="322.0514372592618" y="148.0"/>
      <point x="318.0514372592618" y="152.0"/>
      <point x="312.0514372592618" y="152.0" type="curve" smooth="yes"/>
      <point x="303.0514372592618" y="152.0"/>
      <point x="302.0514372592618" y="149.0"/>
      <point x="297.0514372592618" y="132.0" type="curve" smooth="yes"/>
      <point x="271.0514372592618" y="41.0"/>
      <point x="230.05143725926177" y="10.0"/>
      <point x="197.05143725926177" y="10.0" type="curve" smooth="yes"/>
      <point x="185.05143725926177" y="10.0"/>
      <point x="171.05143725926177" y="13.0"/>
      <point x="171.05143725926177" y="43.0" type="curve" smooth="yes"/>
      <point x="171.05143725926177" y="70.0"/>
      <point x="183.05143725926177" y="100.0"/>
      <point x="194.05143725926177" y="130.0" type="curve" smooth="yes"/>
      <point x="217.36143725926178" y="191.938"/>
      <point x="240.67143725926178" y="253.876"/>
      <point x="264.0514372592618" y="316.0" type="curve" smooth="yes"/>
      <point x="267.0514372592618" y="324.0"/>
      <point x="274.0514372592618" y="342.0"/>
      <point x="274.0514372592618" y="361.0" type="curve" smooth="yes"/>
      <point x="274.0514372592618" y="403.0"/>
      <point x="244.05143725926177" y="441.0"/>
      <point x="195.05143725926177" y="441.0" type="curve" smooth="yes"/>
      <point x="103.05143725926179" y="441.0"/>
      <point x="66.05143725926179" y="296.0"/>
      <point x="66.05143725926179" y="288.0" type="curve" smooth="yes"/>
      <point x="66.05143725926179" y="284.0"/>
      <point x="70.05143725926179" y="279.0"/>
      <point x="77.05143725926179" y="279.0" type="curve" smooth="yes"/>
      <point x="86.05143725926179" y="279.0"/>
      <point x="87.05143725926179" y="283.0"/>
      <point x="91.05143725926179" y="297.0" type="curve" smooth="yes"/>
      <point x="115.05143725926179" y="381.0"/>
      <point x="153.05143725926177" y="421.0"/>
      <point x="192.05143725926177" y="421.0" type="curve" smooth="yes"/>
      <point x="201.05143725926177" y="421.0"/>
      <point x="218.05143725926177" y="420.0"/>
      <point x="218.05143725926177" y="388.0" type="curve" smooth="yes"/>
      <point x="218.05143725926177" y="362.0"/>
      <point x="205.05143725926177" y="329.0"/>
      <point x="197.05143725926177" y="307.0" type="curve" smooth="yes"/>
      <point x="173.74143725926177" y="245.062"/>
      <point x="150.43143725926177" y="183.124"/>
      <point x="127.05143725926179" y="121.0" type="curve" smooth="yes"/>
      <point x="121.05143725926179" y="105.0"/>
      <point x="115.05143725926179" y="89.0"/>
    </contour>
  </outline>
</glyph>
<glyph name="j" format="2">
	<unicode hex="006A"/>
	<advance width="810"/>
	<outline>
		<contour>
			<point x="752.1028745185" y="1248" type="curve" smooth="yes"/>
			<point x="752.1028745185" y="1298"/>
			<point x="710.1028745185" y="1314"/>
			<point x="686.1028745185" y="1314" type="curve" smooth="yes"/>
			<point x="632.1028745185" y="1314"/>
			<point x="586.1028745185" y="1262"/>
			<point x="586.1028745185" y="1218" type="curve" smooth="yes"/>
			<point x="586.1028745185" y="1188"/>
			<point x="610.1028745185" y="1152"/>
			<point x="654.1028745185" y="1152" type="curve" smooth="yes"/>
			<point x="700.1028745185" y="1152"/>
			<point x="752.1028745185" y="1196"/>
		</contour>
		<contour>
			<point x="356.1028745185" y="-108" type="line" smooth="yes"/>
			<point x="318.1028745185" y="-256"/>
			<point x="224.1028745185" y="-368"/>
			<point x="114.1028745185" y="-368" type="curve" smooth="yes"/>
			<point x="106.1028745185" y="-368"/>
			<point x="64.1028745185" y="-368"/>
			<point x="26.1028745185" y="-348" type="curve"/>
			<point x="74.1028745185" y="-338"/>
			<point x="112.1028745185" y="-300"/>
			<point x="112.1028745185" y="-252" type="curve" smooth="yes"/>
			<point x="112.1028745185" y="-220"/>
			<point x="88.1028745185" y="-188"/>
			<point x="44.1028745185" y="-188" type="curve" smooth="yes"/>
			<point x="-7.8971254815" y="-188"/>
			<point x="-55.8971254815" y="-232"/>
			<point x="-55.8971254815" y="-292" type="curve" smooth="yes"/>
			<point x="-55.8971254815" y="-374"/>
			<point x="32.1028745185" y="-408"/>
			<point x="114.1028745185" y="-408" type="curve" smooth="yes"/>
			<point x="252.1028745185" y="-408"/>
			<point x="434.1028745185" y="-306"/>
			<point x="484.1028745185" y="-106" type="curve" smooth="yes"/>
			<point x="670.1028745185" y="634" type="line" smooth="yes"/>
			<point x="678.1028745185" y="666"/>
			<point x="678.1028745185" y="694"/>
			<point x="678.1028745185" y="702" type="curve" smooth="yes"/>
			<point x="678.1028745185" y="818"/>
			<point x="592.1028745185" y="882"/>
			<point x="502.1028745185" y="882" type="curve" smooth="yes"/>
			<point x="300.1028745185" y="882"/>
			<point x="192.1028745185" y="590"/>
			<point x="192.1028745185" y="576" type="curve" smooth="yes"/>
			<point x="192.1028745185" y="566"/>
			<point x="200.1028745185" y="558"/>
			<point x="212.1028745185" y="558" type="curve" smooth="yes"/>
			<point x="228.1028745185" y="558"/>
			<point x="230.1028745185" y="566"/>
			<point x="240.1028745185" y="586" type="curve"/>
			<point x="320.1028745185" y="780"/>
			<point x="420.1028745185" y="842"/>
			<point x="496.1028745185" y="842" type="curve" smooth="yes"/>
			<point x="538.1028745185" y="842"/>
			<point x="560.1028745185" y="820"/>
			<point x="560.1028745185" y="750" type="curve" smooth="yes"/>
			<point x="560.1028745185" y="702"/>
			<point x="554.1028745185" y="682"/>
			<point x="546.1028745185" y="646" type="curve" smooth="yes"/>
		</contour>
	</outline>
</glyph>
<glyph name="k" format="2">
  <advance width="509"/>
  <unicode hex="006B"/>
  <outline>
    <contour>
      <point x="407.0514372592618" y="-10.0" type="curve" smooth="yes"/>
      <point x="453.0514372592618" y="-10.0"/>
      <point x="477.0514372592618" y="32.0"/>
      <point x="485.0514372592618" y="46.0" type="curve" smooth="yes"/>
      <point x="506.0514372592618" y="83.0"/>
      <point x="519.0514372592618" y="139.0"/>
      <point x="519.0514372592618" y="143.0" type="curve" smooth="yes"/>
      <point x="519.0514372592618" y="148.0"/>
      <point x="515.0514372592618" y="152.0"/>
      <point x="509.0514372592618" y="152.0" type="curve" smooth="yes"/>
      <point x="500.0514372592618" y="152.0"/>
      <point x="499.0514372592618" y="148.0"/>
      <point x="495.0514372592618" y="132.0" type="curve" smooth="yes"/>
      <point x="481.0514372592618" y="80.0"/>
      <point x="460.0514372592618" y="10.0"/>
      <point x="409.0514372592618" y="10.0" type="curve" smooth="yes"/>
      <point x="389.0514372592618" y="10.0"/>
      <point x="376.0514372592618" y="20.0"/>
      <point x="376.0514372592618" y="58.0" type="curve" smooth="yes"/>
      <point x="376.0514372592618" y="77.0"/>
      <point x="380.0514372592618" y="99.0"/>
      <point x="384.0514372592618" y="114.0" type="curve" smooth="yes"/>
      <point x="388.0514372592618" y="132.0"/>
      <point x="388.0514372592618" y="133.0"/>
      <point x="388.0514372592618" y="145.0" type="curve" smooth="yes"/>
      <point x="388.0514372592618" y="204.0"/>
      <point x="335.0514372592618" y="237.0"/>
      <point x="243.05143725926177" y="249.0" type="curve"/>
      <point x="279.0514372592618" y="271.0"/>
      <point x="315.0514372592618" y="310.0"/>
      <point x="329.0514372592618" y="325.0" type="curve" smooth="yes"/>
      <point x="386.0514372592618" y="389.0"/>
      <point x="425.0514372592618" y="421.0"/>
      <point x="471.0514372592618" y="421.0" type="curve" smooth="yes"/>
      <point x="494.0514372592618" y="421.0"/>
      <point x="500.0514372592618" y="415.0"/>
      <point x="507.0514372592618" y="409.0" type="curve"/>
      <point x="470.0514372592618" y="405.0"/>
      <point x="456.0514372592618" y="379.0"/>
      <point x="456.0514372592618" y="359.0" type="curve" smooth="yes"/>
      <point x="456.0514372592618" y="335.0"/>
      <point x="475.0514372592618" y="327.0"/>
      <point x="489.0514372592618" y="327.0" type="curve" smooth="yes"/>
      <point x="516.0514372592618" y="327.0"/>
      <point x="540.0514372592618" y="350.0"/>
      <point x="540.0514372592618" y="382.0" type="curve" smooth="yes"/>
      <point x="540.0514372592618" y="411.0"/>
      <point x="517.0514372592618" y="441.0"/>
      <point x="472.0514372592618" y="441.0" type="curve" smooth="yes"/>
      <point x="417.0514372592618" y="441.0"/>
      <point x="372.0514372592618" y="402.0"/>
      <point x="301.0514372592618" y="322.0" type="curve" smooth="yes"/>
      <point x="291.0514372592618" y="310.0"/>
      <point x="254.05143725926177" y="272.0"/>
      <point x="217.05143725926177" y="258.0" type="curve"/>
      <point x="320.0514372592618" y="669.0" type="line" smooth="yes"/>
      <point x="321.0514372592618" y="673.0"/>
      <point x="323.0514372592618" y="679.0"/>
      <point x="323.0514372592618" y="684.0" type="curve" smooth="yes"/>
      <point x="323.0514372592618" y="694.0"/>
      <point x="313.0514372592618" y="694.0"/>
      <point x="311.0514372592618" y="694.0" type="curve" smooth="yes"/>
      <point x="309.0514372592618" y="694.0"/>
      <point x="243.1944572592618" y="687.0635"/>
      <point x="206.05143725926177" y="685.0" type="curve" smooth="yes"/>
      <point x="182.05143725926177" y="683.0"/>
      <point x="175.05143725926177" y="682.0"/>
      <point x="175.05143725926177" y="664.0" type="curve" smooth="yes"/>
      <point x="175.05143725926177" y="654.0"/>
      <point x="185.05143725926177" y="654.0"/>
      <point x="195.05143725926177" y="654.0" type="curve" smooth="yes"/>
      <point x="246.05143725926177" y="654.0"/>
      <point x="246.05143725926177" y="645.0"/>
      <point x="246.05143725926177" y="635.0" type="curve" smooth="yes"/>
      <point x="246.05143725926177" y="631.0"/>
      <point x="246.05143725926177" y="629.0"/>
      <point x="241.05143725926177" y="611.0" type="curve" smooth="yes"/>
      <point x="98.05143725926179" y="39.0" type="line" smooth="yes"/>
      <point x="94.05143725926179" y="24.0"/>
      <point x="94.05143725926179" y="22.0"/>
      <point x="94.05143725926179" y="16.0" type="curve" smooth="yes"/>
      <point x="94.05143725926179" y="-6.0"/>
      <point x="111.05143725926179" y="-10.0"/>
      <point x="121.05143725926179" y="-10.0" type="curve" smooth="yes"/>
      <point x="149.05143725926177" y="-10.0"/>
      <point x="155.05143725926177" y="12.0"/>
      <point x="163.05143725926177" y="43.0" type="curve" smooth="yes"/>
      <point x="178.70243725926179" y="105.271"/>
      <point x="194.3534372592618" y="167.542"/>
      <point x="210.05143725926177" y="230.0" type="curve"/>
      <point x="282.0514372592618" y="222.0"/>
      <point x="325.0514372592618" y="192.0"/>
      <point x="325.0514372592618" y="144.0" type="curve" smooth="yes"/>
      <point x="325.0514372592618" y="138.0"/>
      <point x="325.0514372592618" y="134.0"/>
      <point x="322.0514372592618" y="119.0" type="curve"/>
      <point x="318.0514372592618" y="104.0"/>
      <point x="318.0514372592618" y="92.0"/>
      <point x="318.0514372592618" y="87.0" type="curve" smooth="yes"/>
      <point x="318.0514372592618" y="29.0"/>
      <point x="356.0514372592618" y="-10.0"/>
    </contour>
  </outline>
</glyph>
<glyph name="l" format="2">
	<unicode hex="006C"/>
	<advance width="582"/>
	<outline>
		<contour>
			<point x="133" y="218" type="curve" smooth="yes"/>
			<point x="415" y="1338" type="line" smooth="yes"/>
			<point x="417" y="1346"/>
			<point x="421" y="1358"/>
			<point x="421" y="1368" type="curve" smooth="yes"/>
			<point x="421" y="1388"/>
			<point x="401" y="1388"/>
			<point x="397" y="1388" type="curve" smooth="yes"/>
			<point x="393" y="1388"/>
			<point x="269" y="1376"/>
			<point x="187" y="1370" type="curve" smooth="yes"/>
			<point x="139" y="1366"/>
			<point x="125" y="1364"/>
			<point x="125" y="1328" type="curve" smooth="yes"/>
			<point x="125" y="1308"/>
			<point x="145" y="1308"/>
			<point x="165" y="1308" type="curve" smooth="yes"/>
			<point x="267" y="1308"/>
			<point x="267" y="1290"/>
			<point x="267" y="1270" type="curve" smooth="yes"/>
			<point x="267" y="1262"/>
			<point x="267" y="1258"/>
			<point x="257" y="1222" type="curve" smooth="yes"/>
			<point x="9" y="230" type="line" smooth="yes"/>
			<point x="3" y="208"/>
			<point x="-1" y="192"/>
			<point x="-1" y="160" type="curve" smooth="yes"/>
			<point x="-1" y="60"/>
			<point x="73" y="-20"/>
			<point x="175" y="-20" type="curve" smooth="yes"/>
			<point x="241" y="-20"/>
			<point x="285" y="24"/>
			<point x="317" y="86" type="curve" smooth="yes"/>
			<point x="351" y="152"/>
			<point x="379" y="278"/>
			<point x="379" y="286" type="curve" smooth="yes"/>
			<point x="379" y="296"/>
			<point x="371" y="304"/>
			<point x="359" y="304" type="curve" smooth="yes"/>
			<point x="341" y="304"/>
			<point x="339" y="294"/>
			<point x="331" y="264" type="curve" smooth="yes"/>
			<point x="295" y="126"/>
			<point x="259" y="20"/>
			<point x="179" y="20" type="curve" smooth="yes"/>
			<point x="119" y="20"/>
			<point x="119" y="84"/>
			<point x="119" y="112" type="curve" smooth="yes"/>
			<point x="119" y="120"/>
			<point x="119" y="162"/>
		</contour>
	</outline>
</glyph>
<glyph name="m" format="2">
  <advance width="856"/>
  <unicode hex="006D"/>
  <outline>
    <contour>
      <point x="140.05143725926177" y="-10.0" type="curve" smooth="yes"/>
      <point x="152.05143725926177" y="-10.0"/>
      <point x="166.05143725926177" y="-4.0"/>
      <point x="174.05143725926177" y="11.0" type="curve"/>
      <point x="176.05143725926177" y="16.0"/>
      <point x="185.05143725926177" y="51.0"/>
      <point x="190.05143725926177" y="71.0" type="curve" smooth="yes"/>
      <point x="208.36643725926177" y="144.926"/>
      <point x="226.68143725926177" y="218.852"/>
      <point x="245.05143725926177" y="293.0" type="curve"/>
      <point x="247.05143725926177" y="299.0"/>
      <point x="272.0514372592618" y="349.0"/>
      <point x="309.0514372592618" y="381.0" type="curve" smooth="yes"/>
      <point x="335.0514372592618" y="405.0"/>
      <point x="369.0514372592618" y="421.0"/>
      <point x="408.0514372592618" y="421.0" type="curve" smooth="yes"/>
      <point x="448.0514372592618" y="421.0"/>
      <point x="462.0514372592618" y="391.0"/>
      <point x="462.0514372592618" y="351.0" type="curve" smooth="yes"/>
      <point x="462.0514372592618" y="345.0"/>
      <point x="462.0514372592618" y="325.0"/>
      <point x="450.0514372592618" y="278.0" type="curve" smooth="yes"/>
      <point x="418.0514372592618" y="145.0"/>
      <point x="398.0514372592618" y="71.0"/>
      <point x="396.0514372592618" y="60.0" type="curve"/>
      <point x="392.0514372592618" y="45.0"/>
      <point x="386.0514372592618" y="19.0"/>
      <point x="386.0514372592618" y="15.0" type="curve" smooth="yes"/>
      <point x="386.0514372592618" y="1.0"/>
      <point x="397.0514372592618" y="-10.0"/>
      <point x="412.0514372592618" y="-10.0" type="curve" smooth="yes"/>
      <point x="422.9606372592618" y="-10.0"/>
      <point x="430.5639860192618" y="-6.9586168592"/>
      <point x="436.2559656433618" y="-1.3567064756" type="curve" smooth="yes"/>
      <point x="446.2167734576618" y="8.4464826448"/>
      <point x="450.3241972592618" y="26.09104"/>
      <point x="456.0514372592618" y="49.0" type="curve" smooth="yes"/>
      <point x="476.6974372592618" y="127.921"/>
      <point x="497.3434372592618" y="206.842"/>
      <point x="518.0514372592618" y="286.0" type="curve" smooth="yes"/>
      <point x="519.0514372592618" y="291.0"/>
      <point x="542.7966091042618" y="348.3168453173"/>
      <point x="590.6478850207618" y="385.9508710997" type="curve" smooth="yes"/>
      <point x="614.7934733994618" y="404.9408703875"/>
      <point x="645.1607372592619" y="419.0"/>
      <point x="682.0514372592618" y="419.0" type="curve" smooth="yes"/>
      <point x="722.0514372592618" y="419.0"/>
      <point x="734.0514372592618" y="391.0"/>
      <point x="734.0514372592618" y="351.0" type="curve" smooth="yes"/>
      <point x="734.0514372592618" y="295.0"/>
      <point x="695.0514372592618" y="186.0"/>
      <point x="673.0514372592618" y="126.0" type="curve" smooth="yes"/>
      <point x="664.0514372592618" y="102.0"/>
      <point x="659.0514372592618" y="89.0"/>
      <point x="659.0514372592618" y="71.0" type="curve" smooth="yes"/>
      <point x="659.0514372592618" y="26.0"/>
      <point x="690.0514372592618" y="-10.0"/>
      <point x="738.0514372592618" y="-10.0" type="curve" smooth="yes"/>
      <point x="831.0514372592618" y="-10.0"/>
      <point x="866.0514372592618" y="137.0"/>
      <point x="866.0514372592618" y="143.0" type="curve" smooth="yes"/>
      <point x="866.0514372592618" y="148.0"/>
      <point x="862.0514372592618" y="152.0"/>
      <point x="856.0514372592618" y="152.0" type="curve" smooth="yes"/>
      <point x="847.0514372592618" y="152.0"/>
      <point x="846.0514372592618" y="149.0"/>
      <point x="841.0514372592618" y="132.0" type="curve" smooth="yes"/>
      <point x="818.0514372592618" y="52.0"/>
      <point x="781.0514372592618" y="10.0"/>
      <point x="741.0514372592618" y="10.0" type="curve" smooth="yes"/>
      <point x="731.0514372592618" y="10.0"/>
      <point x="715.0514372592618" y="11.0"/>
      <point x="715.0514372592618" y="43.0" type="curve" smooth="yes"/>
      <point x="715.0514372592618" y="69.0"/>
      <point x="727.0514372592618" y="101.0"/>
      <point x="731.0514372592618" y="112.0" type="curve" smooth="yes"/>
      <point x="749.0514372592618" y="160.0"/>
      <point x="794.0514372592618" y="278.0"/>
      <point x="794.0514372592618" y="336.0" type="curve" smooth="yes"/>
      <point x="794.0514372592618" y="396.0"/>
      <point x="759.0514372592618" y="441.0"/>
      <point x="683.0514372592618" y="441.0" type="curve" smooth="yes"/>
      <point x="616.0514372592618" y="441.0"/>
      <point x="562.0514372592618" y="403.0"/>
      <point x="522.0514372592618" y="344.0" type="curve"/>
      <point x="519.0514372592618" y="398.0"/>
      <point x="486.0514372592618" y="441.0"/>
      <point x="411.0514372592618" y="441.0" type="curve" smooth="yes"/>
      <point x="322.0514372592618" y="441.0"/>
      <point x="275.0514372592618" y="378.0"/>
      <point x="257.0514372592618" y="353.0" type="curve"/>
      <point x="254.05143725926177" y="410.0"/>
      <point x="213.05143725926177" y="441.0"/>
      <point x="169.05143725926177" y="441.0" type="curve" smooth="yes"/>
      <point x="140.05143725926177" y="441.0"/>
      <point x="117.05143725926179" y="427.0"/>
      <point x="98.05143725926179" y="389.0" type="curve" smooth="yes"/>
      <point x="80.05143725926179" y="353.0"/>
      <point x="66.05143725926179" y="292.0"/>
      <point x="66.05143725926179" y="288.0" type="curve" smooth="yes"/>
      <point x="66.05143725926179" y="284.0"/>
      <point x="70.05143725926179" y="279.0"/>
      <point x="77.05143725926179" y="279.0" type="curve" smooth="yes"/>
      <point x="85.05143725926179" y="279.0"/>
      <point x="86.05143725926179" y="280.0"/>
      <point x="92.05143725926179" y="303.0" type="curve" smooth="yes"/>
      <point x="107.05143725926179" y="362.0"/>
      <point x="126.05143725926179" y="421.0"/>
      <point x="166.05143725926177" y="421.0" type="curve" smooth="yes"/>
      <point x="189.05143725926177" y="421.0"/>
      <point x="197.05143725926177" y="405.0"/>
      <point x="197.05143725926177" y="375.0" type="curve" smooth="yes"/>
      <point x="197.05143725926177" y="353.0"/>
      <point x="187.05143725926177" y="314.0"/>
      <point x="180.05143725926177" y="283.0" type="curve" smooth="yes"/>
      <point x="147.05143725926177" y="156.0"/>
      <point x="137.05143725926177" y="111.0"/>
      <point x="132.05143725926177" y="93.0" type="curve" smooth="yes"/>
      <point x="125.05143725926179" y="67.0"/>
      <point x="114.05143725926179" y="20.0"/>
      <point x="114.05143725926179" y="15.0" type="curve" smooth="yes"/>
      <point x="114.05143725926179" y="1.0"/>
      <point x="125.05143725926179" y="-10.0"/>
    </contour>
  </outline>
</glyph>
<glyph name="n" format="2">
  <advance width="584"/>
  <unicode hex="006E"/>
  <outline>
    <contour>
      <point x="140.05143725926177" y="-10.0" type="curve" smooth="yes"/>
      <point x="152.05143725926177" y="-10.0"/>
      <point x="168.05143725926177" y="-2.0"/>
      <point x="174.05143725926177" y="11.0" type="curve" smooth="yes"/>
      <point x="176.05143725926177" y="16.0"/>
      <point x="185.05143725926177" y="51.0"/>
      <point x="190.05143725926177" y="71.0" type="curve" smooth="yes"/>
      <point x="208.36643725926177" y="144.926"/>
      <point x="226.68143725926177" y="218.852"/>
      <point x="245.05143725926177" y="293.0" type="curve"/>
      <point x="247.05143725926177" y="299.0"/>
      <point x="272.0514372592618" y="349.0"/>
      <point x="309.0514372592618" y="381.0" type="curve" smooth="yes"/>
      <point x="335.0514372592618" y="405.0"/>
      <point x="369.0514372592618" y="421.0"/>
      <point x="408.0514372592618" y="421.0" type="curve" smooth="yes"/>
      <point x="448.0514372592618" y="421.0"/>
      <point x="462.0514372592618" y="391.0"/>
      <point x="462.0514372592618" y="351.0" type="curve" smooth="yes"/>
      <point x="462.0514372592618" y="294.0"/>
      <point x="421.0514372592618" y="180.0"/>
      <point x="401.0514372592618" y="126.0" type="curve" smooth="yes"/>
      <point x="392.0514372592618" y="102.0"/>
      <point x="387.0514372592618" y="89.0"/>
      <point x="387.0514372592618" y="71.0" type="curve" smooth="yes"/>
      <point x="387.0514372592618" y="26.0"/>
      <point x="418.0514372592618" y="-10.0"/>
      <point x="466.0514372592618" y="-10.0" type="curve" smooth="yes"/>
      <point x="559.0514372592618" y="-10.0"/>
      <point x="594.0514372592618" y="137.0"/>
      <point x="594.0514372592618" y="143.0" type="curve" smooth="yes"/>
      <point x="594.0514372592618" y="148.0"/>
      <point x="590.0514372592618" y="152.0"/>
      <point x="584.0514372592618" y="152.0" type="curve" smooth="yes"/>
      <point x="575.0514372592618" y="152.0"/>
      <point x="574.0514372592618" y="149.0"/>
      <point x="569.0514372592618" y="132.0" type="curve" smooth="yes"/>
      <point x="546.0514372592618" y="50.0"/>
      <point x="508.0514372592618" y="10.0"/>
      <point x="469.0514372592618" y="10.0" type="curve" smooth="yes"/>
      <point x="459.0514372592618" y="10.0"/>
      <point x="443.0514372592618" y="11.0"/>
      <point x="443.0514372592618" y="43.0" type="curve" smooth="yes"/>
      <point x="443.0514372592618" y="68.0"/>
      <point x="455.0514372592618" y="98.0"/>
      <point x="460.0514372592618" y="112.0" type="curve" smooth="yes"/>
      <point x="481.0514372592618" y="167.0"/>
      <point x="522.0514372592618" y="279.0"/>
      <point x="522.0514372592618" y="336.0" type="curve" smooth="yes"/>
      <point x="522.0514372592618" y="396.0"/>
      <point x="487.0514372592618" y="441.0"/>
      <point x="411.0514372592618" y="441.0" type="curve" smooth="yes"/>
      <point x="322.0514372592618" y="441.0"/>
      <point x="275.0514372592618" y="378.0"/>
      <point x="257.0514372592618" y="353.0" type="curve"/>
      <point x="254.05143725926177" y="410.0"/>
      <point x="213.05143725926177" y="441.0"/>
      <point x="169.05143725926177" y="441.0" type="curve" smooth="yes"/>
      <point x="137.05143725926177" y="441.0"/>
      <point x="115.05143725926179" y="422.0"/>
      <point x="98.05143725926179" y="388.0" type="curve" smooth="yes"/>
      <point x="80.05143725926179" y="352.0"/>
      <point x="66.05143725926179" y="292.0"/>
      <point x="66.05143725926179" y="288.0" type="curve" smooth="yes"/>
      <point x="66.05143725926179" y="284.0"/>
      <point x="70.05143725926179" y="279.0"/>
      <point x="77.05143725926179" y="279.0" type="curve" smooth="yes"/>
      <point x="85.05143725926179" y="279.0"/>
      <point x="86.05143725926179" y="280.0"/>
      <point x="92.05143725926179" y="303.0" type="curve" smooth="yes"/>
      <point x="108.05143725926179" y="364.0"/>
      <point x="126.05143725926179" y="421.0"/>
      <point x="166.05143725926177" y="421.0" type="curve" smooth="yes"/>
      <point x="189.05143725926177" y="421.0"/>
      <point x="197.05143725926177" y="405.0"/>
      <point x="197.05143725926177" y="375.0" type="curve" smooth="yes"/>
      <point x="197.05143725926177" y="353.0"/>
      <point x="187.05143725926177" y="314.0"/>
      <point x="180.05143725926177" y="283.0" type="curve" smooth="yes"/>
      <point x="147.05143725926177" y="156.0"/>
      <point x="137.05143725926177" y="111.0"/>
      <point x="132.05143725926177" y="93.0" type="curve" smooth="yes"/>
      <point x="125.05143725926179" y="67.0"/>
      <point x="114.05143725926179" y="20.0"/>
      <point x="114.05143725926179" y="15.0" type="curve" smooth="yes"/>
      <point x="114.05143725926179" y="1.0"/>
      <point x="125.05143725926179" y="-10.0"/>
    </contour>
  </outline>
</glyph>
